<?xml version="1.0" encoding="UTF-8"?>
<svg width="700pt" height="700pt" version="1.1" viewBox="0 0 700 700" xmlns="http://www.w3.org/2000/svg">
 <g>
  <path d="m217.87 35.012c-4.4766 0.44531-7.8828 4.2188-7.8789 8.7148v26.301l-26.234 0.003906c-0.28906-0.015625-0.57812-0.027344-0.875-0.015625v0.015625c-4.4844 0.44141-7.8984 4.2109-7.8945 8.7148v26.285h-26.215c-0.29688-0.015625-0.60547-0.015625-0.90625 0-4.4766 0.44922-7.8828 4.2188-7.8789 8.7148v183.94c0.35156-1.2188 0.69141-2.4375 1.043-3.6562 3.6445-13.594 7.9414-26.543 16.441-37.086v-134.41h17.5v118.31c5.3984-3.6328 11.297-6.5469 17.516-8.7656v-144.55h17.5v140.46c2.8789-0.33203 5.7891-0.52734 8.75-0.52734 34.121 0 63.297 22.02 74.168 52.535h249.56v17.516h-245.46c0.31641 2.8477 0.51562 5.7383 0.51562 8.6641 0 2.9922-0.20312 5.9258-0.53516 8.8359h210.48v17.5h-214.61c-2.2266 6.2148-5.1484 12.109-8.7852 17.5h232.13c4.8594 0.015625 8.8008-3.9258 8.7852-8.7852v-26.215h26.215c4.8594 0.015625 8.8008-3.9258 8.7852-8.7852v-26.234h26.234c4.8594 0.015625 8.8008-3.9258 8.7852-8.7852v-227.48c0-4.832-3.9531-8.7344-8.7852-8.7148l-367.5 0.003906c-0.28125-0.015625-0.55859-0.015625-0.83984 0zm96.695 17.5h175.86c4.1953 46.074 40.992 82.84 87.074 87.004v35.906c-46.105 4.1641-82.906 40.965-87.074 87.074h-175.86c-4.1719-46.086-40.996-82.875-87.074-87.074v-35.906c46.055-4.1953 82.871-40.953 87.074-87.004z"/>
  <path d="m218.73 244.96c-33.715 0-61.219 27.516-61.219 61.25 0 33.734 27.504 61.25 61.219 61.25 33.715 0 61.281-27.516 61.281-61.25 0-33.734-27.566-61.25-61.281-61.25z"/>
  <path d="m218.72 385c-62.852 0-113.72 50.871-113.72 113.72v17.5c-0.007812 2.332 0.91406 4.5703 2.5625 6.2188 1.6484 1.6484 3.8867 2.5742 6.2188 2.5625h209.94c2.332 0.011718 4.5703-0.91406 6.2188-2.5625 1.6484-1.6484 2.5703-3.8867 2.5625-6.2188v-17.5c0-62.848-50.934-113.72-113.78-113.72z"/>
  <path d="m402.46 87.484c-15.387 0-28.895 8.7773-38.035 21.578-9.1367 12.801-14.465 29.781-14.465 48.391 0 18.605 5.3281 35.652 14.465 48.453 9.1406 12.801 22.648 21.578 38.035 21.578s28.898-8.7773 38.035-21.578c9.1367-12.801 14.465-29.848 14.465-48.453s-5.3281-35.59-14.465-48.391c-9.1367-12.801-22.648-21.578-38.035-21.578z"/>
 </g>
</svg>
