<svg width="936" height="232" viewBox="0 0 936 232" fill="none" xmlns="http://www.w3.org/2000/svg">
<circle cx="70.5" cy="94.5" r="70.5" fill="url(#paint0_linear_12_55)"/>
<circle cx="70.5" cy="94.5" r="70.5" fill="url(#paint1_linear_12_55)"/>
<circle cx="107" cy="15" r="9" fill="url(#paint2_linear_12_55)"/>
<circle cx="120" cy="28" r="4" fill="url(#paint3_linear_12_55)"/>
<circle cx="104.5" cy="2.5" r="2.5" fill="url(#paint4_linear_12_55)"/>
<circle cx="335.5" cy="94.5" r="70.5" fill="url(#paint5_linear_12_55)"/>
<circle cx="385.5" cy="22.7422" r="7.5" transform="rotate(57.021 385.5 22.7422)" fill="url(#paint6_linear_12_55)"/>
<circle cx="381.458" cy="7.70025" r="2.5" transform="rotate(-175.204 381.458 7.70025)" fill="url(#paint7_linear_12_55)"/>
<path d="M43.7898 103.259C42.8172 103.252 41.8786 103.089 40.9737 102.769C40.075 102.449 39.2687 101.929 38.5547 101.209C37.8407 100.489 37.2744 99.5346 36.8558 98.3466C36.4434 97.1586 36.2372 95.6998 36.2372 93.9702C36.2434 92.3821 36.425 90.9633 36.782 89.7138C37.1451 88.4581 37.6622 87.3932 38.3331 86.5192C39.0102 85.6451 39.8196 84.9803 40.7614 84.5249C41.7031 84.0632 42.7588 83.8324 43.9283 83.8324C45.1901 83.8324 46.3042 84.0786 47.2706 84.571C48.237 85.0573 49.0125 85.719 49.5973 86.5561C50.1882 87.3932 50.5452 88.3319 50.6683 89.3722H46.7259C46.572 88.7135 46.2488 88.1965 45.7564 87.821C45.264 87.4455 44.6546 87.2578 43.9283 87.2578C42.6972 87.2578 41.7616 87.7933 41.1214 88.8643C40.4875 89.9354 40.1643 91.3911 40.152 93.2315H40.2812C40.5644 92.6714 40.946 92.1944 41.4261 91.8004C41.9124 91.4003 42.4633 91.0956 43.0788 90.8864C43.7005 90.6709 44.3561 90.5632 45.0455 90.5632C46.1657 90.5632 47.1629 90.8279 48.0369 91.3572C48.911 91.8804 49.6004 92.6006 50.1051 93.5178C50.6098 94.4349 50.8622 95.4844 50.8622 96.6662C50.8622 97.9465 50.5637 99.0852 49.9666 100.082C49.3757 101.08 48.5478 101.861 47.483 102.428C46.4242 102.988 45.1932 103.265 43.7898 103.259ZM43.7713 100.119C44.3868 100.119 44.9377 99.9716 45.424 99.6761C45.9103 99.3807 46.2919 98.9806 46.5689 98.4759C46.8459 97.9711 46.9844 97.4048 46.9844 96.777C46.9844 96.1491 46.8459 95.5859 46.5689 95.0874C46.2981 94.5888 45.9226 94.1918 45.4425 93.8963C44.9624 93.6009 44.4145 93.4531 43.799 93.4531C43.3374 93.4531 42.9096 93.5393 42.5156 93.7116C42.1278 93.884 41.7862 94.1241 41.4908 94.4318C41.2015 94.7396 40.9737 95.0966 40.8075 95.5028C40.6413 95.9029 40.5582 96.3307 40.5582 96.7862C40.5582 97.3956 40.6967 97.9527 40.9737 98.4574C41.2569 98.9621 41.6385 99.3653 42.1186 99.6669C42.6049 99.9685 43.1558 100.119 43.7713 100.119ZM61.1108 103.415C59.5227 103.409 58.1563 103.018 57.0114 102.243C55.8726 101.467 54.9955 100.344 54.38 98.8729C53.7706 97.4018 53.469 95.6321 53.4751 93.5639C53.4751 91.5019 53.7798 89.7446 54.3892 88.2919C55.0047 86.8393 55.8819 85.7344 57.0206 84.9773C58.1655 84.214 59.5289 83.8324 61.1108 83.8324C62.6927 83.8324 64.053 84.214 65.1918 84.9773C66.3366 85.7405 67.2169 86.8485 67.8324 88.3011C68.4479 89.7476 68.7526 91.5019 68.7464 93.5639C68.7464 95.6383 68.4387 97.411 67.8232 98.8821C67.2138 100.353 66.3397 101.477 65.201 102.252C64.0623 103.028 62.6989 103.415 61.1108 103.415ZM61.1108 100.101C62.1941 100.101 63.0589 99.5561 63.7053 98.4666C64.3516 97.3771 64.6716 95.7429 64.6655 93.5639C64.6655 92.1297 64.5178 90.9356 64.2223 89.9815C63.933 89.0275 63.5206 88.3104 62.9851 87.8303C62.4557 87.3501 61.831 87.1101 61.1108 87.1101C60.0336 87.1101 59.1719 87.6487 58.5256 88.7259C57.8793 89.803 57.553 91.4157 57.5469 93.5639C57.5469 95.0166 57.6915 96.2292 57.9808 97.2017C58.2763 98.1681 58.6918 98.8944 59.2273 99.3807C59.7628 99.8608 60.3906 100.101 61.1108 100.101ZM79.0112 103.415C77.4231 103.409 76.0566 103.018 74.9118 102.243C73.773 101.467 72.8959 100.344 72.2804 98.8729C71.671 97.4018 71.3694 95.6321 71.3755 93.5639C71.3755 91.5019 71.6802 89.7446 72.2896 88.2919C72.9051 86.8393 73.7823 85.7344 74.921 84.9773C76.0659 84.214 77.4293 83.8324 79.0112 83.8324C80.5931 83.8324 81.9534 84.214 83.0922 84.9773C84.237 85.7405 85.1172 86.8485 85.7328 88.3011C86.3483 89.7476 86.653 91.5019 86.6468 93.5639C86.6468 95.6383 86.3391 97.411 85.7235 98.8821C85.1142 100.353 84.2401 101.477 83.1014 102.252C81.9627 103.028 80.5993 103.415 79.0112 103.415ZM79.0112 100.101C80.0945 100.101 80.9593 99.5561 81.6056 98.4666C82.252 97.3771 82.572 95.7429 82.5659 93.5639C82.5659 92.1297 82.4181 90.9356 82.1227 89.9815C81.8334 89.0275 81.421 88.3104 80.8855 87.8303C80.3561 87.3501 79.7314 87.1101 79.0112 87.1101C77.934 87.1101 77.0723 87.6487 76.426 88.7259C75.7797 89.803 75.4534 91.4157 75.4473 93.5639C75.4473 95.0166 75.5919 96.2292 75.8812 97.2017C76.1767 98.1681 76.5922 98.8944 77.1277 99.3807C77.6632 99.8608 78.291 100.101 79.0112 100.101ZM89.6083 103V84.0909H93.6062V92.4283H93.8555L100.66 84.0909H105.452L98.435 92.5575L105.535 103H100.752L95.5728 95.2259L93.6062 97.6264V103H89.6083Z" fill="#F2F2F2"/>
<path d="M309.759 84.0909V103H305.761V87.8857H305.651L301.32 90.6001V87.0547L306.001 84.0909H309.759ZM321.667 103.415C320.079 103.409 318.713 103.018 317.568 102.243C316.429 101.467 315.552 100.344 314.937 98.8729C314.327 97.4018 314.026 95.6321 314.032 93.5639C314.032 91.5019 314.336 89.7446 314.946 88.2919C315.561 86.8393 316.439 85.7344 317.577 84.9773C318.722 84.214 320.086 83.8324 321.667 83.8324C323.249 83.8324 324.61 84.214 325.748 84.9773C326.893 85.7405 327.773 86.8485 328.389 88.3011C329.005 89.7476 329.309 91.5019 329.303 93.5639C329.303 95.6383 328.995 97.411 328.38 98.8821C327.77 100.353 326.896 101.477 325.758 102.252C324.619 103.028 323.256 103.415 321.667 103.415ZM321.667 100.101C322.751 100.101 323.616 99.5561 324.262 98.4666C324.908 97.3771 325.228 95.7429 325.222 93.5639C325.222 92.1297 325.074 90.9356 324.779 89.9815C324.49 89.0275 324.077 88.3104 323.542 87.8303C323.012 87.3501 322.388 87.1101 321.667 87.1101C320.59 87.1101 319.729 87.6487 319.082 88.7259C318.436 89.803 318.11 91.4157 318.104 93.5639C318.104 95.0166 318.248 96.2292 318.537 97.2017C318.833 98.1681 319.248 98.8944 319.784 99.3807C320.319 99.8608 320.947 100.101 321.667 100.101ZM339.568 103.415C337.98 103.409 336.613 103.018 335.468 102.243C334.33 101.467 333.453 100.344 332.837 98.8729C332.228 97.4018 331.926 95.6321 331.932 93.5639C331.932 91.5019 332.237 89.7446 332.846 88.2919C333.462 86.8393 334.339 85.7344 335.478 84.9773C336.623 84.214 337.986 83.8324 339.568 83.8324C341.15 83.8324 342.51 84.214 343.649 84.9773C344.794 85.7405 345.674 86.8485 346.289 88.3011C346.905 89.7476 347.21 91.5019 347.203 93.5639C347.203 95.6383 346.896 97.411 346.28 98.8821C345.671 100.353 344.797 101.477 343.658 102.252C342.519 103.028 341.156 103.415 339.568 103.415ZM339.568 100.101C340.651 100.101 341.516 99.5561 342.162 98.4666C342.809 97.3771 343.129 95.7429 343.123 93.5639C343.123 92.1297 342.975 90.9356 342.679 89.9815C342.39 89.0275 341.978 88.3104 341.442 87.8303C340.913 87.3501 340.288 87.1101 339.568 87.1101C338.491 87.1101 337.629 87.6487 336.983 88.7259C336.336 89.803 336.01 91.4157 336.004 93.5639C336.004 95.0166 336.149 96.2292 336.438 97.2017C336.733 98.1681 337.149 98.8944 337.684 99.3807C338.22 99.8608 338.848 100.101 339.568 100.101ZM350.165 103V84.0909H354.163V92.4283H354.412L361.217 84.0909H366.009L358.992 92.5575L366.092 103H361.309L356.129 95.2259L354.163 97.6264V103H350.165Z" fill="#F2F2F2"/>
<path d="M4.34153 202V188.909H6.31667V200.3H12.2485V202H4.34153ZM18.5798 202.198C17.6125 202.198 16.7794 201.991 16.0805 201.578C15.3859 201.161 14.849 200.575 14.4697 199.82C14.0947 199.062 13.9072 198.173 13.9072 197.155C13.9072 196.149 14.0947 195.263 14.4697 194.496C14.849 193.729 15.3774 193.13 16.055 192.7C16.7368 192.269 17.5336 192.054 18.4456 192.054C18.9996 192.054 19.5365 192.146 20.0564 192.329C20.5763 192.512 21.0429 192.8 21.4562 193.192C21.8696 193.584 22.1956 194.093 22.4342 194.719C22.6729 195.342 22.7922 196.098 22.7922 196.989V197.666H14.9875V196.234H20.9193C20.9193 195.732 20.817 195.286 20.6125 194.898C20.4079 194.506 20.1203 194.197 19.7496 193.972C19.3831 193.746 18.9527 193.633 18.4584 193.633C17.9214 193.633 17.4527 193.765 17.0521 194.029C16.6558 194.289 16.349 194.63 16.1317 195.052C15.9186 195.469 15.8121 195.923 15.8121 196.413V197.532C15.8121 198.188 15.9271 198.746 16.1572 199.207C16.3916 199.667 16.7176 200.018 17.1352 200.261C17.5528 200.5 18.0407 200.619 18.599 200.619C18.9612 200.619 19.2915 200.568 19.5898 200.466C19.8881 200.359 20.1459 200.202 20.3632 199.993C20.5805 199.784 20.7467 199.526 20.8618 199.219L22.6707 199.545C22.5258 200.078 22.2659 200.545 21.8909 200.945C21.5202 201.342 21.0535 201.651 20.491 201.872C19.9328 202.089 19.2957 202.198 18.5798 202.198ZM27.77 202.217C27.1478 202.217 26.5853 202.102 26.0825 201.872C25.5796 201.638 25.1812 201.299 24.8872 200.856C24.5974 200.413 24.4525 199.869 24.4525 199.226C24.4525 198.672 24.559 198.216 24.7721 197.858C24.9852 197.5 25.2728 197.217 25.635 197.008C25.9972 196.799 26.4021 196.641 26.8495 196.535C27.297 196.428 27.7529 196.347 28.2174 196.292C28.8055 196.224 29.2828 196.168 29.6492 196.126C30.0157 196.079 30.282 196.004 30.4482 195.902C30.6144 195.8 30.6975 195.634 30.6975 195.403V195.359C30.6975 194.8 30.5399 194.368 30.2245 194.061C29.9134 193.754 29.449 193.601 28.8311 193.601C28.1876 193.601 27.6805 193.744 27.3097 194.029C26.9433 194.31 26.6897 194.624 26.5491 194.969L24.7529 194.56C24.966 193.963 25.2771 193.482 25.6862 193.115C26.0995 192.744 26.5747 192.476 27.1116 192.31C27.6485 192.139 28.2132 192.054 28.8055 192.054C29.1975 192.054 29.613 192.101 30.0519 192.195C30.4951 192.284 30.9085 192.45 31.292 192.693C31.6798 192.936 31.9972 193.283 32.2444 193.735C32.4916 194.183 32.6151 194.764 32.6151 195.48V202H30.7487V200.658H30.672C30.5484 200.905 30.363 201.148 30.1159 201.386C29.8687 201.625 29.5512 201.823 29.1634 201.981C28.7757 202.138 28.3112 202.217 27.77 202.217ZM28.1855 200.683C28.7139 200.683 29.1656 200.579 29.5406 200.37C29.9198 200.161 30.2075 199.888 30.4035 199.552C30.6038 199.211 30.7039 198.847 30.7039 198.459V197.193C30.6357 197.261 30.5036 197.325 30.3076 197.385C30.1159 197.44 29.8964 197.489 29.6492 197.532C29.4021 197.57 29.1613 197.607 28.9269 197.641C28.6926 197.67 28.4965 197.696 28.3389 197.717C27.9681 197.764 27.6294 197.843 27.3225 197.954C27.02 198.065 26.7771 198.224 26.5938 198.433C26.4149 198.638 26.3254 198.911 26.3254 199.251C26.3254 199.724 26.5001 200.082 26.8495 200.325C27.199 200.564 27.6443 200.683 28.1855 200.683ZM35.1608 202V192.182H37.0081V193.741H37.1104C37.2893 193.213 37.6047 192.798 38.0564 192.495C38.5123 192.188 39.028 192.035 39.6032 192.035C39.7226 192.035 39.8632 192.039 40.0251 192.048C40.1913 192.056 40.3213 192.067 40.415 192.08V193.908C40.3383 193.886 40.202 193.863 40.0059 193.837C39.8099 193.808 39.6139 193.793 39.4179 193.793C38.9662 193.793 38.5635 193.888 38.2098 194.08C37.8604 194.268 37.5834 194.53 37.3788 194.866C37.1743 195.199 37.072 195.578 37.072 196.004V202H35.1608ZM43.9802 196.17V202H42.069V192.182H43.9035V193.78H44.0249C44.2508 193.26 44.6045 192.842 45.086 192.527C45.5718 192.212 46.1833 192.054 46.9205 192.054C47.5896 192.054 48.1755 192.195 48.6784 192.476C49.1812 192.753 49.5711 193.166 49.8481 193.716C50.1251 194.266 50.2636 194.945 50.2636 195.755V202H48.3524V195.985C48.3524 195.273 48.167 194.717 47.7963 194.317C47.4255 193.912 46.9163 193.71 46.2686 193.71C45.8254 193.71 45.4312 193.805 45.086 193.997C44.7451 194.189 44.4745 194.47 44.2742 194.841C44.0782 195.207 43.9802 195.651 43.9802 196.17ZM57.0583 202.198C56.091 202.198 55.2579 201.991 54.559 201.578C53.8644 201.161 53.3275 200.575 52.9482 199.82C52.5732 199.062 52.3857 198.173 52.3857 197.155C52.3857 196.149 52.5732 195.263 52.9482 194.496C53.3275 193.729 53.8559 193.13 54.5335 192.7C55.2153 192.269 56.0122 192.054 56.9241 192.054C57.4781 192.054 58.015 192.146 58.5349 192.329C59.0548 192.512 59.5214 192.8 59.9347 193.192C60.3481 193.584 60.6741 194.093 60.9127 194.719C61.1514 195.342 61.2707 196.098 61.2707 196.989V197.666H53.466V196.234H59.3978C59.3978 195.732 59.2955 195.286 59.091 194.898C58.8865 194.506 58.5988 194.197 58.2281 193.972C57.8616 193.746 57.4312 193.633 56.9369 193.633C56.3999 193.633 55.9312 193.765 55.5306 194.029C55.1343 194.289 54.8275 194.63 54.6102 195.052C54.3971 195.469 54.2906 195.923 54.2906 196.413V197.532C54.2906 198.188 54.4056 198.746 54.6357 199.207C54.8701 199.667 55.1961 200.018 55.6137 200.261C56.0313 200.5 56.5193 200.619 57.0775 200.619C57.4397 200.619 57.77 200.568 58.0683 200.466C58.3666 200.359 58.6244 200.202 58.8417 199.993C59.059 199.784 59.2252 199.526 59.3403 199.219L61.1492 199.545C61.0044 200.078 60.7444 200.545 60.3694 200.945C59.9987 201.342 59.532 201.651 58.9695 201.872C58.4113 202.089 57.7742 202.198 57.0583 202.198ZM63.3912 202V192.182H65.2385V193.741H65.3408C65.5198 193.213 65.8351 192.798 66.2868 192.495C66.7428 192.188 67.2584 192.035 67.8337 192.035C67.953 192.035 68.0937 192.039 68.2556 192.048C68.4218 192.056 68.5518 192.067 68.6455 192.08V193.908C68.5688 193.886 68.4324 193.863 68.2364 193.837C68.0404 193.808 67.8444 193.793 67.6483 193.793C67.1966 193.793 66.7939 193.888 66.4403 194.08C66.0908 194.268 65.8138 194.53 65.6093 194.866C65.4047 195.199 65.3025 195.578 65.3025 196.004V202H63.3912ZM77.6567 194.579L75.9244 194.886C75.852 194.664 75.7369 194.453 75.5793 194.253C75.4259 194.053 75.2171 193.888 74.9529 193.761C74.6887 193.633 74.3584 193.569 73.9621 193.569C73.4209 193.569 72.9692 193.69 72.607 193.933C72.2448 194.172 72.0637 194.481 72.0637 194.86C72.0637 195.188 72.1851 195.452 72.428 195.653C72.6709 195.853 73.0629 196.017 73.6041 196.145L75.1638 196.503C76.0672 196.712 76.7405 197.033 77.1837 197.468C77.6269 197.903 77.8485 198.467 77.8485 199.162C77.8485 199.75 77.678 200.274 77.3371 200.734C77.0004 201.19 76.5296 201.548 75.9244 201.808C75.3236 202.068 74.6269 202.198 73.8343 202.198C72.7348 202.198 71.8378 201.964 71.1432 201.495C70.4486 201.022 70.0225 200.351 69.8648 199.482L71.7121 199.2C71.8271 199.682 72.0637 200.046 72.4216 200.293C72.7796 200.536 73.2462 200.658 73.8215 200.658C74.4479 200.658 74.9486 200.528 75.3236 200.268C75.6986 200.004 75.8861 199.682 75.8861 199.303C75.8861 198.996 75.771 198.738 75.5409 198.529C75.3151 198.32 74.9678 198.163 74.499 198.056L72.8371 197.692C71.9209 197.483 71.2433 197.151 70.8044 196.695C70.3698 196.239 70.1524 195.661 70.1524 194.962C70.1524 194.383 70.3144 193.876 70.6382 193.441C70.9621 193.006 71.4095 192.668 71.9806 192.425C72.5516 192.178 73.2057 192.054 73.9429 192.054C75.004 192.054 75.8392 192.284 76.4486 192.744C77.058 193.2 77.4607 193.812 77.6567 194.579ZM88.8492 202.198C87.9287 202.198 87.1254 201.987 86.4394 201.565C85.7533 201.143 85.2206 200.553 84.8414 199.795C84.4621 199.036 84.2725 198.15 84.2725 197.136C84.2725 196.117 84.4621 195.227 84.8414 194.464C85.2206 193.701 85.7533 193.109 86.4394 192.687C87.1254 192.265 87.9287 192.054 88.8492 192.054C89.7696 192.054 90.5729 192.265 91.259 192.687C91.945 193.109 92.4777 193.701 92.857 194.464C93.2362 195.227 93.4259 196.117 93.4259 197.136C93.4259 198.15 93.2362 199.036 92.857 199.795C92.4777 200.553 91.945 201.143 91.259 201.565C90.5729 201.987 89.7696 202.198 88.8492 202.198ZM88.8556 200.594C89.4521 200.594 89.9465 200.436 90.3385 200.121C90.7306 199.805 91.0203 199.386 91.2078 198.862C91.3996 198.337 91.4955 197.76 91.4955 197.129C91.4955 196.503 91.3996 195.928 91.2078 195.403C91.0203 194.875 90.7306 194.451 90.3385 194.131C89.9465 193.812 89.4521 193.652 88.8556 193.652C88.2547 193.652 87.7561 193.812 87.3598 194.131C86.9678 194.451 86.6759 194.875 86.4841 195.403C86.2966 195.928 86.2029 196.503 86.2029 197.129C86.2029 197.76 86.2966 198.337 86.4841 198.862C86.6759 199.386 86.9678 199.805 87.3598 200.121C87.7561 200.436 88.2547 200.594 88.8556 200.594ZM97.4704 196.17V202H95.5592V192.182H97.3937V193.78H97.5152C97.741 193.26 98.0947 192.842 98.5763 192.527C99.0621 192.212 99.6736 192.054 100.411 192.054C101.08 192.054 101.666 192.195 102.169 192.476C102.671 192.753 103.061 193.166 103.338 193.716C103.615 194.266 103.754 194.945 103.754 195.755V202H101.843V195.985C101.843 195.273 101.657 194.717 101.286 194.317C100.916 193.912 100.407 193.71 99.7588 193.71C99.3156 193.71 98.9214 193.805 98.5763 193.997C98.2354 194.189 97.9648 194.47 97.7645 194.841C97.5684 195.207 97.4704 195.651 97.4704 196.17ZM115.664 192.182V193.716H110.301V192.182H115.664ZM111.739 189.83H113.65V199.117C113.65 199.488 113.706 199.767 113.816 199.955C113.927 200.138 114.07 200.263 114.245 200.332C114.424 200.396 114.618 200.428 114.826 200.428C114.98 200.428 115.114 200.417 115.229 200.396C115.344 200.374 115.434 200.357 115.498 200.344L115.843 201.923C115.732 201.966 115.574 202.009 115.37 202.051C115.165 202.098 114.91 202.124 114.603 202.128C114.1 202.136 113.631 202.047 113.196 201.859C112.762 201.672 112.41 201.382 112.142 200.99C111.873 200.598 111.739 200.106 111.739 199.513V189.83ZM119.9 196.17V202H117.989V188.909H119.875V193.78H119.996C120.226 193.251 120.578 192.832 121.051 192.521C121.524 192.21 122.142 192.054 122.904 192.054C123.578 192.054 124.166 192.192 124.669 192.469C125.176 192.746 125.568 193.16 125.845 193.71C126.126 194.255 126.267 194.937 126.267 195.755V202H124.355V195.985C124.355 195.265 124.17 194.707 123.799 194.31C123.429 193.91 122.913 193.71 122.252 193.71C121.801 193.71 121.396 193.805 121.038 193.997C120.684 194.189 120.405 194.47 120.201 194.841C120 195.207 119.9 195.651 119.9 196.17ZM133.049 202.198C132.081 202.198 131.248 201.991 130.549 201.578C129.855 201.161 129.318 200.575 128.938 199.82C128.563 199.062 128.376 198.173 128.376 197.155C128.376 196.149 128.563 195.263 128.938 194.496C129.318 193.729 129.846 193.13 130.524 192.7C131.206 192.269 132.002 192.054 132.914 192.054C133.468 192.054 134.005 192.146 134.525 192.329C135.045 192.512 135.512 192.8 135.925 193.192C136.338 193.584 136.664 194.093 136.903 194.719C137.142 195.342 137.261 196.098 137.261 196.989V197.666H129.456V196.234H135.388C135.388 195.732 135.286 195.286 135.081 194.898C134.877 194.506 134.589 194.197 134.218 193.972C133.852 193.746 133.421 193.633 132.927 193.633C132.39 193.633 131.921 193.765 131.521 194.029C131.125 194.289 130.818 194.63 130.6 195.052C130.387 195.469 130.281 195.923 130.281 196.413V197.532C130.281 198.188 130.396 198.746 130.626 199.207C130.86 199.667 131.186 200.018 131.604 200.261C132.022 200.5 132.509 200.619 133.068 200.619C133.43 200.619 133.76 200.568 134.059 200.466C134.357 200.359 134.615 200.202 134.832 199.993C135.049 199.784 135.215 199.526 135.331 199.219L137.139 199.545C136.995 200.078 136.735 200.545 136.36 200.945C135.989 201.342 135.522 201.651 134.96 201.872C134.402 202.089 133.764 202.198 133.049 202.198ZM35.5563 227.682V214.182H37.4228V215.773H37.5826C37.6934 215.569 37.8532 215.332 38.062 215.064C38.2708 214.795 38.5605 214.561 38.9313 214.361C39.302 214.156 39.7921 214.054 40.4015 214.054C41.1941 214.054 41.9015 214.254 42.5236 214.655C43.1458 215.055 43.6337 215.633 43.9874 216.387C44.3453 217.141 44.5243 218.049 44.5243 219.11C44.5243 220.171 44.3475 221.081 43.9938 221.839C43.6401 222.594 43.1543 223.175 42.5364 223.585C41.9185 223.989 41.2132 224.192 40.4206 224.192C39.824 224.192 39.3361 224.092 38.9569 223.891C38.5819 223.691 38.2878 223.457 38.0748 223.188C37.8617 222.92 37.6976 222.681 37.5826 222.472H37.4675V227.682H35.5563ZM37.4292 219.091C37.4292 219.781 37.5293 220.386 37.7296 220.906C37.9299 221.426 38.2196 221.833 38.5989 222.127C38.9782 222.417 39.4426 222.562 39.9924 222.562C40.5634 222.562 41.0407 222.411 41.4242 222.108C41.8077 221.801 42.0975 221.386 42.2935 220.862C42.4938 220.337 42.5939 219.747 42.5939 219.091C42.5939 218.443 42.4959 217.862 42.2999 217.346C42.1081 216.83 41.8184 216.423 41.4306 216.125C41.0471 215.827 40.5676 215.678 39.9924 215.678C39.4384 215.678 38.9696 215.82 38.5861 216.106C38.2069 216.391 37.9192 216.79 37.7232 217.301C37.5272 217.812 37.4292 218.409 37.4292 219.091ZM48.5769 210.909V224H46.6657V210.909H48.5769ZM54.0053 224.217C53.3832 224.217 52.8207 224.102 52.3178 223.872C51.815 223.638 51.4165 223.299 51.1225 222.856C50.8327 222.413 50.6879 221.869 50.6879 221.226C50.6879 220.672 50.7944 220.216 51.0075 219.858C51.2205 219.5 51.5082 219.217 51.8704 219.008C52.2326 218.799 52.6374 218.641 53.0849 218.535C53.5323 218.428 53.9883 218.347 54.4528 218.292C55.0408 218.224 55.5181 218.168 55.8846 218.126C56.2511 218.079 56.5174 218.004 56.6836 217.902C56.8498 217.8 56.9329 217.634 56.9329 217.403V217.359C56.9329 216.8 56.7752 216.368 56.4599 216.061C56.1488 215.754 55.6843 215.601 55.0664 215.601C54.4229 215.601 53.9158 215.744 53.5451 216.029C53.1786 216.31 52.9251 216.624 52.7844 216.969L50.9883 216.56C51.2013 215.963 51.5124 215.482 51.9215 215.115C52.3349 214.744 52.81 214.476 53.3469 214.31C53.8839 214.139 54.4485 214.054 55.0408 214.054C55.4329 214.054 55.8484 214.101 56.2873 214.195C56.7305 214.284 57.1438 214.45 57.5273 214.693C57.9151 214.936 58.2326 215.283 58.4798 215.735C58.7269 216.183 58.8505 216.764 58.8505 217.48V224H56.984V222.658H56.9073C56.7837 222.905 56.5984 223.148 56.3512 223.386C56.104 223.625 55.7866 223.823 55.3988 223.981C55.011 224.138 54.5465 224.217 54.0053 224.217ZM54.4208 222.683C54.9492 222.683 55.4009 222.579 55.7759 222.37C56.1552 222.161 56.4428 221.888 56.6388 221.552C56.8391 221.211 56.9393 220.847 56.9393 220.459V219.193C56.8711 219.261 56.739 219.325 56.543 219.385C56.3512 219.44 56.1317 219.489 55.8846 219.532C55.6374 219.57 55.3967 219.607 55.1623 219.641C54.9279 219.67 54.7319 219.696 54.5742 219.717C54.2035 219.764 53.8647 219.843 53.5579 219.954C53.2553 220.065 53.0124 220.224 52.8292 220.433C52.6502 220.638 52.5607 220.911 52.5607 221.251C52.5607 221.724 52.7354 222.082 53.0849 222.325C53.4343 222.564 53.8796 222.683 54.4208 222.683ZM65.9792 214.182V215.716H60.6163V214.182H65.9792ZM62.0545 211.83H63.9657V221.117C63.9657 221.488 64.0211 221.767 64.1319 221.955C64.2427 222.138 64.3855 222.263 64.5602 222.332C64.7392 222.396 64.9331 222.428 65.1419 222.428C65.2953 222.428 65.4295 222.417 65.5446 222.396C65.6596 222.374 65.7491 222.357 65.813 222.344L66.1582 223.923C66.0474 223.966 65.8897 224.009 65.6852 224.051C65.4806 224.098 65.225 224.124 64.9181 224.128C64.4153 224.136 63.9466 224.047 63.5119 223.859C63.0772 223.672 62.7257 223.382 62.4572 222.99C62.1887 222.598 62.0545 222.106 62.0545 221.513V211.83ZM72.766 214.182V215.716H67.2177V214.182H72.766ZM68.739 224V213.044C68.739 212.43 68.8732 211.921 69.1417 211.516C69.4102 211.107 69.766 210.803 70.2092 210.602C70.6523 210.398 71.1339 210.295 71.6538 210.295C72.0373 210.295 72.3654 210.327 72.6381 210.391C72.9109 210.451 73.1133 210.506 73.2454 210.558L72.7979 212.104C72.7085 212.079 72.5934 212.049 72.4528 212.015C72.3121 211.977 72.1417 211.957 71.9414 211.957C71.4769 211.957 71.1445 212.072 70.9442 212.303C70.7482 212.533 70.6502 212.865 70.6502 213.3V224H68.739ZM78.4869 224.198C77.5664 224.198 76.7631 223.987 76.0771 223.565C75.391 223.143 74.8583 222.553 74.479 221.795C74.0998 221.036 73.9102 220.15 73.9102 219.136C73.9102 218.117 74.0998 217.227 74.479 216.464C74.8583 215.701 75.391 215.109 76.0771 214.687C76.7631 214.265 77.5664 214.054 78.4869 214.054C79.4073 214.054 80.2106 214.265 80.8967 214.687C81.5827 215.109 82.1154 215.701 82.4947 216.464C82.8739 217.227 83.0636 218.117 83.0636 219.136C83.0636 220.15 82.8739 221.036 82.4947 221.795C82.1154 222.553 81.5827 223.143 80.8967 223.565C80.2106 223.987 79.4073 224.198 78.4869 224.198ZM78.4933 222.594C79.0898 222.594 79.5842 222.436 79.9762 222.121C80.3683 221.805 80.658 221.386 80.8455 220.862C81.0373 220.337 81.1332 219.76 81.1332 219.129C81.1332 218.503 81.0373 217.928 80.8455 217.403C80.658 216.875 80.3683 216.451 79.9762 216.131C79.5842 215.812 79.0898 215.652 78.4933 215.652C77.8924 215.652 77.3938 215.812 76.9975 216.131C76.6055 216.451 76.3136 216.875 76.1218 217.403C75.9343 217.928 75.8406 218.503 75.8406 219.129C75.8406 219.76 75.9343 220.337 76.1218 220.862C76.3136 221.386 76.6055 221.805 76.9975 222.121C77.3938 222.436 77.8924 222.594 78.4933 222.594ZM85.1969 224V214.182H87.0442V215.741H87.1465C87.3255 215.213 87.6408 214.798 88.0925 214.495C88.5485 214.188 89.0641 214.035 89.6394 214.035C89.7587 214.035 89.8993 214.039 90.0613 214.048C90.2275 214.056 90.3574 214.067 90.4512 214.08V215.908C90.3745 215.886 90.2381 215.863 90.0421 215.837C89.8461 215.808 89.65 215.793 89.454 215.793C89.0023 215.793 88.5996 215.888 88.2459 216.08C87.8965 216.268 87.6195 216.53 87.415 216.866C87.2104 217.199 87.1081 217.578 87.1081 218.004V224H85.1969ZM92.1051 224V214.182H93.9396V215.78H94.0611C94.2656 215.239 94.6001 214.817 95.0646 214.514C95.5291 214.207 96.0852 214.054 96.733 214.054C97.3892 214.054 97.9389 214.207 98.3821 214.514C98.8295 214.821 99.1598 215.243 99.3729 215.78H99.4751C99.7095 215.256 100.082 214.838 100.594 214.527C101.105 214.212 101.714 214.054 102.422 214.054C103.312 214.054 104.039 214.333 104.602 214.891C105.168 215.45 105.452 216.291 105.452 217.416V224H103.54V217.595C103.54 216.93 103.359 216.449 102.997 216.151C102.635 215.852 102.202 215.703 101.7 215.703C101.077 215.703 100.594 215.895 100.249 216.278C99.9034 216.658 99.7308 217.146 99.7308 217.742V224H97.826V217.474C97.826 216.941 97.6598 216.513 97.3274 216.189C96.995 215.865 96.5625 215.703 96.0298 215.703C95.6676 215.703 95.3331 215.799 95.0263 215.991C94.7237 216.178 94.4787 216.44 94.2912 216.777C94.108 217.114 94.0163 217.504 94.0163 217.947V224H92.1051Z" fill="#132356"/>
<circle cx="600.5" cy="98.5" r="70.5" fill="url(#paint8_linear_12_55)"/>
<circle cx="865.5" cy="98.5" r="70.5" fill="url(#paint9_linear_12_55)"/>
<path d="M671 98.5C671 137.436 639.436 169 600.5 169C561.564 169 530 137.436 530 98.5C530 59.5639 561.564 28 600.5 28C639.436 28 671 59.5639 671 98.5Z" fill="url(#paint10_linear_12_55)"/>
<circle cx="865.5" cy="98.5" r="70.5" fill="url(#paint11_linear_12_55)"/>
<path d="M650 24.5C650 29.7467 645.747 34 640.5 34C635.253 34 631 29.7467 631 24.5C631 19.2533 635.253 15 640.5 15C645.747 15 650 19.2533 650 24.5Z" fill="url(#paint12_linear_12_55)"/>
<circle cx="905.5" cy="24.5" r="9.5" fill="url(#paint13_linear_12_55)"/>
<circle cx="653" cy="39" r="3" fill="url(#paint14_linear_12_55)"/>
<circle cx="918" cy="6" r="3" fill="url(#paint15_linear_12_55)"/>
<path d="M581.439 107.259C580.134 107.259 578.971 107.018 577.949 106.538C576.933 106.058 576.127 105.397 575.53 104.553C574.933 103.71 574.622 102.744 574.597 101.654H578.475C578.518 102.387 578.826 102.981 579.398 103.436C579.971 103.892 580.651 104.119 581.439 104.119C582.067 104.119 582.621 103.981 583.101 103.704C583.587 103.421 583.966 103.03 584.237 102.531C584.513 102.027 584.652 101.448 584.652 100.795C584.652 100.131 584.51 99.5459 584.227 99.0412C583.95 98.5365 583.566 98.1425 583.073 97.8594C582.581 97.5762 582.018 97.4316 581.384 97.4254C580.83 97.4254 580.291 97.5393 579.768 97.767C579.251 97.9948 578.848 98.3056 578.558 98.6996L575.004 98.0625L575.899 88.0909H587.459V91.3594H579.195L578.706 96.0959H578.817C579.149 95.6281 579.651 95.2403 580.322 94.9325C580.993 94.6248 581.744 94.4709 582.575 94.4709C583.713 94.4709 584.729 94.7386 585.621 95.2741C586.514 95.8097 587.219 96.5452 587.736 97.4808C588.253 98.4103 588.508 99.4813 588.502 100.694C588.508 101.968 588.213 103.101 587.616 104.092C587.025 105.076 586.197 105.852 585.132 106.418C584.073 106.978 582.842 107.259 581.439 107.259ZM598.705 107.415C597.116 107.409 595.75 107.018 594.605 106.243C593.466 105.467 592.589 104.344 591.974 102.873C591.364 101.402 591.063 99.6321 591.069 97.5639C591.069 95.5019 591.374 93.7446 591.983 92.2919C592.598 90.8393 593.476 89.7344 594.614 88.9773C595.759 88.214 597.123 87.8324 598.705 87.8324C600.286 87.8324 601.647 88.214 602.786 88.9773C603.93 89.7405 604.811 90.8485 605.426 92.3011C606.042 93.7476 606.346 95.5019 606.34 97.5639C606.34 99.6383 606.032 101.411 605.417 102.882C604.808 104.353 603.933 105.477 602.795 106.252C601.656 107.028 600.293 107.415 598.705 107.415ZM598.705 104.101C599.788 104.101 600.653 103.556 601.299 102.467C601.945 101.377 602.265 99.7429 602.259 97.5639C602.259 96.1297 602.112 94.9356 601.816 93.9815C601.527 93.0275 601.114 92.3104 600.579 91.8303C600.049 91.3501 599.425 91.1101 598.705 91.1101C597.627 91.1101 596.766 91.6487 596.119 92.7259C595.473 93.803 595.147 95.4157 595.141 97.5639C595.141 99.0166 595.285 100.229 595.575 101.202C595.87 102.168 596.286 102.894 596.821 103.381C597.357 103.861 597.984 104.101 598.705 104.101ZM614.841 104.119V91.0455H618.147V104.119H614.841ZM609.957 99.2351V95.9297H623.031V99.2351H609.957Z" fill="#F2F2F2"/>
<path d="M847.759 88.0909V107H843.761V91.8857H843.651L839.32 94.6001V91.0547L844.001 88.0909H847.759ZM852.253 107V104.119L858.984 97.8871C859.557 97.3331 860.037 96.8345 860.425 96.3913C860.818 95.9482 861.117 95.5142 861.32 95.0895C861.523 94.6586 861.625 94.1939 861.625 93.6953C861.625 93.1413 861.499 92.6643 861.246 92.2642C860.994 91.858 860.649 91.5471 860.212 91.3317C859.775 91.1101 859.28 90.9993 858.726 90.9993C858.147 90.9993 857.642 91.1162 857.211 91.3501C856.781 91.584 856.448 91.9195 856.214 92.3565C855.98 92.7936 855.863 93.3137 855.863 93.9169H852.069C852.069 92.6797 852.349 91.6056 852.909 90.6946C853.469 89.7836 854.254 89.0788 855.263 88.5803C856.273 88.0817 857.436 87.8324 858.753 87.8324C860.108 87.8324 861.286 88.0724 862.29 88.5526C863.299 89.0265 864.084 89.6851 864.644 90.5284C865.204 91.3717 865.484 92.3381 865.484 93.4276C865.484 94.1416 865.343 94.8464 865.059 95.5419C864.782 96.2375 864.287 97.0099 863.573 97.8594C862.859 98.7027 861.853 99.7152 860.554 100.897L857.793 103.602V103.732H865.733V107H852.253ZM874.281 104.119V91.0455H877.586V104.119H874.281ZM869.397 99.2351V95.9297H882.471V99.2351H869.397Z" fill="#F2F2F2"/>
<path d="M537.136 206V192.909H539.112V198.598H545.638V192.909H547.619V206H545.638V200.292H539.112V206H537.136ZM550.342 206V196.182H552.254V206H550.342ZM551.308 194.667C550.975 194.667 550.69 194.556 550.451 194.335C550.217 194.109 550.1 193.84 550.1 193.529C550.1 193.214 550.217 192.945 550.451 192.724C550.69 192.498 550.975 192.385 551.308 192.385C551.64 192.385 551.923 192.498 552.158 192.724C552.396 192.945 552.516 193.214 552.516 193.529C552.516 193.84 552.396 194.109 552.158 194.335C551.923 194.556 551.64 194.667 551.308 194.667ZM554.825 206V196.182H556.672V197.741H556.774C556.953 197.213 557.269 196.798 557.72 196.495C558.176 196.188 558.692 196.035 559.267 196.035C559.387 196.035 559.527 196.039 559.689 196.048C559.855 196.056 559.985 196.067 560.079 196.08V197.908C560.002 197.886 559.866 197.863 559.67 197.837C559.474 197.808 559.278 197.793 559.082 197.793C558.63 197.793 558.228 197.888 557.874 198.08C557.524 198.268 557.247 198.53 557.043 198.866C556.838 199.199 556.736 199.578 556.736 200.004V206H554.825ZM561.733 206V196.182H563.644V206H561.733ZM562.698 194.667C562.366 194.667 562.08 194.556 561.842 194.335C561.607 194.109 561.49 193.84 561.49 193.529C561.49 193.214 561.607 192.945 561.842 192.724C562.08 192.498 562.366 192.385 562.698 192.385C563.031 192.385 563.314 192.498 563.548 192.724C563.787 192.945 563.906 193.214 563.906 193.529C563.906 193.84 563.787 194.109 563.548 194.335C563.314 194.556 563.031 194.667 562.698 194.667ZM568.127 200.17V206H566.215V196.182H568.05V197.78H568.171C568.397 197.26 568.751 196.842 569.233 196.527C569.718 196.212 570.33 196.054 571.067 196.054C571.736 196.054 572.322 196.195 572.825 196.476C573.328 196.753 573.718 197.166 573.995 197.716C574.272 198.266 574.41 198.945 574.41 199.755V206H572.499V199.985C572.499 199.273 572.313 198.717 571.943 198.317C571.572 197.912 571.063 197.71 570.415 197.71C569.972 197.71 569.578 197.805 569.233 197.997C568.892 198.189 568.621 198.47 568.421 198.841C568.225 199.207 568.127 199.651 568.127 200.17ZM581.09 209.886C580.31 209.886 579.639 209.784 579.076 209.58C578.518 209.375 578.062 209.104 577.708 208.768C577.355 208.431 577.09 208.063 576.916 207.662L578.559 206.984C578.674 207.172 578.827 207.37 579.019 207.579C579.215 207.792 579.479 207.973 579.811 208.122C580.148 208.271 580.581 208.346 581.109 208.346C581.833 208.346 582.432 208.169 582.905 207.815C583.378 207.466 583.615 206.908 583.615 206.141V204.21H583.493C583.378 204.419 583.212 204.651 582.995 204.907C582.782 205.163 582.487 205.384 582.112 205.572C581.737 205.759 581.25 205.853 580.649 205.853C579.873 205.853 579.174 205.672 578.552 205.31C577.934 204.943 577.444 204.404 577.082 203.692C576.724 202.977 576.545 202.097 576.545 201.053C576.545 200.009 576.722 199.114 577.076 198.368C577.434 197.622 577.924 197.051 578.546 196.655C579.168 196.254 579.873 196.054 580.661 196.054C581.271 196.054 581.763 196.156 582.138 196.361C582.513 196.561 582.805 196.795 583.014 197.064C583.227 197.332 583.391 197.569 583.506 197.773H583.647V196.182H585.519V206.217C585.519 207.061 585.323 207.754 584.931 208.295C584.539 208.836 584.009 209.237 583.34 209.496C582.675 209.756 581.925 209.886 581.09 209.886ZM581.071 204.268C581.62 204.268 582.085 204.14 582.464 203.884C582.848 203.624 583.137 203.254 583.333 202.772C583.534 202.286 583.634 201.705 583.634 201.027C583.634 200.366 583.536 199.785 583.34 199.282C583.144 198.779 582.856 198.387 582.477 198.106C582.098 197.82 581.629 197.678 581.071 197.678C580.495 197.678 580.016 197.827 579.632 198.125C579.249 198.419 578.959 198.82 578.763 199.327C578.571 199.834 578.475 200.401 578.475 201.027C578.475 201.67 578.573 202.235 578.769 202.721C578.965 203.207 579.255 203.586 579.639 203.859C580.027 204.131 580.504 204.268 581.071 204.268ZM593 206V192.909H597.666C598.684 192.909 599.528 193.094 600.197 193.465C600.866 193.836 601.367 194.343 601.699 194.987C602.032 195.626 602.198 196.346 602.198 197.147C602.198 197.952 602.03 198.677 601.693 199.32C601.361 199.96 600.858 200.467 600.184 200.842C599.515 201.212 598.674 201.398 597.66 201.398H594.451V199.723H597.481C598.124 199.723 598.646 199.612 599.047 199.391C599.447 199.165 599.741 198.858 599.929 198.47C600.116 198.082 600.21 197.641 600.21 197.147C600.21 196.653 600.116 196.214 599.929 195.83C599.741 195.447 599.445 195.146 599.04 194.929C598.64 194.712 598.111 194.603 597.455 194.603H594.975V206H593ZM607.129 206.217C606.507 206.217 605.945 206.102 605.442 205.872C604.939 205.638 604.541 205.299 604.247 204.856C603.957 204.413 603.812 203.869 603.812 203.226C603.812 202.672 603.918 202.216 604.131 201.858C604.345 201.5 604.632 201.217 604.994 201.008C605.357 200.799 605.761 200.641 606.209 200.535C606.656 200.428 607.112 200.347 607.577 200.292C608.165 200.224 608.642 200.168 609.009 200.126C609.375 200.079 609.641 200.004 609.808 199.902C609.974 199.8 610.057 199.634 610.057 199.403V199.359C610.057 198.8 609.899 198.368 609.584 198.061C609.273 197.754 608.808 197.601 608.19 197.601C607.547 197.601 607.04 197.744 606.669 198.029C606.303 198.31 606.049 198.624 605.908 198.969L604.112 198.56C604.325 197.963 604.636 197.482 605.046 197.115C605.459 196.744 605.934 196.476 606.471 196.31C607.008 196.139 607.573 196.054 608.165 196.054C608.557 196.054 608.972 196.101 609.411 196.195C609.854 196.284 610.268 196.45 610.651 196.693C611.039 196.936 611.357 197.283 611.604 197.735C611.851 198.183 611.975 198.764 611.975 199.48V206H610.108V204.658H610.031C609.908 204.905 609.722 205.148 609.475 205.386C609.228 205.625 608.911 205.823 608.523 205.981C608.135 206.138 607.671 206.217 607.129 206.217ZM607.545 204.683C608.073 204.683 608.525 204.579 608.9 204.37C609.279 204.161 609.567 203.888 609.763 203.552C609.963 203.211 610.063 202.847 610.063 202.459V201.193C609.995 201.261 609.863 201.325 609.667 201.385C609.475 201.44 609.256 201.489 609.009 201.532C608.761 201.57 608.521 201.607 608.286 201.641C608.052 201.67 607.856 201.696 607.698 201.717C607.328 201.764 606.989 201.843 606.682 201.954C606.379 202.065 606.136 202.224 605.953 202.433C605.774 202.638 605.685 202.911 605.685 203.251C605.685 203.724 605.859 204.082 606.209 204.325C606.558 204.564 607.004 204.683 607.545 204.683ZM614.52 206V196.182H616.367V197.741H616.47C616.649 197.213 616.964 196.798 617.416 196.495C617.872 196.188 618.387 196.035 618.963 196.035C619.082 196.035 619.223 196.039 619.384 196.048C619.551 196.056 619.681 196.067 619.774 196.08V197.908C619.698 197.886 619.561 197.863 619.365 197.837C619.169 197.808 618.973 197.793 618.777 197.793C618.326 197.793 617.923 197.888 617.569 198.08C617.22 198.268 616.943 198.53 616.738 198.866C616.534 199.199 616.431 199.578 616.431 200.004V206H614.52ZM626.592 196.182V197.716H621.229V196.182H626.592ZM622.667 193.83H624.578V203.117C624.578 203.488 624.633 203.767 624.744 203.955C624.855 204.138 624.998 204.263 625.172 204.332C625.351 204.396 625.545 204.428 625.754 204.428C625.908 204.428 626.042 204.417 626.157 204.396C626.272 204.374 626.361 204.357 626.425 204.344L626.771 205.923C626.66 205.966 626.502 206.009 626.297 206.051C626.093 206.098 625.837 206.124 625.53 206.128C625.028 206.136 624.559 206.047 624.124 205.859C623.69 205.672 623.338 205.382 623.07 204.99C622.801 204.598 622.667 204.106 622.667 203.513V193.83ZM630.617 200.17V206H628.706V196.182H630.54V197.78H630.662C630.888 197.26 631.241 196.842 631.723 196.527C632.209 196.212 632.82 196.054 633.557 196.054C634.226 196.054 634.812 196.195 635.315 196.476C635.818 196.753 636.208 197.166 636.485 197.716C636.762 198.266 636.9 198.945 636.9 199.755V206H634.989V199.985C634.989 199.273 634.804 198.717 634.433 198.317C634.062 197.912 633.553 197.71 632.905 197.71C632.462 197.71 632.068 197.805 631.723 197.997C631.382 198.189 631.111 198.47 630.911 198.841C630.715 199.207 630.617 199.651 630.617 200.17ZM643.695 206.198C642.728 206.198 641.895 205.991 641.196 205.578C640.501 205.161 639.964 204.575 639.585 203.82C639.21 203.062 639.022 202.173 639.022 201.155C639.022 200.149 639.21 199.263 639.585 198.496C639.964 197.729 640.493 197.13 641.17 196.7C641.852 196.269 642.649 196.054 643.561 196.054C644.115 196.054 644.652 196.146 645.172 196.329C645.691 196.512 646.158 196.8 646.571 197.192C646.985 197.584 647.311 198.093 647.549 198.719C647.788 199.342 647.907 200.098 647.907 200.989V201.666H640.103V200.234H646.035C646.035 199.732 645.932 199.286 645.728 198.898C645.523 198.506 645.236 198.197 644.865 197.972C644.498 197.746 644.068 197.633 643.574 197.633C643.037 197.633 642.568 197.765 642.167 198.029C641.771 198.289 641.464 198.63 641.247 199.052C641.034 199.469 640.927 199.923 640.927 200.413V201.532C640.927 202.188 641.042 202.746 641.272 203.207C641.507 203.667 641.833 204.018 642.25 204.261C642.668 204.5 643.156 204.619 643.714 204.619C644.076 204.619 644.407 204.568 644.705 204.466C645.003 204.359 645.261 204.202 645.478 203.993C645.696 203.784 645.862 203.526 645.977 203.219L647.786 203.545C647.641 204.078 647.381 204.545 647.006 204.945C646.635 205.342 646.169 205.651 645.606 205.872C645.048 206.089 644.411 206.198 643.695 206.198ZM650.028 206V196.182H651.875V197.741H651.978C652.157 197.213 652.472 196.798 652.924 196.495C653.38 196.188 653.895 196.035 654.47 196.035C654.59 196.035 654.73 196.039 654.892 196.048C655.059 196.056 655.188 196.067 655.282 196.08V197.908C655.206 197.886 655.069 197.863 654.873 197.837C654.677 197.808 654.481 197.793 654.285 197.793C653.833 197.793 653.431 197.888 653.077 198.08C652.728 198.268 652.451 198.53 652.246 198.866C652.041 199.199 651.939 199.578 651.939 200.004V206H650.028ZM664.293 198.579L662.561 198.886C662.489 198.664 662.374 198.453 662.216 198.253C662.063 198.053 661.854 197.888 661.59 197.761C661.325 197.633 660.995 197.569 660.599 197.569C660.058 197.569 659.606 197.69 659.244 197.933C658.881 198.172 658.7 198.481 658.7 198.86C658.7 199.188 658.822 199.452 659.065 199.653C659.308 199.853 659.7 200.017 660.241 200.145L661.801 200.503C662.704 200.712 663.377 201.033 663.82 201.468C664.264 201.903 664.485 202.467 664.485 203.162C664.485 203.75 664.315 204.274 663.974 204.734C663.637 205.19 663.166 205.548 662.561 205.808C661.96 206.068 661.264 206.198 660.471 206.198C659.372 206.198 658.475 205.964 657.78 205.495C657.085 205.022 656.659 204.351 656.502 203.482L658.349 203.2C658.464 203.682 658.7 204.046 659.058 204.293C659.416 204.536 659.883 204.658 660.458 204.658C661.085 204.658 661.585 204.528 661.96 204.268C662.335 204.004 662.523 203.682 662.523 203.303C662.523 202.996 662.408 202.738 662.178 202.529C661.952 202.32 661.604 202.163 661.136 202.056L659.474 201.692C658.558 201.483 657.88 201.151 657.441 200.695C657.006 200.239 656.789 199.661 656.789 198.962C656.789 198.383 656.951 197.876 657.275 197.441C657.599 197.006 658.046 196.668 658.617 196.425C659.188 196.178 659.842 196.054 660.58 196.054C661.641 196.054 662.476 196.284 663.085 196.744C663.695 197.2 664.097 197.812 664.293 198.579ZM551.415 228.217C550.793 228.217 550.231 228.102 549.728 227.872C549.225 227.638 548.827 227.299 548.533 226.856C548.243 226.413 548.098 225.869 548.098 225.226C548.098 224.672 548.205 224.216 548.418 223.858C548.631 223.5 548.918 223.217 549.281 223.008C549.643 222.799 550.048 222.641 550.495 222.535C550.942 222.428 551.398 222.347 551.863 222.292C552.451 222.224 552.928 222.168 553.295 222.126C553.661 222.079 553.928 222.004 554.094 221.902C554.26 221.8 554.343 221.634 554.343 221.403V221.359C554.343 220.8 554.185 220.368 553.87 220.061C553.559 219.754 553.094 219.601 552.477 219.601C551.833 219.601 551.326 219.744 550.955 220.029C550.589 220.31 550.335 220.624 550.195 220.969L548.398 220.56C548.612 219.963 548.923 219.482 549.332 219.115C549.745 218.744 550.22 218.476 550.757 218.31C551.294 218.139 551.859 218.054 552.451 218.054C552.843 218.054 553.259 218.101 553.697 218.195C554.141 218.284 554.554 218.45 554.938 218.693C555.325 218.936 555.643 219.283 555.89 219.735C556.137 220.183 556.261 220.764 556.261 221.48V228H554.394V226.658H554.317C554.194 226.905 554.009 227.148 553.761 227.386C553.514 227.625 553.197 227.823 552.809 227.981C552.421 228.138 551.957 228.217 551.415 228.217ZM551.831 226.683C552.359 226.683 552.811 226.579 553.186 226.37C553.565 226.161 553.853 225.888 554.049 225.552C554.249 225.211 554.349 224.847 554.349 224.459V223.193C554.281 223.261 554.149 223.325 553.953 223.385C553.761 223.44 553.542 223.489 553.295 223.532C553.048 223.57 552.807 223.607 552.572 223.641C552.338 223.67 552.142 223.696 551.984 223.717C551.614 223.764 551.275 223.843 550.968 223.954C550.665 224.065 550.423 224.224 550.239 224.433C550.06 224.638 549.971 224.911 549.971 225.251C549.971 225.724 550.146 226.082 550.495 226.325C550.844 226.564 551.29 226.683 551.831 226.683ZM560.718 222.17V228H558.806V218.182H560.641V219.78H560.762C560.988 219.26 561.342 218.842 561.823 218.527C562.309 218.212 562.921 218.054 563.658 218.054C564.327 218.054 564.913 218.195 565.416 218.476C565.919 218.753 566.308 219.166 566.585 219.716C566.862 220.266 567.001 220.945 567.001 221.755V228H565.09V221.985C565.09 221.273 564.904 220.717 564.534 220.317C564.163 219.912 563.654 219.71 563.006 219.71C562.563 219.71 562.169 219.805 561.823 219.997C561.482 220.189 561.212 220.47 561.012 220.841C560.816 221.207 560.718 221.651 560.718 222.17ZM573.24 228.192C572.447 228.192 571.74 227.989 571.117 227.585C570.499 227.175 570.014 226.594 569.66 225.839C569.311 225.081 569.136 224.171 569.136 223.11C569.136 222.049 569.313 221.141 569.666 220.387C570.024 219.633 570.514 219.055 571.137 218.655C571.759 218.254 572.464 218.054 573.252 218.054C573.862 218.054 574.352 218.156 574.722 218.361C575.097 218.561 575.387 218.795 575.592 219.064C575.801 219.332 575.963 219.569 576.078 219.773H576.193V214.909H578.104V228H576.237V226.472H576.078C575.963 226.681 575.796 226.92 575.579 227.188C575.366 227.457 575.072 227.691 574.697 227.891C574.322 228.092 573.836 228.192 573.24 228.192ZM573.661 226.562C574.211 226.562 574.676 226.417 575.055 226.127C575.438 225.833 575.728 225.426 575.924 224.906C576.124 224.386 576.225 223.781 576.225 223.091C576.225 222.409 576.127 221.812 575.931 221.301C575.735 220.79 575.447 220.391 575.068 220.106C574.688 219.82 574.22 219.678 573.661 219.678C573.086 219.678 572.607 219.827 572.223 220.125C571.84 220.423 571.55 220.83 571.354 221.346C571.162 221.862 571.066 222.443 571.066 223.091C571.066 223.747 571.164 224.337 571.36 224.862C571.556 225.386 571.846 225.801 572.23 226.108C572.617 226.411 573.095 226.562 573.661 226.562ZM589.712 231.886C588.932 231.886 588.261 231.784 587.698 231.58C587.14 231.375 586.684 231.104 586.33 230.768C585.977 230.431 585.713 230.063 585.538 229.662L587.181 228.984C587.296 229.172 587.449 229.37 587.641 229.579C587.837 229.792 588.101 229.973 588.433 230.122C588.77 230.271 589.203 230.346 589.731 230.346C590.455 230.346 591.054 230.169 591.527 229.815C592 229.466 592.237 228.908 592.237 228.141V226.21H592.115C592 226.419 591.834 226.651 591.617 226.907C591.404 227.163 591.11 227.384 590.735 227.572C590.36 227.759 589.872 227.853 589.271 227.853C588.495 227.853 587.796 227.672 587.174 227.31C586.556 226.943 586.066 226.404 585.704 225.692C585.346 224.977 585.167 224.097 585.167 223.053C585.167 222.009 585.344 221.114 585.698 220.368C586.056 219.622 586.546 219.051 587.168 218.655C587.79 218.254 588.495 218.054 589.284 218.054C589.893 218.054 590.385 218.156 590.76 218.361C591.135 218.561 591.427 218.795 591.636 219.064C591.849 219.332 592.013 219.569 592.128 219.773H592.269V218.182H594.142V228.217C594.142 229.061 593.945 229.754 593.553 230.295C593.161 230.836 592.631 231.237 591.962 231.496C591.297 231.756 590.547 231.886 589.712 231.886ZM589.693 226.268C590.242 226.268 590.707 226.14 591.086 225.884C591.47 225.624 591.759 225.254 591.955 224.772C592.156 224.286 592.256 223.705 592.256 223.027C592.256 222.366 592.158 221.785 591.962 221.282C591.766 220.779 591.478 220.387 591.099 220.106C590.72 219.82 590.251 219.678 589.693 219.678C589.117 219.678 588.638 219.827 588.254 220.125C587.871 220.419 587.581 220.82 587.385 221.327C587.193 221.834 587.097 222.401 587.097 223.027C587.097 223.67 587.195 224.235 587.392 224.721C587.588 225.207 587.877 225.586 588.261 225.859C588.649 226.131 589.126 226.268 589.693 226.268ZM596.705 228V218.182H598.552V219.741H598.654C598.833 219.213 599.149 218.798 599.6 218.495C600.056 218.188 600.572 218.035 601.147 218.035C601.267 218.035 601.407 218.039 601.569 218.048C601.735 218.056 601.865 218.067 601.959 218.08V219.908C601.882 219.886 601.746 219.863 601.55 219.837C601.354 219.808 601.158 219.793 600.962 219.793C600.51 219.793 600.107 219.888 599.754 220.08C599.404 220.268 599.127 220.53 598.923 220.866C598.718 221.199 598.616 221.578 598.616 222.004V228H596.705ZM607.397 228.198C606.477 228.198 605.673 227.987 604.987 227.565C604.301 227.143 603.768 226.553 603.389 225.795C603.01 225.036 602.82 224.15 602.82 223.136C602.82 222.117 603.01 221.227 603.389 220.464C603.768 219.701 604.301 219.109 604.987 218.687C605.673 218.265 606.477 218.054 607.397 218.054C608.317 218.054 609.121 218.265 609.807 218.687C610.493 219.109 611.026 219.701 611.405 220.464C611.784 221.227 611.974 222.117 611.974 223.136C611.974 224.15 611.784 225.036 611.405 225.795C611.026 226.553 610.493 227.143 609.807 227.565C609.121 227.987 608.317 228.198 607.397 228.198ZM607.403 226.594C608 226.594 608.494 226.436 608.886 226.121C609.278 225.805 609.568 225.386 609.756 224.862C609.947 224.337 610.043 223.76 610.043 223.129C610.043 222.503 609.947 221.928 609.756 221.403C609.568 220.875 609.278 220.451 608.886 220.131C608.494 219.812 608 219.652 607.403 219.652C606.803 219.652 606.304 219.812 605.908 220.131C605.516 220.451 605.224 220.875 605.032 221.403C604.844 221.928 604.751 222.503 604.751 223.129C604.751 223.76 604.844 224.337 605.032 224.862C605.224 225.386 605.516 225.805 605.908 226.121C606.304 226.436 606.803 226.594 607.403 226.594ZM615.937 228L613.048 218.182H615.023L616.947 225.392H617.043L618.973 218.182H620.948L622.866 225.36H622.962L624.873 218.182H626.848L623.965 228H622.016L620.021 220.911H619.874L617.88 228H615.937ZM628.662 228V218.182H630.573V228H628.662ZM629.627 216.667C629.295 216.667 629.009 216.556 628.77 216.335C628.536 216.109 628.419 215.84 628.419 215.529C628.419 215.214 628.536 214.945 628.77 214.724C629.009 214.498 629.295 214.385 629.627 214.385C629.959 214.385 630.243 214.498 630.477 214.724C630.716 214.945 630.835 215.214 630.835 215.529C630.835 215.84 630.716 216.109 630.477 216.335C630.243 216.556 629.959 216.667 629.627 216.667ZM635.055 222.17V228H633.144V218.182H634.979V219.78H635.1C635.326 219.26 635.68 218.842 636.161 218.527C636.647 218.212 637.259 218.054 637.996 218.054C638.665 218.054 639.251 218.195 639.754 218.476C640.256 218.753 640.646 219.166 640.923 219.716C641.2 220.266 641.339 220.945 641.339 221.755V228H639.428V221.985C639.428 221.273 639.242 220.717 638.871 220.317C638.501 219.912 637.991 219.71 637.344 219.71C636.901 219.71 636.506 219.805 636.161 219.997C635.82 220.189 635.55 220.47 635.349 220.841C635.153 221.207 635.055 221.651 635.055 222.17ZM648.018 231.886C647.239 231.886 646.567 231.784 646.005 231.58C645.447 231.375 644.991 231.104 644.637 230.768C644.283 230.431 644.019 230.063 643.844 229.662L645.487 228.984C645.602 229.172 645.756 229.37 645.947 229.579C646.143 229.792 646.408 229.973 646.74 230.122C647.077 230.271 647.509 230.346 648.038 230.346C648.762 230.346 649.361 230.169 649.834 229.815C650.307 229.466 650.543 228.908 650.543 228.141V226.21H650.422C650.307 226.419 650.141 226.651 649.923 226.907C649.71 227.163 649.416 227.384 649.041 227.572C648.666 227.759 648.178 227.853 647.577 227.853C646.802 227.853 646.103 227.672 645.481 227.31C644.863 226.943 644.373 226.404 644.011 225.692C643.653 224.977 643.474 224.097 643.474 223.053C643.474 222.009 643.651 221.114 644.004 220.368C644.362 219.622 644.852 219.051 645.474 218.655C646.097 218.254 646.802 218.054 647.59 218.054C648.2 218.054 648.692 218.156 649.067 218.361C649.442 218.561 649.734 218.795 649.942 219.064C650.156 219.332 650.32 219.569 650.435 219.773H650.575V218.182H652.448V228.217C652.448 229.061 652.252 229.754 651.86 230.295C651.468 230.836 650.938 231.237 650.268 231.496C649.604 231.756 648.854 231.886 648.018 231.886ZM647.999 226.268C648.549 226.268 649.013 226.14 649.393 225.884C649.776 225.624 650.066 225.254 650.262 224.772C650.462 224.286 650.562 223.705 650.562 223.027C650.562 222.366 650.464 221.785 650.268 221.282C650.072 220.779 649.785 220.387 649.406 220.106C649.026 219.82 648.558 219.678 647.999 219.678C647.424 219.678 646.945 219.827 646.561 220.125C646.178 220.419 645.888 220.82 645.692 221.327C645.5 221.834 645.404 222.401 645.404 223.027C645.404 223.67 645.502 224.235 645.698 224.721C645.894 225.207 646.184 225.586 646.567 225.859C646.955 226.131 647.433 226.268 647.999 226.268Z" fill="#132356"/>
<path d="M816.221 194.609V192.909H826.353V194.609H822.268V206H820.299V194.609H816.221ZM831.246 206.198C830.278 206.198 829.445 205.991 828.747 205.578C828.052 205.161 827.515 204.575 827.136 203.82C826.761 203.062 826.573 202.173 826.573 201.155C826.573 200.149 826.761 199.263 827.136 198.496C827.515 197.729 828.043 197.13 828.721 196.7C829.403 196.269 830.2 196.054 831.112 196.054C831.666 196.054 832.203 196.146 832.722 196.329C833.242 196.512 833.709 196.8 834.122 197.192C834.536 197.584 834.862 198.093 835.1 198.719C835.339 199.342 835.458 200.098 835.458 200.989V201.666H827.653V200.234H833.585C833.585 199.732 833.483 199.286 833.278 198.898C833.074 198.506 832.786 198.197 832.416 197.972C832.049 197.746 831.619 197.633 831.124 197.633C830.587 197.633 830.119 197.765 829.718 198.029C829.322 198.289 829.015 198.63 828.798 199.052C828.585 199.469 828.478 199.923 828.478 200.413V201.532C828.478 202.188 828.593 202.746 828.823 203.207C829.058 203.667 829.384 204.018 829.801 204.261C830.219 204.5 830.707 204.619 831.265 204.619C831.627 204.619 831.957 204.568 832.256 204.466C832.554 204.359 832.812 204.202 833.029 203.993C833.247 203.784 833.413 203.526 833.528 203.219L835.337 203.545C835.192 204.078 834.932 204.545 834.557 204.945C834.186 205.342 833.72 205.651 833.157 205.872C832.599 206.089 831.962 206.198 831.246 206.198ZM841.714 206.198C840.764 206.198 839.946 205.983 839.26 205.553C838.578 205.118 838.054 204.519 837.687 203.756C837.321 202.994 837.138 202.12 837.138 201.136C837.138 200.138 837.325 199.259 837.7 198.496C838.075 197.729 838.604 197.13 839.285 196.7C839.967 196.269 840.771 196.054 841.695 196.054C842.441 196.054 843.106 196.192 843.69 196.469C844.273 196.742 844.744 197.126 845.102 197.62C845.464 198.114 845.68 198.692 845.748 199.352H843.888C843.785 198.892 843.551 198.496 843.185 198.163C842.822 197.831 842.337 197.665 841.727 197.665C841.195 197.665 840.728 197.805 840.327 198.087C839.931 198.364 839.622 198.76 839.4 199.276C839.179 199.787 839.068 200.392 839.068 201.091C839.068 201.807 839.177 202.425 839.394 202.945C839.611 203.464 839.918 203.867 840.315 204.153C840.715 204.438 841.186 204.581 841.727 204.581C842.089 204.581 842.418 204.515 842.712 204.383C843.01 204.246 843.259 204.053 843.459 203.801C843.664 203.55 843.807 203.247 843.888 202.893H845.748C845.68 203.528 845.473 204.095 845.128 204.594C844.783 205.092 844.32 205.484 843.741 205.77C843.165 206.055 842.49 206.198 841.714 206.198ZM849.703 200.17V206H847.792V192.909H849.677V197.78H849.799C850.029 197.251 850.38 196.832 850.853 196.521C851.326 196.21 851.944 196.054 852.707 196.054C853.38 196.054 853.968 196.192 854.471 196.469C854.978 196.746 855.37 197.16 855.647 197.71C855.929 198.255 856.069 198.937 856.069 199.755V206H854.158V199.985C854.158 199.265 853.973 198.707 853.602 198.31C853.231 197.91 852.716 197.71 852.055 197.71C851.603 197.71 851.199 197.805 850.841 197.997C850.487 198.189 850.208 198.47 850.003 198.841C849.803 199.207 849.703 199.651 849.703 200.17ZM860.531 200.17V206H858.62V196.182H860.454V197.78H860.576C860.802 197.26 861.155 196.842 861.637 196.527C862.123 196.212 862.734 196.054 863.471 196.054C864.14 196.054 864.726 196.195 865.229 196.476C865.732 196.753 866.122 197.166 866.399 197.716C866.676 198.266 866.814 198.945 866.814 199.755V206H864.903V199.985C864.903 199.273 864.718 198.717 864.347 198.317C863.976 197.912 863.467 197.71 862.819 197.71C862.376 197.71 861.982 197.805 861.637 197.997C861.296 198.189 861.025 198.47 860.825 198.841C860.629 199.207 860.531 199.651 860.531 200.17ZM873.513 206.198C872.593 206.198 871.79 205.987 871.103 205.565C870.417 205.143 869.885 204.553 869.505 203.795C869.126 203.036 868.937 202.15 868.937 201.136C868.937 200.117 869.126 199.227 869.505 198.464C869.885 197.701 870.417 197.109 871.103 196.687C871.79 196.265 872.593 196.054 873.513 196.054C874.434 196.054 875.237 196.265 875.923 196.687C876.609 197.109 877.142 197.701 877.521 198.464C877.9 199.227 878.09 200.117 878.09 201.136C878.09 202.15 877.9 203.036 877.521 203.795C877.142 204.553 876.609 205.143 875.923 205.565C875.237 205.987 874.434 206.198 873.513 206.198ZM873.52 204.594C874.116 204.594 874.611 204.436 875.003 204.121C875.395 203.805 875.684 203.386 875.872 202.862C876.064 202.337 876.16 201.76 876.16 201.129C876.16 200.503 876.064 199.928 875.872 199.403C875.684 198.875 875.395 198.451 875.003 198.131C874.611 197.812 874.116 197.652 873.52 197.652C872.919 197.652 872.42 197.812 872.024 198.131C871.632 198.451 871.34 198.875 871.148 199.403C870.961 199.928 870.867 200.503 870.867 201.129C870.867 201.76 870.961 202.337 871.148 202.862C871.34 203.386 871.632 203.805 872.024 204.121C872.42 204.436 872.919 204.594 873.52 204.594ZM882.134 192.909V206H880.223V192.909H882.134ZM888.841 206.198C887.921 206.198 887.118 205.987 886.432 205.565C885.745 205.143 885.213 204.553 884.834 203.795C884.454 203.036 884.265 202.15 884.265 201.136C884.265 200.117 884.454 199.227 884.834 198.464C885.213 197.701 885.745 197.109 886.432 196.687C887.118 196.265 887.921 196.054 888.841 196.054C889.762 196.054 890.565 196.265 891.251 196.687C891.937 197.109 892.47 197.701 892.849 198.464C893.228 199.227 893.418 200.117 893.418 201.136C893.418 202.15 893.228 203.036 892.849 203.795C892.47 204.553 891.937 205.143 891.251 205.565C890.565 205.987 889.762 206.198 888.841 206.198ZM888.848 204.594C889.444 204.594 889.939 204.436 890.331 204.121C890.723 203.805 891.013 203.386 891.2 202.862C891.392 202.337 891.488 201.76 891.488 201.129C891.488 200.503 891.392 199.928 891.2 199.403C891.013 198.875 890.723 198.451 890.331 198.131C889.939 197.812 889.444 197.652 888.848 197.652C888.247 197.652 887.748 197.812 887.352 198.131C886.96 198.451 886.668 198.875 886.476 199.403C886.289 199.928 886.195 200.503 886.195 201.129C886.195 201.76 886.289 202.337 886.476 202.862C886.668 203.386 886.96 203.805 887.352 204.121C887.748 204.436 888.247 204.594 888.848 204.594ZM899.668 209.886C898.888 209.886 898.217 209.784 897.654 209.58C897.096 209.375 896.64 209.104 896.286 208.768C895.933 208.431 895.669 208.063 895.494 207.662L897.137 206.984C897.252 207.172 897.405 207.37 897.597 207.579C897.793 207.792 898.057 207.973 898.389 208.122C898.726 208.271 899.159 208.346 899.687 208.346C900.411 208.346 901.01 208.169 901.483 207.815C901.956 207.466 902.193 206.908 902.193 206.141V204.21H902.071C901.956 204.419 901.79 204.651 901.573 204.907C901.36 205.163 901.066 205.384 900.691 205.572C900.316 205.759 899.828 205.853 899.227 205.853C898.451 205.853 897.752 205.672 897.13 205.31C896.512 204.943 896.022 204.404 895.66 203.692C895.302 202.977 895.123 202.097 895.123 201.053C895.123 200.009 895.3 199.114 895.654 198.368C896.012 197.622 896.502 197.051 897.124 196.655C897.746 196.254 898.451 196.054 899.24 196.054C899.849 196.054 900.341 196.156 900.716 196.361C901.091 196.561 901.383 196.795 901.592 197.064C901.805 197.332 901.969 197.569 902.084 197.773H902.225V196.182H904.098V206.217C904.098 207.061 903.902 207.754 903.509 208.295C903.117 208.836 902.587 209.237 901.918 209.496C901.253 209.756 900.503 209.886 899.668 209.886ZM899.649 204.268C900.198 204.268 900.663 204.14 901.042 203.884C901.426 203.624 901.715 203.254 901.911 202.772C902.112 202.286 902.212 201.705 902.212 201.027C902.212 200.366 902.114 199.785 901.918 199.282C901.722 198.779 901.434 198.387 901.055 198.106C900.676 197.82 900.207 197.678 899.649 197.678C899.073 197.678 898.594 197.827 898.21 198.125C897.827 198.419 897.537 198.82 897.341 199.327C897.149 199.834 897.054 200.401 897.054 201.027C897.054 201.67 897.152 202.235 897.348 202.721C897.544 203.207 897.833 203.586 898.217 203.859C898.605 204.131 899.082 204.268 899.649 204.268ZM907.869 209.682C907.583 209.682 907.323 209.658 907.089 209.612C906.855 209.569 906.68 209.522 906.565 209.471L907.025 207.905C907.375 207.999 907.686 208.039 907.958 208.026C908.231 208.013 908.472 207.911 908.681 207.719C908.894 207.528 909.081 207.214 909.243 206.78L909.48 206.128L905.887 196.182H907.933L910.419 203.801H910.522L913.008 196.182H915.06L911.014 207.31C910.826 207.822 910.588 208.254 910.298 208.608C910.008 208.966 909.663 209.234 909.262 209.413C908.862 209.592 908.397 209.682 907.869 209.682ZM827.138 220.579L825.406 220.886C825.333 220.664 825.218 220.453 825.061 220.253C824.907 220.053 824.699 219.888 824.434 219.761C824.17 219.633 823.84 219.569 823.444 219.569C822.902 219.569 822.451 219.69 822.088 219.933C821.726 220.172 821.545 220.481 821.545 220.86C821.545 221.188 821.667 221.452 821.909 221.653C822.152 221.853 822.544 222.017 823.086 222.145L824.645 222.503C825.549 222.712 826.222 223.033 826.665 223.468C827.108 223.903 827.33 224.467 827.33 225.162C827.33 225.75 827.159 226.274 826.819 226.734C826.482 227.19 826.011 227.548 825.406 227.808C824.805 228.068 824.108 228.198 823.316 228.198C822.216 228.198 821.319 227.964 820.625 227.495C819.93 227.022 819.504 226.351 819.346 225.482L821.194 225.2C821.309 225.682 821.545 226.046 821.903 226.293C822.261 226.536 822.728 226.658 823.303 226.658C823.929 226.658 824.43 226.528 824.805 226.268C825.18 226.004 825.368 225.682 825.368 225.303C825.368 224.996 825.252 224.738 825.022 224.529C824.797 224.32 824.449 224.163 823.98 224.056L822.319 223.692C821.402 223.483 820.725 223.151 820.286 222.695C819.851 222.239 819.634 221.661 819.634 220.962C819.634 220.383 819.796 219.876 820.12 219.441C820.444 219.006 820.891 218.668 821.462 218.425C822.033 218.178 822.687 218.054 823.424 218.054C824.485 218.054 825.321 218.284 825.93 218.744C826.539 219.2 826.942 219.812 827.138 220.579ZM835.651 223.928V218.182H837.568V228H835.689V226.3H835.587C835.361 226.824 834.999 227.261 834.5 227.61C834.006 227.955 833.39 228.128 832.653 228.128C832.022 228.128 831.464 227.989 830.978 227.712C830.497 227.431 830.117 227.016 829.84 226.466C829.568 225.916 829.431 225.237 829.431 224.427V218.182H831.343V224.197C831.343 224.866 831.528 225.398 831.899 225.795C832.269 226.191 832.751 226.389 833.343 226.389C833.701 226.389 834.057 226.3 834.411 226.121C834.769 225.942 835.065 225.671 835.299 225.309C835.538 224.947 835.655 224.487 835.651 223.928ZM840.136 231.682V218.182H842.003V219.773H842.163C842.273 219.569 842.433 219.332 842.642 219.064C842.851 218.795 843.141 218.561 843.511 218.361C843.882 218.156 844.372 218.054 844.982 218.054C845.774 218.054 846.482 218.254 847.104 218.655C847.726 219.055 848.214 219.633 848.567 220.387C848.925 221.141 849.104 222.049 849.104 223.11C849.104 224.171 848.928 225.081 848.574 225.839C848.22 226.594 847.734 227.175 847.116 227.585C846.499 227.989 845.793 228.192 845.001 228.192C844.404 228.192 843.916 228.092 843.537 227.891C843.162 227.691 842.868 227.457 842.655 227.188C842.442 226.92 842.278 226.681 842.163 226.472H842.048V231.682H840.136ZM842.009 223.091C842.009 223.781 842.109 224.386 842.31 224.906C842.51 225.426 842.8 225.833 843.179 226.127C843.558 226.417 844.023 226.562 844.572 226.562C845.143 226.562 845.621 226.411 846.004 226.108C846.388 225.801 846.678 225.386 846.874 224.862C847.074 224.337 847.174 223.747 847.174 223.091C847.174 222.443 847.076 221.862 846.88 221.346C846.688 220.83 846.398 220.423 846.011 220.125C845.627 219.827 845.148 219.678 844.572 219.678C844.018 219.678 843.55 219.82 843.166 220.106C842.787 220.391 842.499 220.79 842.303 221.301C842.107 221.812 842.009 222.409 842.009 223.091ZM851.246 231.682V218.182H853.112V219.773H853.272C853.383 219.569 853.543 219.332 853.751 219.064C853.96 218.795 854.25 218.561 854.621 218.361C854.991 218.156 855.482 218.054 856.091 218.054C856.884 218.054 857.591 218.254 858.213 218.655C858.835 219.055 859.323 219.633 859.677 220.387C860.035 221.141 860.214 222.049 860.214 223.11C860.214 224.171 860.037 225.081 859.683 225.839C859.33 226.594 858.844 227.175 858.226 227.585C857.608 227.989 856.903 228.192 856.11 228.192C855.513 228.192 855.026 228.092 854.646 227.891C854.271 227.691 853.977 227.457 853.764 227.188C853.551 226.92 853.387 226.681 853.272 226.472H853.157V231.682H851.246ZM853.119 223.091C853.119 223.781 853.219 224.386 853.419 224.906C853.619 225.426 853.909 225.833 854.288 226.127C854.668 226.417 855.132 226.562 855.682 226.562C856.253 226.562 856.73 226.411 857.114 226.108C857.497 225.801 857.787 225.386 857.983 224.862C858.183 224.337 858.283 223.747 858.283 223.091C858.283 222.443 858.185 221.862 857.989 221.346C857.798 220.83 857.508 220.423 857.12 220.125C856.737 219.827 856.257 219.678 855.682 219.678C855.128 219.678 854.659 219.82 854.276 220.106C853.896 220.391 853.609 220.79 853.413 221.301C853.217 221.812 853.119 222.409 853.119 223.091ZM866.491 228.198C865.57 228.198 864.767 227.987 864.081 227.565C863.395 227.143 862.862 226.553 862.483 225.795C862.104 225.036 861.914 224.15 861.914 223.136C861.914 222.117 862.104 221.227 862.483 220.464C862.862 219.701 863.395 219.109 864.081 218.687C864.767 218.265 865.57 218.054 866.491 218.054C867.411 218.054 868.214 218.265 868.901 218.687C869.587 219.109 870.119 219.701 870.499 220.464C870.878 221.227 871.067 222.117 871.067 223.136C871.067 224.15 870.878 225.036 870.499 225.795C870.119 226.553 869.587 227.143 868.901 227.565C868.214 227.987 867.411 228.198 866.491 228.198ZM866.497 226.594C867.094 226.594 867.588 226.436 867.98 226.121C868.372 225.805 868.662 225.386 868.849 224.862C869.041 224.337 869.137 223.76 869.137 223.129C869.137 222.503 869.041 221.928 868.849 221.403C868.662 220.875 868.372 220.451 867.98 220.131C867.588 219.812 867.094 219.652 866.497 219.652C865.896 219.652 865.398 219.812 865.001 220.131C864.609 220.451 864.317 220.875 864.126 221.403C863.938 221.928 863.844 222.503 863.844 223.129C863.844 223.76 863.938 224.337 864.126 224.862C864.317 225.386 864.609 225.805 865.001 226.121C865.398 226.436 865.896 226.594 866.497 226.594ZM873.201 228V218.182H875.048V219.741H875.15C875.329 219.213 875.645 218.798 876.096 218.495C876.552 218.188 877.068 218.035 877.643 218.035C877.763 218.035 877.903 218.039 878.065 218.048C878.231 218.056 878.361 218.067 878.455 218.08V219.908C878.378 219.886 878.242 219.863 878.046 219.837C877.85 219.808 877.654 219.793 877.458 219.793C877.006 219.793 876.604 219.888 876.25 220.08C875.9 220.268 875.623 220.53 875.419 220.866C875.214 221.199 875.112 221.578 875.112 222.004V228H873.201ZM885.272 218.182V219.716H879.909V218.182H885.272ZM881.347 215.83H883.259V225.117C883.259 225.488 883.314 225.767 883.425 225.955C883.536 226.138 883.678 226.263 883.853 226.332C884.032 226.396 884.226 226.428 884.435 226.428C884.588 226.428 884.722 226.417 884.838 226.396C884.953 226.374 885.042 226.357 885.106 226.344L885.451 227.923C885.34 227.966 885.183 228.009 884.978 228.051C884.774 228.098 884.518 228.124 884.211 228.128C883.708 228.136 883.24 228.047 882.805 227.859C882.37 227.672 882.019 227.382 881.75 226.99C881.482 226.598 881.347 226.106 881.347 225.513V215.83ZM891.512 228.198C890.545 228.198 889.712 227.991 889.013 227.578C888.319 227.161 887.782 226.575 887.402 225.82C887.027 225.062 886.84 224.173 886.84 223.155C886.84 222.149 887.027 221.263 887.402 220.496C887.782 219.729 888.31 219.13 888.988 218.7C889.669 218.269 890.466 218.054 891.378 218.054C891.932 218.054 892.469 218.146 892.989 218.329C893.509 218.512 893.975 218.8 894.389 219.192C894.802 219.584 895.128 220.093 895.367 220.719C895.605 221.342 895.725 222.098 895.725 222.989V223.666H887.92V222.234H893.852C893.852 221.732 893.75 221.286 893.545 220.898C893.341 220.506 893.053 220.197 892.682 219.972C892.316 219.746 891.885 219.633 891.391 219.633C890.854 219.633 890.385 219.765 889.985 220.029C889.588 220.289 889.282 220.63 889.064 221.052C888.851 221.469 888.745 221.923 888.745 222.413V223.532C888.745 224.188 888.86 224.746 889.09 225.207C889.324 225.667 889.65 226.018 890.068 226.261C890.485 226.5 890.973 226.619 891.532 226.619C891.894 226.619 892.224 226.568 892.522 226.466C892.821 226.359 893.078 226.202 893.296 225.993C893.513 225.784 893.679 225.526 893.794 225.219L895.603 225.545C895.458 226.078 895.199 226.545 894.824 226.945C894.453 227.342 893.986 227.651 893.424 227.872C892.865 228.089 892.228 228.198 891.512 228.198ZM901.521 228.192C900.728 228.192 900.021 227.989 899.399 227.585C898.781 227.175 898.295 226.594 897.941 225.839C897.592 225.081 897.417 224.171 897.417 223.11C897.417 222.049 897.594 221.141 897.948 220.387C898.306 219.633 898.796 219.055 899.418 218.655C900.04 218.254 900.745 218.054 901.534 218.054C902.143 218.054 902.633 218.156 903.004 218.361C903.379 218.561 903.669 218.795 903.873 219.064C904.082 219.332 904.244 219.569 904.359 219.773H904.474V214.909H906.385V228H904.519V226.472H904.359C904.244 226.681 904.078 226.92 903.86 227.188C903.647 227.457 903.353 227.691 902.978 227.891C902.603 228.092 902.117 228.192 901.521 228.192ZM901.943 226.562C902.492 226.562 902.957 226.417 903.336 226.127C903.72 225.833 904.009 225.426 904.205 224.906C904.406 224.386 904.506 223.781 904.506 223.091C904.506 222.409 904.408 221.812 904.212 221.301C904.016 220.79 903.728 220.391 903.349 220.106C902.97 219.82 902.501 219.678 901.943 219.678C901.367 219.678 900.888 219.827 900.504 220.125C900.121 220.423 899.831 220.83 899.635 221.346C899.443 221.862 899.347 222.443 899.347 223.091C899.347 223.747 899.445 224.337 899.642 224.862C899.838 225.386 900.127 225.801 900.511 226.108C900.899 226.411 901.376 226.562 901.943 226.562Z" fill="#132356"/>
<path d="M305.195 192.348C305.127 191.743 304.846 191.274 304.352 190.942C303.857 190.605 303.235 190.437 302.485 190.437C301.948 190.437 301.484 190.522 301.092 190.692C300.7 190.859 300.395 191.089 300.178 191.383C299.964 191.673 299.858 192.003 299.858 192.374C299.858 192.685 299.93 192.953 300.075 193.179C300.224 193.405 300.418 193.594 300.657 193.748C300.9 193.897 301.16 194.023 301.437 194.125C301.714 194.223 301.98 194.304 302.236 194.368L303.514 194.7C303.932 194.803 304.36 194.941 304.799 195.116C305.238 195.29 305.645 195.521 306.02 195.806C306.395 196.092 306.697 196.445 306.928 196.867C307.162 197.289 307.279 197.794 307.279 198.382C307.279 199.124 307.087 199.782 306.704 200.357C306.325 200.933 305.773 201.386 305.048 201.719C304.328 202.051 303.457 202.217 302.434 202.217C301.454 202.217 300.606 202.062 299.89 201.751C299.174 201.44 298.614 200.999 298.209 200.428C297.804 199.852 297.58 199.17 297.538 198.382H299.519C299.558 198.855 299.711 199.249 299.979 199.565C300.252 199.876 300.599 200.108 301.021 200.261C301.447 200.411 301.914 200.485 302.421 200.485C302.979 200.485 303.476 200.398 303.911 200.223C304.349 200.044 304.695 199.797 304.946 199.482C305.197 199.162 305.323 198.789 305.323 198.363C305.323 197.975 305.212 197.658 304.991 197.411C304.773 197.163 304.477 196.959 304.102 196.797C303.732 196.635 303.312 196.492 302.843 196.369L301.296 195.947C300.248 195.661 299.417 195.241 298.803 194.688C298.194 194.134 297.889 193.401 297.889 192.489C297.889 191.734 298.094 191.076 298.503 190.513C298.912 189.951 299.466 189.514 300.165 189.203C300.864 188.888 301.652 188.73 302.53 188.73C303.416 188.73 304.198 188.886 304.876 189.197C305.558 189.508 306.094 189.936 306.487 190.482C306.879 191.023 307.083 191.645 307.1 192.348H305.195ZM314.069 192.182V193.716H308.706V192.182H314.069ZM310.144 189.83H312.056V199.117C312.056 199.488 312.111 199.767 312.222 199.955C312.333 200.138 312.475 200.263 312.65 200.332C312.829 200.396 313.023 200.428 313.232 200.428C313.385 200.428 313.519 200.417 313.634 200.396C313.749 200.374 313.839 200.357 313.903 200.344L314.248 201.923C314.137 201.966 313.98 202.009 313.775 202.051C313.57 202.098 313.315 202.124 313.008 202.128C312.505 202.136 312.036 202.047 311.602 201.859C311.167 201.672 310.816 201.382 310.547 200.99C310.279 200.598 310.144 200.106 310.144 199.513V189.83ZM322.403 197.928V192.182H324.32V202H322.441V200.3H322.339C322.113 200.824 321.751 201.261 321.252 201.61C320.758 201.955 320.142 202.128 319.405 202.128C318.774 202.128 318.216 201.989 317.73 201.712C317.249 201.431 316.869 201.016 316.592 200.466C316.32 199.916 316.183 199.237 316.183 198.427V192.182H318.094V198.197C318.094 198.866 318.28 199.398 318.651 199.795C319.021 200.191 319.503 200.389 320.095 200.389C320.453 200.389 320.809 200.3 321.163 200.121C321.521 199.942 321.817 199.671 322.051 199.309C322.29 198.947 322.407 198.487 322.403 197.928ZM330.564 202.192C329.771 202.192 329.064 201.989 328.442 201.585C327.824 201.175 327.338 200.594 326.984 199.839C326.635 199.081 326.46 198.171 326.46 197.11C326.46 196.049 326.637 195.141 326.991 194.387C327.349 193.633 327.839 193.055 328.461 192.655C329.083 192.254 329.788 192.054 330.577 192.054C331.186 192.054 331.676 192.156 332.047 192.361C332.422 192.561 332.711 192.795 332.916 193.064C333.125 193.332 333.287 193.569 333.402 193.773H333.517V188.909H335.428V202H333.562V200.472H333.402C333.287 200.681 333.121 200.92 332.903 201.188C332.69 201.457 332.396 201.691 332.021 201.891C331.646 202.092 331.16 202.192 330.564 202.192ZM330.986 200.562C331.535 200.562 332 200.417 332.379 200.127C332.763 199.833 333.052 199.426 333.248 198.906C333.449 198.386 333.549 197.781 333.549 197.091C333.549 196.409 333.451 195.812 333.255 195.301C333.059 194.79 332.771 194.391 332.392 194.106C332.013 193.82 331.544 193.678 330.986 193.678C330.41 193.678 329.931 193.827 329.547 194.125C329.164 194.423 328.874 194.83 328.678 195.346C328.486 195.862 328.39 196.443 328.39 197.091C328.39 197.747 328.488 198.337 328.684 198.862C328.881 199.386 329.17 199.801 329.554 200.108C329.942 200.411 330.419 200.562 330.986 200.562ZM342.387 202.198C341.42 202.198 340.587 201.991 339.888 201.578C339.194 201.161 338.657 200.575 338.277 199.82C337.902 199.062 337.715 198.173 337.715 197.155C337.715 196.149 337.902 195.263 338.277 194.496C338.657 193.729 339.185 193.13 339.863 192.7C340.544 192.269 341.341 192.054 342.253 192.054C342.807 192.054 343.344 192.146 343.864 192.329C344.384 192.512 344.85 192.8 345.264 193.192C345.677 193.584 346.003 194.093 346.242 194.719C346.48 195.342 346.6 196.098 346.6 196.989V197.666H338.795V196.234H344.727C344.727 195.732 344.625 195.286 344.42 194.898C344.216 194.506 343.928 194.197 343.557 193.972C343.191 193.746 342.76 193.633 342.266 193.633C341.729 193.633 341.26 193.765 340.86 194.029C340.463 194.289 340.157 194.63 339.939 195.052C339.726 195.469 339.62 195.923 339.62 196.413V197.532C339.62 198.188 339.735 198.746 339.965 199.207C340.199 199.667 340.525 200.018 340.943 200.261C341.36 200.5 341.848 200.619 342.407 200.619C342.769 200.619 343.099 200.568 343.397 200.466C343.696 200.359 343.953 200.202 344.171 199.993C344.388 199.784 344.554 199.526 344.669 199.219L346.478 199.545C346.333 200.078 346.074 200.545 345.699 200.945C345.328 201.342 344.861 201.651 344.299 201.872C343.74 202.089 343.103 202.198 342.387 202.198ZM350.632 196.17V202H348.72V192.182H350.555V193.78H350.676C350.902 193.26 351.256 192.842 351.737 192.527C352.223 192.212 352.835 192.054 353.572 192.054C354.241 192.054 354.827 192.195 355.33 192.476C355.833 192.753 356.222 193.166 356.499 193.716C356.776 194.266 356.915 194.945 356.915 195.755V202H355.004V195.985C355.004 195.273 354.818 194.717 354.448 194.317C354.077 193.912 353.568 193.71 352.92 193.71C352.477 193.71 352.083 193.805 351.737 193.997C351.396 194.189 351.126 194.47 350.926 194.841C350.73 195.207 350.632 195.651 350.632 196.17ZM364.061 192.182V193.716H358.698V192.182H364.061ZM360.137 189.83H362.048V199.117C362.048 199.488 362.103 199.767 362.214 199.955C362.325 200.138 362.468 200.263 362.642 200.332C362.821 200.396 363.015 200.428 363.224 200.428C363.377 200.428 363.512 200.417 363.627 200.396C363.742 200.374 363.831 200.357 363.895 200.344L364.24 201.923C364.129 201.966 363.972 202.009 363.767 202.051C363.563 202.098 363.307 202.124 363 202.128C362.497 202.136 362.029 202.047 361.594 201.859C361.159 201.672 360.808 201.382 360.539 200.99C360.271 200.598 360.137 200.106 360.137 199.513V189.83ZM373.374 194.579L371.642 194.886C371.57 194.664 371.455 194.453 371.297 194.253C371.144 194.053 370.935 193.888 370.671 193.761C370.406 193.633 370.076 193.569 369.68 193.569C369.139 193.569 368.687 193.69 368.325 193.933C367.963 194.172 367.781 194.481 367.781 194.86C367.781 195.188 367.903 195.452 368.146 195.653C368.389 195.853 368.781 196.017 369.322 196.145L370.882 196.503C371.785 196.712 372.458 197.033 372.901 197.468C373.345 197.903 373.566 198.467 373.566 199.162C373.566 199.75 373.396 200.274 373.055 200.734C372.718 201.19 372.247 201.548 371.642 201.808C371.041 202.068 370.345 202.198 369.552 202.198C368.453 202.198 367.556 201.964 366.861 201.495C366.166 201.022 365.74 200.351 365.583 199.482L367.43 199.2C367.545 199.682 367.781 200.046 368.139 200.293C368.497 200.536 368.964 200.658 369.539 200.658C370.166 200.658 370.666 200.528 371.041 200.268C371.416 200.004 371.604 199.682 371.604 199.303C371.604 198.996 371.489 198.738 371.259 198.529C371.033 198.32 370.686 198.163 370.217 198.056L368.555 197.692C367.639 197.483 366.961 197.151 366.522 196.695C366.088 196.239 365.87 195.661 365.87 194.962C365.87 194.383 366.032 193.876 366.356 193.441C366.68 193.006 367.127 192.668 367.698 192.425C368.269 192.178 368.923 192.054 369.661 192.054C370.722 192.054 371.557 192.284 372.166 192.744C372.776 193.2 373.178 193.812 373.374 194.579ZM305.691 210.909H307.673V219.519C307.673 220.435 307.458 221.247 307.027 221.955C306.597 222.658 305.992 223.212 305.212 223.616C304.432 224.017 303.518 224.217 302.47 224.217C301.426 224.217 300.514 224.017 299.734 223.616C298.954 223.212 298.349 222.658 297.919 221.955C297.488 221.247 297.273 220.435 297.273 219.519V210.909H299.248V219.359C299.248 219.952 299.378 220.478 299.638 220.938C299.902 221.398 300.275 221.761 300.757 222.025C301.238 222.285 301.809 222.415 302.47 222.415C303.135 222.415 303.708 222.285 304.189 222.025C304.675 221.761 305.046 221.398 305.302 220.938C305.562 220.478 305.691 219.952 305.691 219.359V210.909ZM310.391 227.682V214.182H312.258V215.773H312.418C312.528 215.569 312.688 215.332 312.897 215.064C313.106 214.795 313.396 214.561 313.766 214.361C314.137 214.156 314.627 214.054 315.236 214.054C316.029 214.054 316.736 214.254 317.359 214.655C317.981 215.055 318.469 215.633 318.822 216.387C319.18 217.141 319.359 218.049 319.359 219.11C319.359 220.171 319.182 221.081 318.829 221.839C318.475 222.594 317.989 223.175 317.371 223.585C316.753 223.989 316.048 224.192 315.256 224.192C314.659 224.192 314.171 224.092 313.792 223.891C313.417 223.691 313.123 223.457 312.91 223.188C312.697 222.92 312.533 222.681 312.418 222.472H312.302V227.682H310.391ZM312.264 219.091C312.264 219.781 312.364 220.386 312.565 220.906C312.765 221.426 313.055 221.833 313.434 222.127C313.813 222.417 314.278 222.562 314.827 222.562C315.398 222.562 315.876 222.411 316.259 222.108C316.643 221.801 316.932 221.386 317.128 220.862C317.329 220.337 317.429 219.747 317.429 219.091C317.429 218.443 317.331 217.862 317.135 217.346C316.943 216.83 316.653 216.423 316.266 216.125C315.882 215.827 315.403 215.678 314.827 215.678C314.273 215.678 313.805 215.82 313.421 216.106C313.042 216.391 312.754 216.79 312.558 217.301C312.362 217.812 312.264 218.409 312.264 219.091ZM328.858 216.579L327.126 216.886C327.053 216.664 326.938 216.453 326.78 216.253C326.627 216.053 326.418 215.888 326.154 215.761C325.89 215.633 325.56 215.569 325.163 215.569C324.622 215.569 324.17 215.69 323.808 215.933C323.446 216.172 323.265 216.481 323.265 216.86C323.265 217.188 323.386 217.452 323.629 217.653C323.872 217.853 324.264 218.017 324.805 218.145L326.365 218.503C327.268 218.712 327.942 219.033 328.385 219.468C328.828 219.903 329.05 220.467 329.05 221.162C329.05 221.75 328.879 222.274 328.538 222.734C328.202 223.19 327.731 223.548 327.126 223.808C326.525 224.068 325.828 224.198 325.035 224.198C323.936 224.198 323.039 223.964 322.344 223.495C321.65 223.022 321.224 222.351 321.066 221.482L322.913 221.2C323.028 221.682 323.265 222.046 323.623 222.293C323.981 222.536 324.447 222.658 325.023 222.658C325.649 222.658 326.15 222.528 326.525 222.268C326.9 222.004 327.087 221.682 327.087 221.303C327.087 220.996 326.972 220.738 326.742 220.529C326.516 220.32 326.169 220.163 325.7 220.056L324.038 219.692C323.122 219.483 322.445 219.151 322.006 218.695C321.571 218.239 321.354 217.661 321.354 216.962C321.354 216.383 321.516 215.876 321.839 215.441C322.163 215.006 322.611 214.668 323.182 214.425C323.753 214.178 324.407 214.054 325.144 214.054C326.205 214.054 327.04 214.284 327.65 214.744C328.259 215.2 328.662 215.812 328.858 216.579ZM332.909 220.67L332.896 218.337H333.228L337.14 214.182H339.429L334.967 218.912H334.667L332.909 220.67ZM331.151 224V210.909H333.062V224H331.151ZM337.351 224L333.836 219.334L335.152 217.998L339.697 224H337.351ZM341.171 224V214.182H343.082V224H341.171ZM342.136 212.667C341.803 212.667 341.518 212.556 341.279 212.335C341.045 212.109 340.928 211.84 340.928 211.529C340.928 211.214 341.045 210.945 341.279 210.724C341.518 210.498 341.803 210.385 342.136 210.385C342.468 210.385 342.752 210.498 342.986 210.724C343.225 210.945 343.344 211.214 343.344 211.529C343.344 211.84 343.225 212.109 342.986 212.335C342.752 212.556 342.468 212.667 342.136 212.667ZM347.564 210.909V224H345.653V210.909H347.564ZM352.047 210.909V224H350.135V210.909H352.047ZM358.849 224.198C357.882 224.198 357.049 223.991 356.35 223.578C355.655 223.161 355.119 222.575 354.739 221.82C354.364 221.062 354.177 220.173 354.177 219.155C354.177 218.149 354.364 217.263 354.739 216.496C355.119 215.729 355.647 215.13 356.324 214.7C357.006 214.269 357.803 214.054 358.715 214.054C359.269 214.054 359.806 214.146 360.326 214.329C360.846 214.512 361.312 214.8 361.726 215.192C362.139 215.584 362.465 216.093 362.704 216.719C362.942 217.342 363.062 218.098 363.062 218.989V219.666H355.257V218.234H361.189C361.189 217.732 361.087 217.286 360.882 216.898C360.677 216.506 360.39 216.197 360.019 215.972C359.653 215.746 359.222 215.633 358.728 215.633C358.191 215.633 357.722 215.765 357.322 216.029C356.925 216.289 356.619 216.63 356.401 217.052C356.188 217.469 356.082 217.923 356.082 218.413V219.532C356.082 220.188 356.197 220.746 356.427 221.207C356.661 221.667 356.987 222.018 357.405 222.261C357.822 222.5 358.31 222.619 358.869 222.619C359.231 222.619 359.561 222.568 359.859 222.466C360.158 222.359 360.415 222.202 360.633 221.993C360.85 221.784 361.016 221.526 361.131 221.219L362.94 221.545C362.795 222.078 362.535 222.545 362.16 222.945C361.79 223.342 361.323 223.651 360.761 223.872C360.202 224.089 359.565 224.198 358.849 224.198ZM368.858 224.192C368.065 224.192 367.358 223.989 366.736 223.585C366.118 223.175 365.632 222.594 365.278 221.839C364.929 221.081 364.754 220.171 364.754 219.11C364.754 218.049 364.931 217.141 365.285 216.387C365.642 215.633 366.133 215.055 366.755 214.655C367.377 214.254 368.082 214.054 368.87 214.054C369.48 214.054 369.97 214.156 370.341 214.361C370.716 214.561 371.005 214.795 371.21 215.064C371.419 215.332 371.581 215.569 371.696 215.773H371.811V210.909H373.722V224H371.856V222.472H371.696C371.581 222.681 371.415 222.92 371.197 223.188C370.984 223.457 370.69 223.691 370.315 223.891C369.94 224.092 369.454 224.192 368.858 224.192ZM369.28 222.562C369.829 222.562 370.294 222.417 370.673 222.127C371.057 221.833 371.346 221.426 371.542 220.906C371.743 220.386 371.843 219.781 371.843 219.091C371.843 218.409 371.745 217.812 371.549 217.301C371.353 216.79 371.065 216.391 370.686 216.106C370.307 215.82 369.838 215.678 369.28 215.678C368.704 215.678 368.225 215.827 367.841 216.125C367.458 216.423 367.168 216.83 366.972 217.346C366.78 217.862 366.684 218.443 366.684 219.091C366.684 219.747 366.782 220.337 366.978 220.862C367.174 221.386 367.464 221.801 367.848 222.108C368.236 222.411 368.713 222.562 369.28 222.562Z" fill="#132356"/>
<defs>
<linearGradient id="paint0_linear_12_55" x1="1.66579e-06" y1="94" x2="141" y2="94" gradientUnits="userSpaceOnUse">
<stop stop-color="#8B98D7"/>
<stop offset="1" stop-color="#132356" stop-opacity="0.9"/>
</linearGradient>
<linearGradient id="paint1_linear_12_55" x1="1.66579e-06" y1="94" x2="141" y2="94" gradientUnits="userSpaceOnUse">
<stop stop-color="#3F9898"/>
<stop offset="1" stop-color="#8ECFCF" stop-opacity="0.9"/>
</linearGradient>
<linearGradient id="paint2_linear_12_55" x1="98" y1="14.9362" x2="116" y2="14.9362" gradientUnits="userSpaceOnUse">
<stop stop-color="#8ECFCF"/>
<stop offset="1" stop-color="#3F9898" stop-opacity="0.76"/>
</linearGradient>
<linearGradient id="paint3_linear_12_55" x1="116" y1="27.9716" x2="124" y2="27.9716" gradientUnits="userSpaceOnUse">
<stop stop-color="#3F9898"/>
<stop offset="1" stop-color="#8ECFCF" stop-opacity="0.66"/>
</linearGradient>
<linearGradient id="paint4_linear_12_55" x1="102" y1="2.48227" x2="107" y2="2.48227" gradientUnits="userSpaceOnUse">
<stop stop-color="#3F9898"/>
<stop offset="1" stop-color="#8ECFCF" stop-opacity="0.48"/>
</linearGradient>
<linearGradient id="paint5_linear_12_55" x1="265" y1="94" x2="406" y2="94" gradientUnits="userSpaceOnUse">
<stop stop-color="#8ECFCF"/>
<stop offset="1" stop-color="#3F9898" stop-opacity="0.9"/>
</linearGradient>
<linearGradient id="paint6_linear_12_55" x1="378" y1="22.689" x2="393" y2="22.689" gradientUnits="userSpaceOnUse">
<stop stop-color="#3F9898"/>
<stop offset="1" stop-color="#8ECFCF" stop-opacity="0.55"/>
</linearGradient>
<linearGradient id="paint7_linear_12_55" x1="378.958" y1="7.68252" x2="383.958" y2="7.68252" gradientUnits="userSpaceOnUse">
<stop stop-color="#8ECFCF"/>
<stop offset="1" stop-color="#3F9898" stop-opacity="0.55"/>
</linearGradient>
<linearGradient id="paint8_linear_12_55" x1="530" y1="98" x2="671" y2="98" gradientUnits="userSpaceOnUse">
<stop stop-color="#8B98D7"/>
<stop offset="1" stop-color="#132356" stop-opacity="0.9"/>
</linearGradient>
<linearGradient id="paint9_linear_12_55" x1="795" y1="98" x2="936" y2="98" gradientUnits="userSpaceOnUse">
<stop stop-color="#8B98D7"/>
<stop offset="1" stop-color="#132356" stop-opacity="0.9"/>
</linearGradient>
<linearGradient id="paint10_linear_12_55" x1="530" y1="98" x2="671" y2="98" gradientUnits="userSpaceOnUse">
<stop stop-color="#8ECFCF"/>
<stop offset="1" stop-color="#3F9898" stop-opacity="0.9"/>
</linearGradient>
<linearGradient id="paint11_linear_12_55" x1="795" y1="98" x2="936" y2="98" gradientUnits="userSpaceOnUse">
<stop stop-color="#3F9898"/>
<stop offset="1" stop-color="#8ECFCF" stop-opacity="0.9"/>
</linearGradient>
<linearGradient id="paint12_linear_12_55" x1="631" y1="24.4326" x2="650" y2="24.4326" gradientUnits="userSpaceOnUse">
<stop stop-color="#8ECFCF"/>
<stop offset="1" stop-color="#3F9898" stop-opacity="0.81"/>
</linearGradient>
<linearGradient id="paint13_linear_12_55" x1="896" y1="24.4326" x2="915" y2="24.4326" gradientUnits="userSpaceOnUse">
<stop stop-color="#3F9898"/>
<stop offset="1" stop-color="#8ECFCF" stop-opacity="0.81"/>
</linearGradient>
<linearGradient id="paint14_linear_12_55" x1="650" y1="38.9787" x2="656" y2="38.9787" gradientUnits="userSpaceOnUse">
<stop stop-color="#3F9898"/>
<stop offset="1" stop-color="#8ECFCF" stop-opacity="0.81"/>
</linearGradient>
<linearGradient id="paint15_linear_12_55" x1="915" y1="5.97872" x2="921" y2="5.97872" gradientUnits="userSpaceOnUse">
<stop stop-color="#3F9898"/>
<stop offset="1" stop-color="#8ECFCF" stop-opacity="0.81"/>
</linearGradient>
</defs>
</svg>
