<svg version="1.2" baseProfile="tiny-ps" xmlns="http://www.w3.org/2000/svg" viewBox="0 0 2134 2134" width="2134" height="2134">
	<title>human-resources-svg</title>
	<defs>
		<clipPath clipPathUnits="userSpaceOnUse" id="cp1">
			<path d="M1154.06 0L2084.31 0L2084.31 2133.33L1154.06 2133.33L1154.06 0Z" />
		</clipPath>
		<clipPath clipPathUnits="userSpaceOnUse" id="cp2">
			<path d="M49.03 0L1154.06 0L1154.06 2133.33L49.03 2133.33L49.03 0Z" />
		</clipPath>
	</defs>
	<style>
		tspan { white-space:pre }
		.shp0 { fill: #000000 } 
		.shp1 { fill: #693d30 } 
	</style>
	<g id="Layer">
		<g id="Clip-Path" clip-path="url(#cp1)">
			<g id="Layer">
				<path id="Layer" fill-rule="evenodd" class="shp0" d="M1946.83 2055.26C1946.83 2074.16 1935.14 2096.13 1921.91 2109.12C1908.56 2122.23 1886.36 2133.34 1867.46 2133.34L1435.41 2133.34C1416.63 2133.34 1394.31 2121.88 1381.32 2109.12C1367.73 2095.78 1356.4 2073.93 1356.4 2054.68L1356.4 1290.61C1322.38 1284.23 1291.79 1267.46 1268.28 1243.83C1236.4 1211.94 1219.03 1169.3 1219.03 1124.66L1219.03 703.24C1219.03 641.71 1244.07 585.72 1284.58 545.21C1325.1 504.69 1380.96 479.53 1442.5 479.53L1467.07 479.53C1440.85 442.68 1425.49 397.68 1425.49 349.25L1425.49 140.44C1425.49 101.93 1441.32 66.85 1466.71 41.34C1492.22 15.83 1527.3 0 1565.8 0L1737.42 0C1775.93 0 1811 15.83 1836.52 41.34C1861.91 66.85 1877.74 101.93 1877.74 140.44L1877.74 349.26C1877.74 397.68 1862.38 442.69 1836.16 479.54L1860.73 479.54C1922.27 479.54 1978.13 504.69 2018.65 545.21C2059.16 585.72 2084.31 641.71 2084.31 703.24L2084.31 1124.67C2084.31 1171.2 2065.42 1213.37 2034.94 1243.84C2011.43 1267.46 1980.84 1284.23 1946.83 1290.61L1946.83 2055.26ZM107.02 799.74L525.01 799.74C557.02 799.74 583.13 825.72 583.13 857.73L583.13 1275.73C583.13 1307.62 557.02 1333.72 525.01 1333.72L107.02 1333.72C75.13 1333.72 49.03 1307.62 49.03 1275.73L49.03 857.73C49.03 825.84 75.13 799.74 107.02 799.74ZM107.02 1421.71L525.01 1421.71C557.02 1421.71 583.13 1447.7 583.13 1479.71L583.13 1897.7C583.13 1929.59 556.9 1955.69 525.01 1955.69L107.02 1955.69C75.25 1955.69 49.03 1929.47 49.03 1897.7L49.03 1479.71C49.03 1447.7 75.13 1421.71 107.02 1421.71ZM107.02 177.64L525.01 177.64C556.9 177.64 583.13 203.86 583.13 235.76L583.13 653.75C583.13 685.64 556.9 711.74 525.01 711.74L107.02 711.74C75.13 711.74 49.03 685.64 49.03 653.75L49.03 235.76C49.03 203.86 75.25 177.64 107.02 177.64ZM1604.07 228.78C1579.5 243.66 1538.4 261.5 1487.97 255.71L1487.97 349.26C1487.97 394.26 1506.39 435.12 1536.04 464.77C1565.68 494.53 1606.67 512.96 1651.55 512.96C1696.55 512.96 1737.42 494.53 1767.18 464.77C1796.82 435.13 1815.25 394.26 1815.25 349.26L1815.25 284.3C1764.35 292.56 1676 294.1 1604.07 228.78ZM1487.97 192.76C1523.28 199.14 1560.37 187.68 1587.18 164.29C1600.17 152.96 1619.9 154.37 1631.23 167.36C1691.83 237.06 1776.51 229.26 1815.25 220.99L1815.25 140.43C1815.25 118.94 1806.51 99.45 1792.34 85.28C1778.28 71.22 1758.91 62.48 1737.42 62.48L1565.8 62.48C1544.3 62.48 1524.93 71.22 1510.88 85.28C1496.71 99.45 1487.97 118.94 1487.97 140.43L1487.97 192.76ZM1442.49 542.02C1398.2 542.02 1357.93 560.21 1328.75 589.38C1298.52 619.73 1281.27 660.36 1281.27 703.24L1281.27 1124.54C1281.27 1152.53 1292.38 1179.82 1312.45 1199.9C1331.47 1219.03 1357.92 1230.96 1387.21 1230.96L1439.65 1230.96L1439.65 787.33C1439.65 770.09 1453.71 756.03 1470.95 756.03C1488.2 756.03 1502.13 770.09 1502.13 787.33L1502.13 1230.96L1801.07 1230.96L1801.07 787.33C1801.07 770.09 1815.01 756.03 1832.25 756.03C1849.5 756.03 1863.55 770.09 1863.55 787.33L1863.55 1230.96L1915.99 1230.96C1945.28 1230.96 1971.62 1219.03 1990.75 1199.9C2010.01 1180.76 2021.82 1154.07 2021.82 1124.66L2021.82 703.24C2021.82 658.95 2003.75 618.67 1974.45 589.38C1945.28 560.21 1905 542.02 1860.71 542.02L1769.41 542.02C1735.05 563.16 1694.77 575.44 1651.54 575.44C1608.44 575.44 1568.05 563.16 1533.68 542.02L1442.49 542.02ZM642.41 1555.18C642.41 1537.94 656.47 1523.88 673.71 1523.88L1063.59 1523.88C1080.84 1523.88 1094.78 1537.93 1094.78 1555.18C1094.78 1572.43 1080.84 1586.36 1063.59 1586.36L673.71 1586.36C656.47 1586.36 642.41 1572.42 642.41 1555.18ZM673.71 1853.4C656.47 1853.4 642.41 1839.47 642.41 1822.23C642.41 1804.98 656.47 1790.93 673.71 1790.93L936.74 1790.93C953.99 1790.93 968.04 1804.98 968.04 1822.23C968.04 1839.47 953.99 1853.4 936.74 1853.4L673.71 1853.4ZM642.41 1688.64C642.41 1671.4 656.47 1657.46 673.71 1657.46L1063.59 1657.46C1080.84 1657.46 1094.78 1671.4 1094.78 1688.64C1094.78 1705.89 1080.84 1719.94 1063.59 1719.94L673.71 1719.94C656.47 1719.94 642.41 1705.89 642.41 1688.64ZM642.41 933.2C642.41 915.96 656.47 901.9 673.71 901.9L1063.59 901.9C1080.84 901.9 1094.78 915.96 1094.78 933.2C1094.78 950.45 1080.84 964.38 1063.59 964.38L673.71 964.38C656.47 964.38 642.41 950.45 642.41 933.2ZM673.71 1231.43C656.47 1231.43 642.41 1217.49 642.41 1200.25C642.41 1183 656.47 1168.95 673.71 1168.95L936.74 1168.95C953.99 1168.95 968.04 1183 968.04 1200.25C968.04 1217.5 953.99 1231.43 936.74 1231.43L673.71 1231.43ZM642.41 1066.67C642.41 1049.42 656.47 1035.49 673.71 1035.49L1063.59 1035.49C1080.84 1035.49 1094.78 1049.43 1094.78 1066.67C1094.78 1083.91 1080.84 1097.97 1063.59 1097.97L673.71 1097.97C656.47 1097.97 642.41 1083.91 642.41 1066.67ZM642.41 311.23C642.41 293.98 656.47 279.93 673.71 279.93L1063.59 279.93C1080.84 279.93 1094.78 293.98 1094.78 311.23C1094.78 328.48 1080.84 342.41 1063.59 342.41L673.71 342.41C656.47 342.41 642.41 328.47 642.41 311.23ZM673.71 609.46C656.47 609.46 642.41 595.52 642.41 578.28C642.41 560.92 656.47 546.98 673.71 546.98L936.74 546.98C953.99 546.98 968.04 560.92 968.04 578.28C968.04 595.53 953.99 609.46 936.74 609.46L673.71 609.46ZM642.41 444.69C642.41 427.44 656.47 413.51 673.71 413.51L1063.59 413.51C1080.84 413.51 1094.78 427.45 1094.78 444.69C1094.78 461.93 1080.84 475.99 1063.59 475.99L673.71 475.99C656.47 475.99 642.41 461.93 642.41 444.69ZM520.53 1484.2L111.51 1484.2L111.51 1893.21L520.53 1893.21L520.53 1484.2ZM430.76 1609.98C442.93 1622.15 442.93 1641.99 430.76 1654.16L317.61 1767.43C305.33 1779.6 285.61 1779.6 273.44 1767.43L201.28 1695.26C189.11 1683.1 189.11 1663.26 201.28 1651.09C213.56 1638.93 233.28 1638.93 245.57 1651.09L295.53 1701.05L386.59 1609.98C398.75 1597.81 418.6 1597.81 430.76 1609.98ZM520.53 240.24L111.51 240.24L111.51 649.26L520.53 649.26L520.53 240.24ZM430.76 366.03C442.93 378.2 442.93 398.04 430.76 410.2L317.61 523.35C305.33 535.63 285.61 535.63 273.44 523.35L201.28 451.3C189.11 439.14 189.11 419.29 201.28 407.13C213.56 394.96 233.28 394.96 245.57 407.13L295.53 457.09L386.59 366.03C398.75 353.86 418.6 353.86 430.76 366.03ZM520.53 862.22L111.51 862.22L111.51 1271.24L520.53 1271.24L520.53 862.22ZM430.76 988.01C442.93 1000.17 442.93 1020.01 430.76 1032.18L317.61 1145.45C305.33 1157.61 285.61 1157.61 273.44 1145.45L201.28 1073.28C189.11 1061.12 189.11 1041.27 201.28 1029.11C213.56 1016.94 233.28 1016.94 245.57 1029.11L295.53 1079.07L386.59 988.01C398.75 975.84 418.6 975.84 430.76 988.01ZM1620.37 2070.86L1620.37 1432.7C1620.37 1415.45 1634.3 1401.52 1651.54 1401.52C1668.91 1401.52 1682.84 1415.46 1682.84 1432.7L1682.84 2070.86L1866.03 2070.86C1875.13 2069.2 1882.57 2062.47 1884.34 2053.38L1884.34 1293.45L1418.87 1293.45L1418.87 2053.38C1420.64 2062.48 1428.08 2069.2 1437.18 2070.86L1620.37 2070.86Z" />
			</g>
		</g>
		<g id="Clip-Path" clip-path="url(#cp2)">
			<g id="Layer">
				<path id="Layer" fill-rule="evenodd" class="shp1" d="M1946.83 2055.26C1946.83 2074.16 1935.14 2096.13 1921.91 2109.12C1908.56 2122.23 1886.36 2133.34 1867.46 2133.34L1435.41 2133.34C1416.63 2133.34 1394.31 2121.88 1381.32 2109.12C1367.73 2095.78 1356.4 2073.93 1356.4 2054.68L1356.4 1290.61C1322.38 1284.23 1291.79 1267.46 1268.28 1243.83C1236.4 1211.94 1219.03 1169.3 1219.03 1124.66L1219.03 703.24C1219.03 641.71 1244.07 585.72 1284.58 545.21C1325.1 504.69 1380.96 479.53 1442.5 479.53L1467.07 479.53C1440.85 442.68 1425.49 397.68 1425.49 349.25L1425.49 140.44C1425.49 101.93 1441.32 66.85 1466.71 41.34C1492.22 15.83 1527.3 0 1565.8 0L1737.42 0C1775.93 0 1811 15.83 1836.52 41.34C1861.91 66.85 1877.74 101.93 1877.74 140.44L1877.74 349.26C1877.74 397.68 1862.38 442.69 1836.16 479.54L1860.73 479.54C1922.27 479.54 1978.13 504.69 2018.65 545.21C2059.16 585.72 2084.31 641.71 2084.31 703.24L2084.31 1124.67C2084.31 1171.2 2065.42 1213.37 2034.94 1243.84C2011.43 1267.46 1980.84 1284.23 1946.83 1290.61L1946.83 2055.26ZM107.02 799.74L525.01 799.74C557.02 799.74 583.13 825.72 583.13 857.73L583.13 1275.73C583.13 1307.62 557.02 1333.72 525.01 1333.72L107.02 1333.72C75.13 1333.72 49.03 1307.62 49.03 1275.73L49.03 857.73C49.03 825.84 75.13 799.74 107.02 799.74ZM107.02 1421.71L525.01 1421.71C557.02 1421.71 583.13 1447.7 583.13 1479.71L583.13 1897.7C583.13 1929.59 556.9 1955.69 525.01 1955.69L107.02 1955.69C75.25 1955.69 49.03 1929.47 49.03 1897.7L49.03 1479.71C49.03 1447.7 75.13 1421.71 107.02 1421.71ZM107.02 177.64L525.01 177.64C556.9 177.64 583.13 203.86 583.13 235.76L583.13 653.75C583.13 685.64 556.9 711.74 525.01 711.74L107.02 711.74C75.13 711.74 49.03 685.64 49.03 653.75L49.03 235.76C49.03 203.86 75.25 177.64 107.02 177.64ZM1604.07 228.78C1579.5 243.66 1538.4 261.5 1487.97 255.71L1487.97 349.26C1487.97 394.26 1506.39 435.12 1536.04 464.77C1565.68 494.53 1606.67 512.96 1651.55 512.96C1696.55 512.96 1737.42 494.53 1767.18 464.77C1796.82 435.13 1815.25 394.26 1815.25 349.26L1815.25 284.3C1764.35 292.56 1676 294.1 1604.07 228.78ZM1487.97 192.76C1523.28 199.14 1560.37 187.68 1587.18 164.29C1600.17 152.96 1619.9 154.37 1631.23 167.36C1691.83 237.06 1776.51 229.26 1815.25 220.99L1815.25 140.43C1815.25 118.94 1806.51 99.45 1792.34 85.28C1778.28 71.22 1758.91 62.48 1737.42 62.48L1565.8 62.48C1544.3 62.48 1524.93 71.22 1510.88 85.28C1496.71 99.45 1487.97 118.94 1487.97 140.43L1487.97 192.76ZM1442.49 542.02C1398.2 542.02 1357.93 560.21 1328.75 589.38C1298.52 619.73 1281.27 660.36 1281.27 703.24L1281.27 1124.54C1281.27 1152.53 1292.38 1179.82 1312.45 1199.9C1331.47 1219.03 1357.92 1230.96 1387.21 1230.96L1439.65 1230.96L1439.65 787.33C1439.65 770.09 1453.71 756.03 1470.95 756.03C1488.2 756.03 1502.13 770.09 1502.13 787.33L1502.13 1230.96L1801.07 1230.96L1801.07 787.33C1801.07 770.09 1815.01 756.03 1832.25 756.03C1849.5 756.03 1863.55 770.09 1863.55 787.33L1863.55 1230.96L1915.99 1230.96C1945.28 1230.96 1971.62 1219.03 1990.75 1199.9C2010.01 1180.76 2021.82 1154.07 2021.82 1124.66L2021.82 703.24C2021.82 658.95 2003.75 618.67 1974.45 589.38C1945.28 560.21 1905 542.02 1860.71 542.02L1769.41 542.02C1735.05 563.16 1694.77 575.44 1651.54 575.44C1608.44 575.44 1568.05 563.16 1533.68 542.02L1442.49 542.02ZM642.41 1555.18C642.41 1537.94 656.47 1523.88 673.71 1523.88L1063.59 1523.88C1080.84 1523.88 1094.78 1537.93 1094.78 1555.18C1094.78 1572.43 1080.84 1586.36 1063.59 1586.36L673.71 1586.36C656.47 1586.36 642.41 1572.42 642.41 1555.18ZM673.71 1853.4C656.47 1853.4 642.41 1839.47 642.41 1822.23C642.41 1804.98 656.47 1790.93 673.71 1790.93L936.74 1790.93C953.99 1790.93 968.04 1804.98 968.04 1822.23C968.04 1839.47 953.99 1853.4 936.74 1853.4L673.71 1853.4ZM642.41 1688.64C642.41 1671.4 656.47 1657.46 673.71 1657.46L1063.59 1657.46C1080.84 1657.46 1094.78 1671.4 1094.78 1688.64C1094.78 1705.89 1080.84 1719.94 1063.59 1719.94L673.71 1719.94C656.47 1719.94 642.41 1705.89 642.41 1688.64ZM642.41 933.2C642.41 915.96 656.47 901.9 673.71 901.9L1063.59 901.9C1080.84 901.9 1094.78 915.96 1094.78 933.2C1094.78 950.45 1080.84 964.38 1063.59 964.38L673.71 964.38C656.47 964.38 642.41 950.45 642.41 933.2ZM673.71 1231.43C656.47 1231.43 642.41 1217.49 642.41 1200.25C642.41 1183 656.47 1168.95 673.71 1168.95L936.74 1168.95C953.99 1168.95 968.04 1183 968.04 1200.25C968.04 1217.5 953.99 1231.43 936.74 1231.43L673.71 1231.43ZM642.41 1066.67C642.41 1049.42 656.47 1035.49 673.71 1035.49L1063.59 1035.49C1080.84 1035.49 1094.78 1049.43 1094.78 1066.67C1094.78 1083.91 1080.84 1097.97 1063.59 1097.97L673.71 1097.97C656.47 1097.97 642.41 1083.91 642.41 1066.67ZM642.41 311.23C642.41 293.98 656.47 279.93 673.71 279.93L1063.59 279.93C1080.84 279.93 1094.78 293.98 1094.78 311.23C1094.78 328.48 1080.84 342.41 1063.59 342.41L673.71 342.41C656.47 342.41 642.41 328.47 642.41 311.23ZM673.71 609.46C656.47 609.46 642.41 595.52 642.41 578.28C642.41 560.92 656.47 546.98 673.71 546.98L936.74 546.98C953.99 546.98 968.04 560.92 968.04 578.28C968.04 595.53 953.99 609.46 936.74 609.46L673.71 609.46ZM642.41 444.69C642.41 427.44 656.47 413.51 673.71 413.51L1063.59 413.51C1080.84 413.51 1094.78 427.45 1094.78 444.69C1094.78 461.93 1080.84 475.99 1063.59 475.99L673.71 475.99C656.47 475.99 642.41 461.93 642.41 444.69ZM520.53 1484.2L111.51 1484.2L111.51 1893.21L520.53 1893.21L520.53 1484.2ZM430.76 1609.98C442.93 1622.15 442.93 1641.99 430.76 1654.16L317.61 1767.43C305.33 1779.6 285.61 1779.6 273.44 1767.43L201.28 1695.26C189.11 1683.1 189.11 1663.26 201.28 1651.09C213.56 1638.93 233.28 1638.93 245.57 1651.09L295.53 1701.05L386.59 1609.98C398.75 1597.81 418.6 1597.81 430.76 1609.98ZM520.53 240.24L111.51 240.24L111.51 649.26L520.53 649.26L520.53 240.24ZM430.76 366.03C442.93 378.2 442.93 398.04 430.76 410.2L317.61 523.35C305.33 535.63 285.61 535.63 273.44 523.35L201.28 451.3C189.11 439.14 189.11 419.29 201.28 407.13C213.56 394.96 233.28 394.96 245.57 407.13L295.53 457.09L386.59 366.03C398.75 353.86 418.6 353.86 430.76 366.03ZM520.53 862.22L111.51 862.22L111.51 1271.24L520.53 1271.24L520.53 862.22ZM430.76 988.01C442.93 1000.17 442.93 1020.01 430.76 1032.18L317.61 1145.45C305.33 1157.61 285.61 1157.61 273.44 1145.45L201.28 1073.28C189.11 1061.12 189.11 1041.27 201.28 1029.11C213.56 1016.94 233.28 1016.94 245.57 1029.11L295.53 1079.07L386.59 988.01C398.75 975.84 418.6 975.84 430.76 988.01ZM1620.37 2070.86L1620.37 1432.7C1620.37 1415.45 1634.3 1401.52 1651.54 1401.52C1668.91 1401.52 1682.84 1415.46 1682.84 1432.7L1682.84 2070.86L1866.03 2070.86C1875.13 2069.2 1882.57 2062.47 1884.34 2053.38L1884.34 1293.45L1418.87 1293.45L1418.87 2053.38C1420.64 2062.48 1428.08 2069.2 1437.18 2070.86L1620.37 2070.86Z" />
			</g>
		</g>
	</g>
</svg>