<svg width="141" height="1031" viewBox="0 0 141 1031" fill="none" xmlns="http://www.w3.org/2000/svg">
<circle cx="70.5" cy="94.5" r="70.5" fill="url(#paint0_linear_12_54)"/>
<circle cx="70.5" cy="94.5" r="70.5" fill="url(#paint1_linear_12_54)"/>
<circle cx="107" cy="15" r="9" fill="url(#paint2_linear_12_54)"/>
<circle cx="120" cy="28" r="4" fill="url(#paint3_linear_12_54)"/>
<circle cx="104.5" cy="2.5" r="2.5" fill="url(#paint4_linear_12_54)"/>
<circle cx="70.5" cy="349.5" r="70.5" fill="url(#paint5_linear_12_54)"/>
<circle cx="120.5" cy="277.742" r="7.5" transform="rotate(57.021 120.5 277.742)" fill="url(#paint6_linear_12_54)"/>
<circle cx="116.458" cy="262.7" r="2.5" transform="rotate(-175.204 116.458 262.7)" fill="url(#paint7_linear_12_54)"/>
<path d="M43.7898 103.259C42.8172 103.252 41.8786 103.089 40.9737 102.769C40.075 102.449 39.2687 101.929 38.5547 101.209C37.8407 100.489 37.2744 99.5346 36.8558 98.3466C36.4434 97.1586 36.2372 95.6998 36.2372 93.9702C36.2434 92.3821 36.425 90.9633 36.782 89.7138C37.1451 88.4581 37.6622 87.3932 38.3331 86.5192C39.0102 85.6451 39.8196 84.9803 40.7614 84.5249C41.7031 84.0632 42.7588 83.8324 43.9283 83.8324C45.1901 83.8324 46.3042 84.0786 47.2706 84.571C48.237 85.0573 49.0125 85.719 49.5973 86.5561C50.1882 87.3932 50.5452 88.3319 50.6683 89.3722H46.7259C46.572 88.7135 46.2488 88.1965 45.7564 87.821C45.264 87.4455 44.6546 87.2578 43.9283 87.2578C42.6972 87.2578 41.7616 87.7933 41.1214 88.8643C40.4875 89.9354 40.1643 91.3911 40.152 93.2315H40.2812C40.5644 92.6714 40.946 92.1944 41.4261 91.8004C41.9124 91.4003 42.4633 91.0956 43.0788 90.8864C43.7005 90.6709 44.3561 90.5632 45.0455 90.5632C46.1657 90.5632 47.1629 90.8279 48.0369 91.3572C48.911 91.8804 49.6004 92.6006 50.1051 93.5178C50.6098 94.4349 50.8622 95.4844 50.8622 96.6662C50.8622 97.9465 50.5637 99.0852 49.9666 100.082C49.3757 101.08 48.5478 101.861 47.483 102.428C46.4242 102.988 45.1932 103.265 43.7898 103.259ZM43.7713 100.119C44.3868 100.119 44.9377 99.9716 45.424 99.6761C45.9103 99.3807 46.2919 98.9806 46.5689 98.4759C46.8459 97.9711 46.9844 97.4048 46.9844 96.777C46.9844 96.1491 46.8459 95.5859 46.5689 95.0874C46.2981 94.5888 45.9226 94.1918 45.4425 93.8963C44.9624 93.6009 44.4145 93.4531 43.799 93.4531C43.3374 93.4531 42.9096 93.5393 42.5156 93.7116C42.1278 93.884 41.7862 94.1241 41.4908 94.4318C41.2015 94.7396 40.9737 95.0966 40.8075 95.5028C40.6413 95.9029 40.5582 96.3307 40.5582 96.7862C40.5582 97.3956 40.6967 97.9527 40.9737 98.4574C41.2569 98.9621 41.6385 99.3653 42.1186 99.6669C42.6049 99.9685 43.1558 100.119 43.7713 100.119ZM61.1108 103.415C59.5227 103.409 58.1563 103.018 57.0114 102.243C55.8726 101.467 54.9955 100.344 54.38 98.8729C53.7706 97.4018 53.469 95.6321 53.4751 93.5639C53.4751 91.5019 53.7798 89.7446 54.3892 88.2919C55.0047 86.8393 55.8819 85.7344 57.0206 84.9773C58.1655 84.214 59.5289 83.8324 61.1108 83.8324C62.6927 83.8324 64.053 84.214 65.1918 84.9773C66.3366 85.7405 67.2169 86.8485 67.8324 88.3011C68.4479 89.7476 68.7526 91.5019 68.7464 93.5639C68.7464 95.6383 68.4387 97.411 67.8232 98.8821C67.2138 100.353 66.3397 101.477 65.201 102.252C64.0623 103.028 62.6989 103.415 61.1108 103.415ZM61.1108 100.101C62.1941 100.101 63.0589 99.5561 63.7053 98.4666C64.3516 97.3771 64.6716 95.7429 64.6655 93.5639C64.6655 92.1297 64.5178 90.9356 64.2223 89.9815C63.933 89.0275 63.5206 88.3104 62.9851 87.8303C62.4557 87.3501 61.831 87.1101 61.1108 87.1101C60.0336 87.1101 59.1719 87.6487 58.5256 88.7259C57.8793 89.803 57.553 91.4157 57.5469 93.5639C57.5469 95.0166 57.6915 96.2292 57.9808 97.2017C58.2763 98.1681 58.6918 98.8944 59.2273 99.3807C59.7628 99.8608 60.3906 100.101 61.1108 100.101ZM79.0112 103.415C77.4231 103.409 76.0566 103.018 74.9118 102.243C73.773 101.467 72.8959 100.344 72.2804 98.8729C71.671 97.4018 71.3694 95.6321 71.3755 93.5639C71.3755 91.5019 71.6802 89.7446 72.2896 88.2919C72.9051 86.8393 73.7823 85.7344 74.921 84.9773C76.0659 84.214 77.4293 83.8324 79.0112 83.8324C80.5931 83.8324 81.9534 84.214 83.0922 84.9773C84.237 85.7405 85.1172 86.8485 85.7328 88.3011C86.3483 89.7476 86.653 91.5019 86.6468 93.5639C86.6468 95.6383 86.3391 97.411 85.7235 98.8821C85.1142 100.353 84.2401 101.477 83.1014 102.252C81.9627 103.028 80.5993 103.415 79.0112 103.415ZM79.0112 100.101C80.0945 100.101 80.9593 99.5561 81.6056 98.4666C82.252 97.3771 82.572 95.7429 82.5659 93.5639C82.5659 92.1297 82.4181 90.9356 82.1227 89.9815C81.8334 89.0275 81.421 88.3104 80.8855 87.8303C80.3561 87.3501 79.7314 87.1101 79.0112 87.1101C77.934 87.1101 77.0723 87.6487 76.426 88.7259C75.7797 89.803 75.4534 91.4157 75.4473 93.5639C75.4473 95.0166 75.5919 96.2292 75.8812 97.2017C76.1767 98.1681 76.5922 98.8944 77.1277 99.3807C77.6632 99.8608 78.291 100.101 79.0112 100.101ZM89.6083 103V84.0909H93.6062V92.4283H93.8555L100.66 84.0909H105.452L98.435 92.5575L105.535 103H100.752L95.5728 95.2259L93.6062 97.6264V103H89.6083Z" fill="#F2F2F2"/>
<path d="M44.7592 339.091V358H40.7614V342.886H40.6506L36.3203 345.6V342.055L41.0014 339.091H44.7592ZM56.6674 358.415C55.0794 358.409 53.7129 358.018 52.568 357.243C51.4293 356.467 50.5521 355.344 49.9366 353.873C49.3272 352.402 49.0256 350.632 49.0318 348.564C49.0318 346.502 49.3365 344.745 49.9458 343.292C50.5614 341.839 51.4385 340.734 52.5772 339.977C53.7221 339.214 55.0855 338.832 56.6674 338.832C58.2493 338.832 59.6097 339.214 60.7484 339.977C61.8933 340.741 62.7735 341.848 63.389 343.301C64.0046 344.748 64.3092 346.502 64.3031 348.564C64.3031 350.638 63.9953 352.411 63.3798 353.882C62.7704 355.353 61.8964 356.477 60.7576 357.252C59.6189 358.028 58.2555 358.415 56.6674 358.415ZM56.6674 355.101C57.7508 355.101 58.6156 354.556 59.2619 353.467C59.9082 352.377 60.2283 350.743 60.2221 348.564C60.2221 347.13 60.0744 345.936 59.7789 344.982C59.4896 344.027 59.0772 343.31 58.5417 342.83C58.0124 342.35 57.3876 342.11 56.6674 342.11C55.5903 342.11 54.7285 342.649 54.0822 343.726C53.4359 344.803 53.1097 346.416 53.1035 348.564C53.1035 350.017 53.2482 351.229 53.5375 352.202C53.8329 353.168 54.2484 353.894 54.7839 354.381C55.3194 354.861 55.9473 355.101 56.6674 355.101ZM74.5678 358.415C72.9798 358.409 71.6133 358.018 70.4684 357.243C69.3297 356.467 68.4525 355.344 67.837 353.873C67.2276 352.402 66.926 350.632 66.9322 348.564C66.9322 346.502 67.2369 344.745 67.8462 343.292C68.4618 341.839 69.3389 340.734 70.4776 339.977C71.6225 339.214 72.9859 338.832 74.5678 338.832C76.1497 338.832 77.5101 339.214 78.6488 339.977C79.7937 340.741 80.6739 341.848 81.2894 343.301C81.9049 344.748 82.2096 346.502 82.2035 348.564C82.2035 350.638 81.8957 352.411 81.2802 353.882C80.6708 355.353 79.7968 356.477 78.658 357.252C77.5193 358.028 76.1559 358.415 74.5678 358.415ZM74.5678 355.101C75.6512 355.101 76.516 354.556 77.1623 353.467C77.8086 352.377 78.1287 350.743 78.1225 348.564C78.1225 347.13 77.9748 345.936 77.6793 344.982C77.39 344.027 76.9776 343.31 76.4421 342.83C75.9128 342.35 75.288 342.11 74.5678 342.11C73.4906 342.11 72.6289 342.649 71.9826 343.726C71.3363 344.803 71.0101 346.416 71.0039 348.564C71.0039 350.017 71.1486 351.229 71.4379 352.202C71.7333 353.168 72.1488 353.894 72.6843 354.381C73.2198 354.861 73.8477 355.101 74.5678 355.101ZM85.165 358V339.091H89.1628V347.428H89.4121L96.2168 339.091H101.009L93.9917 347.558L101.092 358H96.3091L91.1294 350.226L89.1628 352.626V358H85.165Z" fill="#F2F2F2"/>
<path d="M4.34153 202V188.909H6.31667V200.3H12.2485V202H4.34153ZM18.5798 202.198C17.6125 202.198 16.7794 201.991 16.0805 201.578C15.3859 201.161 14.849 200.575 14.4697 199.82C14.0947 199.062 13.9072 198.173 13.9072 197.155C13.9072 196.149 14.0947 195.263 14.4697 194.496C14.849 193.729 15.3774 193.13 16.055 192.7C16.7368 192.269 17.5336 192.054 18.4456 192.054C18.9996 192.054 19.5365 192.146 20.0564 192.329C20.5763 192.512 21.0429 192.8 21.4562 193.192C21.8696 193.584 22.1956 194.093 22.4342 194.719C22.6729 195.342 22.7922 196.098 22.7922 196.989V197.666H14.9875V196.234H20.9193C20.9193 195.732 20.817 195.286 20.6125 194.898C20.4079 194.506 20.1203 194.197 19.7496 193.972C19.3831 193.746 18.9527 193.633 18.4584 193.633C17.9214 193.633 17.4527 193.765 17.0521 194.029C16.6558 194.289 16.349 194.63 16.1317 195.052C15.9186 195.469 15.8121 195.923 15.8121 196.413V197.532C15.8121 198.188 15.9271 198.746 16.1572 199.207C16.3916 199.667 16.7176 200.018 17.1352 200.261C17.5528 200.5 18.0407 200.619 18.599 200.619C18.9612 200.619 19.2915 200.568 19.5898 200.466C19.8881 200.359 20.1459 200.202 20.3632 199.993C20.5805 199.784 20.7467 199.526 20.8618 199.219L22.6707 199.545C22.5258 200.078 22.2659 200.545 21.8909 200.945C21.5202 201.342 21.0535 201.651 20.491 201.872C19.9328 202.089 19.2957 202.198 18.5798 202.198ZM27.77 202.217C27.1478 202.217 26.5853 202.102 26.0825 201.872C25.5796 201.638 25.1812 201.299 24.8872 200.856C24.5974 200.413 24.4525 199.869 24.4525 199.226C24.4525 198.672 24.559 198.216 24.7721 197.858C24.9852 197.5 25.2728 197.217 25.635 197.008C25.9972 196.799 26.4021 196.641 26.8495 196.535C27.297 196.428 27.7529 196.347 28.2174 196.292C28.8055 196.224 29.2828 196.168 29.6492 196.126C30.0157 196.079 30.282 196.004 30.4482 195.902C30.6144 195.8 30.6975 195.634 30.6975 195.403V195.359C30.6975 194.8 30.5399 194.368 30.2245 194.061C29.9134 193.754 29.449 193.601 28.8311 193.601C28.1876 193.601 27.6805 193.744 27.3097 194.029C26.9433 194.31 26.6897 194.624 26.5491 194.969L24.7529 194.56C24.966 193.963 25.2771 193.482 25.6862 193.115C26.0995 192.744 26.5747 192.476 27.1116 192.31C27.6485 192.139 28.2132 192.054 28.8055 192.054C29.1975 192.054 29.613 192.101 30.0519 192.195C30.4951 192.284 30.9085 192.45 31.292 192.693C31.6798 192.936 31.9972 193.283 32.2444 193.735C32.4916 194.183 32.6151 194.764 32.6151 195.48V202H30.7487V200.658H30.672C30.5484 200.905 30.363 201.148 30.1159 201.386C29.8687 201.625 29.5512 201.823 29.1634 201.981C28.7757 202.138 28.3112 202.217 27.77 202.217ZM28.1855 200.683C28.7139 200.683 29.1656 200.579 29.5406 200.37C29.9198 200.161 30.2075 199.888 30.4035 199.552C30.6038 199.211 30.7039 198.847 30.7039 198.459V197.193C30.6357 197.261 30.5036 197.325 30.3076 197.385C30.1159 197.44 29.8964 197.489 29.6492 197.532C29.4021 197.57 29.1613 197.607 28.9269 197.641C28.6926 197.67 28.4965 197.696 28.3389 197.717C27.9681 197.764 27.6294 197.843 27.3225 197.954C27.02 198.065 26.7771 198.224 26.5938 198.433C26.4149 198.638 26.3254 198.911 26.3254 199.251C26.3254 199.724 26.5001 200.082 26.8495 200.325C27.199 200.564 27.6443 200.683 28.1855 200.683ZM35.1608 202V192.182H37.0081V193.741H37.1104C37.2893 193.213 37.6047 192.798 38.0564 192.495C38.5123 192.188 39.028 192.035 39.6032 192.035C39.7226 192.035 39.8632 192.039 40.0251 192.048C40.1913 192.056 40.3213 192.067 40.415 192.08V193.908C40.3383 193.886 40.202 193.863 40.0059 193.837C39.8099 193.808 39.6139 193.793 39.4179 193.793C38.9662 193.793 38.5635 193.888 38.2098 194.08C37.8604 194.268 37.5834 194.53 37.3788 194.866C37.1743 195.199 37.072 195.578 37.072 196.004V202H35.1608ZM43.9802 196.17V202H42.069V192.182H43.9035V193.78H44.0249C44.2508 193.26 44.6045 192.842 45.086 192.527C45.5718 192.212 46.1833 192.054 46.9205 192.054C47.5896 192.054 48.1755 192.195 48.6784 192.476C49.1812 192.753 49.5711 193.166 49.8481 193.716C50.1251 194.266 50.2636 194.945 50.2636 195.755V202H48.3524V195.985C48.3524 195.273 48.167 194.717 47.7963 194.317C47.4255 193.912 46.9163 193.71 46.2686 193.71C45.8254 193.71 45.4312 193.805 45.086 193.997C44.7451 194.189 44.4745 194.47 44.2742 194.841C44.0782 195.207 43.9802 195.651 43.9802 196.17ZM57.0583 202.198C56.091 202.198 55.2579 201.991 54.559 201.578C53.8644 201.161 53.3275 200.575 52.9482 199.82C52.5732 199.062 52.3857 198.173 52.3857 197.155C52.3857 196.149 52.5732 195.263 52.9482 194.496C53.3275 193.729 53.8559 193.13 54.5335 192.7C55.2153 192.269 56.0122 192.054 56.9241 192.054C57.4781 192.054 58.015 192.146 58.5349 192.329C59.0548 192.512 59.5214 192.8 59.9347 193.192C60.3481 193.584 60.6741 194.093 60.9127 194.719C61.1514 195.342 61.2707 196.098 61.2707 196.989V197.666H53.466V196.234H59.3978C59.3978 195.732 59.2955 195.286 59.091 194.898C58.8865 194.506 58.5988 194.197 58.2281 193.972C57.8616 193.746 57.4312 193.633 56.9369 193.633C56.3999 193.633 55.9312 193.765 55.5306 194.029C55.1343 194.289 54.8275 194.63 54.6102 195.052C54.3971 195.469 54.2906 195.923 54.2906 196.413V197.532C54.2906 198.188 54.4056 198.746 54.6357 199.207C54.8701 199.667 55.1961 200.018 55.6137 200.261C56.0313 200.5 56.5193 200.619 57.0775 200.619C57.4397 200.619 57.77 200.568 58.0683 200.466C58.3666 200.359 58.6244 200.202 58.8417 199.993C59.059 199.784 59.2252 199.526 59.3403 199.219L61.1492 199.545C61.0044 200.078 60.7444 200.545 60.3694 200.945C59.9987 201.342 59.532 201.651 58.9695 201.872C58.4113 202.089 57.7742 202.198 57.0583 202.198ZM63.3912 202V192.182H65.2385V193.741H65.3408C65.5198 193.213 65.8351 192.798 66.2868 192.495C66.7428 192.188 67.2584 192.035 67.8337 192.035C67.953 192.035 68.0937 192.039 68.2556 192.048C68.4218 192.056 68.5518 192.067 68.6455 192.08V193.908C68.5688 193.886 68.4324 193.863 68.2364 193.837C68.0404 193.808 67.8444 193.793 67.6483 193.793C67.1966 193.793 66.7939 193.888 66.4403 194.08C66.0908 194.268 65.8138 194.53 65.6093 194.866C65.4047 195.199 65.3025 195.578 65.3025 196.004V202H63.3912ZM77.6567 194.579L75.9244 194.886C75.852 194.664 75.7369 194.453 75.5793 194.253C75.4259 194.053 75.2171 193.888 74.9529 193.761C74.6887 193.633 74.3584 193.569 73.9621 193.569C73.4209 193.569 72.9692 193.69 72.607 193.933C72.2448 194.172 72.0637 194.481 72.0637 194.86C72.0637 195.188 72.1851 195.452 72.428 195.653C72.6709 195.853 73.0629 196.017 73.6041 196.145L75.1638 196.503C76.0672 196.712 76.7405 197.033 77.1837 197.468C77.6269 197.903 77.8485 198.467 77.8485 199.162C77.8485 199.75 77.678 200.274 77.3371 200.734C77.0004 201.19 76.5296 201.548 75.9244 201.808C75.3236 202.068 74.6269 202.198 73.8343 202.198C72.7348 202.198 71.8378 201.964 71.1432 201.495C70.4486 201.022 70.0225 200.351 69.8648 199.482L71.7121 199.2C71.8271 199.682 72.0637 200.046 72.4216 200.293C72.7796 200.536 73.2462 200.658 73.8215 200.658C74.4479 200.658 74.9486 200.528 75.3236 200.268C75.6986 200.004 75.8861 199.682 75.8861 199.303C75.8861 198.996 75.771 198.738 75.5409 198.529C75.3151 198.32 74.9678 198.163 74.499 198.056L72.8371 197.692C71.9209 197.483 71.2433 197.151 70.8044 196.695C70.3698 196.239 70.1524 195.661 70.1524 194.962C70.1524 194.383 70.3144 193.876 70.6382 193.441C70.9621 193.006 71.4095 192.668 71.9806 192.425C72.5516 192.178 73.2057 192.054 73.9429 192.054C75.004 192.054 75.8392 192.284 76.4486 192.744C77.058 193.2 77.4607 193.812 77.6567 194.579ZM88.8492 202.198C87.9287 202.198 87.1254 201.987 86.4394 201.565C85.7533 201.143 85.2206 200.553 84.8414 199.795C84.4621 199.036 84.2725 198.15 84.2725 197.136C84.2725 196.117 84.4621 195.227 84.8414 194.464C85.2206 193.701 85.7533 193.109 86.4394 192.687C87.1254 192.265 87.9287 192.054 88.8492 192.054C89.7696 192.054 90.5729 192.265 91.259 192.687C91.945 193.109 92.4777 193.701 92.857 194.464C93.2362 195.227 93.4259 196.117 93.4259 197.136C93.4259 198.15 93.2362 199.036 92.857 199.795C92.4777 200.553 91.945 201.143 91.259 201.565C90.5729 201.987 89.7696 202.198 88.8492 202.198ZM88.8556 200.594C89.4521 200.594 89.9465 200.436 90.3385 200.121C90.7306 199.805 91.0203 199.386 91.2078 198.862C91.3996 198.337 91.4955 197.76 91.4955 197.129C91.4955 196.503 91.3996 195.928 91.2078 195.403C91.0203 194.875 90.7306 194.451 90.3385 194.131C89.9465 193.812 89.4521 193.652 88.8556 193.652C88.2547 193.652 87.7561 193.812 87.3598 194.131C86.9678 194.451 86.6759 194.875 86.4841 195.403C86.2966 195.928 86.2029 196.503 86.2029 197.129C86.2029 197.76 86.2966 198.337 86.4841 198.862C86.6759 199.386 86.9678 199.805 87.3598 200.121C87.7561 200.436 88.2547 200.594 88.8556 200.594ZM97.4704 196.17V202H95.5592V192.182H97.3937V193.78H97.5152C97.741 193.26 98.0947 192.842 98.5763 192.527C99.0621 192.212 99.6736 192.054 100.411 192.054C101.08 192.054 101.666 192.195 102.169 192.476C102.671 192.753 103.061 193.166 103.338 193.716C103.615 194.266 103.754 194.945 103.754 195.755V202H101.843V195.985C101.843 195.273 101.657 194.717 101.286 194.317C100.916 193.912 100.407 193.71 99.7588 193.71C99.3156 193.71 98.9214 193.805 98.5763 193.997C98.2354 194.189 97.9648 194.47 97.7645 194.841C97.5684 195.207 97.4704 195.651 97.4704 196.17ZM115.664 192.182V193.716H110.301V192.182H115.664ZM111.739 189.83H113.65V199.117C113.65 199.488 113.706 199.767 113.816 199.955C113.927 200.138 114.07 200.263 114.245 200.332C114.424 200.396 114.618 200.428 114.826 200.428C114.98 200.428 115.114 200.417 115.229 200.396C115.344 200.374 115.434 200.357 115.498 200.344L115.843 201.923C115.732 201.966 115.574 202.009 115.37 202.051C115.165 202.098 114.91 202.124 114.603 202.128C114.1 202.136 113.631 202.047 113.196 201.859C112.762 201.672 112.41 201.382 112.142 200.99C111.873 200.598 111.739 200.106 111.739 199.513V189.83ZM119.9 196.17V202H117.989V188.909H119.875V193.78H119.996C120.226 193.251 120.578 192.832 121.051 192.521C121.524 192.21 122.142 192.054 122.904 192.054C123.578 192.054 124.166 192.192 124.669 192.469C125.176 192.746 125.568 193.16 125.845 193.71C126.126 194.255 126.267 194.937 126.267 195.755V202H124.355V195.985C124.355 195.265 124.17 194.707 123.799 194.31C123.429 193.91 122.913 193.71 122.252 193.71C121.801 193.71 121.396 193.805 121.038 193.997C120.684 194.189 120.405 194.47 120.201 194.841C120 195.207 119.9 195.651 119.9 196.17ZM133.049 202.198C132.081 202.198 131.248 201.991 130.549 201.578C129.855 201.161 129.318 200.575 128.938 199.82C128.563 199.062 128.376 198.173 128.376 197.155C128.376 196.149 128.563 195.263 128.938 194.496C129.318 193.729 129.846 193.13 130.524 192.7C131.206 192.269 132.002 192.054 132.914 192.054C133.468 192.054 134.005 192.146 134.525 192.329C135.045 192.512 135.512 192.8 135.925 193.192C136.338 193.584 136.664 194.093 136.903 194.719C137.142 195.342 137.261 196.098 137.261 196.989V197.666H129.456V196.234H135.388C135.388 195.732 135.286 195.286 135.081 194.898C134.877 194.506 134.589 194.197 134.218 193.972C133.852 193.746 133.421 193.633 132.927 193.633C132.39 193.633 131.921 193.765 131.521 194.029C131.125 194.289 130.818 194.63 130.6 195.052C130.387 195.469 130.281 195.923 130.281 196.413V197.532C130.281 198.188 130.396 198.746 130.626 199.207C130.86 199.667 131.186 200.018 131.604 200.261C132.022 200.5 132.509 200.619 133.068 200.619C133.43 200.619 133.76 200.568 134.059 200.466C134.357 200.359 134.615 200.202 134.832 199.993C135.049 199.784 135.215 199.526 135.331 199.219L137.139 199.545C136.995 200.078 136.735 200.545 136.36 200.945C135.989 201.342 135.522 201.651 134.96 201.872C134.402 202.089 133.764 202.198 133.049 202.198ZM35.5563 227.682V214.182H37.4228V215.773H37.5826C37.6934 215.569 37.8532 215.332 38.062 215.064C38.2708 214.795 38.5605 214.561 38.9313 214.361C39.302 214.156 39.7921 214.054 40.4015 214.054C41.1941 214.054 41.9015 214.254 42.5236 214.655C43.1458 215.055 43.6337 215.633 43.9874 216.387C44.3453 217.141 44.5243 218.049 44.5243 219.11C44.5243 220.171 44.3475 221.081 43.9938 221.839C43.6401 222.594 43.1543 223.175 42.5364 223.585C41.9185 223.989 41.2132 224.192 40.4206 224.192C39.824 224.192 39.3361 224.092 38.9569 223.891C38.5819 223.691 38.2878 223.457 38.0748 223.188C37.8617 222.92 37.6976 222.681 37.5826 222.472H37.4675V227.682H35.5563ZM37.4292 219.091C37.4292 219.781 37.5293 220.386 37.7296 220.906C37.9299 221.426 38.2196 221.833 38.5989 222.127C38.9782 222.417 39.4426 222.562 39.9924 222.562C40.5634 222.562 41.0407 222.411 41.4242 222.108C41.8077 221.801 42.0975 221.386 42.2935 220.862C42.4938 220.337 42.5939 219.747 42.5939 219.091C42.5939 218.443 42.4959 217.862 42.2999 217.346C42.1081 216.83 41.8184 216.423 41.4306 216.125C41.0471 215.827 40.5676 215.678 39.9924 215.678C39.4384 215.678 38.9696 215.82 38.5861 216.106C38.2069 216.391 37.9192 216.79 37.7232 217.301C37.5272 217.812 37.4292 218.409 37.4292 219.091ZM48.5769 210.909V224H46.6657V210.909H48.5769ZM54.0053 224.217C53.3832 224.217 52.8207 224.102 52.3178 223.872C51.815 223.638 51.4165 223.299 51.1225 222.856C50.8327 222.413 50.6879 221.869 50.6879 221.226C50.6879 220.672 50.7944 220.216 51.0075 219.858C51.2205 219.5 51.5082 219.217 51.8704 219.008C52.2326 218.799 52.6374 218.641 53.0849 218.535C53.5323 218.428 53.9883 218.347 54.4528 218.292C55.0408 218.224 55.5181 218.168 55.8846 218.126C56.2511 218.079 56.5174 218.004 56.6836 217.902C56.8498 217.8 56.9329 217.634 56.9329 217.403V217.359C56.9329 216.8 56.7752 216.368 56.4599 216.061C56.1488 215.754 55.6843 215.601 55.0664 215.601C54.4229 215.601 53.9158 215.744 53.5451 216.029C53.1786 216.31 52.9251 216.624 52.7844 216.969L50.9883 216.56C51.2013 215.963 51.5124 215.482 51.9215 215.115C52.3349 214.744 52.81 214.476 53.3469 214.31C53.8839 214.139 54.4485 214.054 55.0408 214.054C55.4329 214.054 55.8484 214.101 56.2873 214.195C56.7305 214.284 57.1438 214.45 57.5273 214.693C57.9151 214.936 58.2326 215.283 58.4798 215.735C58.7269 216.183 58.8505 216.764 58.8505 217.48V224H56.984V222.658H56.9073C56.7837 222.905 56.5984 223.148 56.3512 223.386C56.104 223.625 55.7866 223.823 55.3988 223.981C55.011 224.138 54.5465 224.217 54.0053 224.217ZM54.4208 222.683C54.9492 222.683 55.4009 222.579 55.7759 222.37C56.1552 222.161 56.4428 221.888 56.6388 221.552C56.8391 221.211 56.9393 220.847 56.9393 220.459V219.193C56.8711 219.261 56.739 219.325 56.543 219.385C56.3512 219.44 56.1317 219.489 55.8846 219.532C55.6374 219.57 55.3967 219.607 55.1623 219.641C54.9279 219.67 54.7319 219.696 54.5742 219.717C54.2035 219.764 53.8647 219.843 53.5579 219.954C53.2553 220.065 53.0124 220.224 52.8292 220.433C52.6502 220.638 52.5607 220.911 52.5607 221.251C52.5607 221.724 52.7354 222.082 53.0849 222.325C53.4343 222.564 53.8796 222.683 54.4208 222.683ZM65.9792 214.182V215.716H60.6163V214.182H65.9792ZM62.0545 211.83H63.9657V221.117C63.9657 221.488 64.0211 221.767 64.1319 221.955C64.2427 222.138 64.3855 222.263 64.5602 222.332C64.7392 222.396 64.9331 222.428 65.1419 222.428C65.2953 222.428 65.4295 222.417 65.5446 222.396C65.6596 222.374 65.7491 222.357 65.813 222.344L66.1582 223.923C66.0474 223.966 65.8897 224.009 65.6852 224.051C65.4806 224.098 65.225 224.124 64.9181 224.128C64.4153 224.136 63.9466 224.047 63.5119 223.859C63.0772 223.672 62.7257 223.382 62.4572 222.99C62.1887 222.598 62.0545 222.106 62.0545 221.513V211.83ZM72.766 214.182V215.716H67.2177V214.182H72.766ZM68.739 224V213.044C68.739 212.43 68.8732 211.921 69.1417 211.516C69.4102 211.107 69.766 210.803 70.2092 210.602C70.6523 210.398 71.1339 210.295 71.6538 210.295C72.0373 210.295 72.3654 210.327 72.6381 210.391C72.9109 210.451 73.1133 210.506 73.2454 210.558L72.7979 212.104C72.7085 212.079 72.5934 212.049 72.4528 212.015C72.3121 211.977 72.1417 211.957 71.9414 211.957C71.4769 211.957 71.1445 212.072 70.9442 212.303C70.7482 212.533 70.6502 212.865 70.6502 213.3V224H68.739ZM78.4869 224.198C77.5664 224.198 76.7631 223.987 76.0771 223.565C75.391 223.143 74.8583 222.553 74.479 221.795C74.0998 221.036 73.9102 220.15 73.9102 219.136C73.9102 218.117 74.0998 217.227 74.479 216.464C74.8583 215.701 75.391 215.109 76.0771 214.687C76.7631 214.265 77.5664 214.054 78.4869 214.054C79.4073 214.054 80.2106 214.265 80.8967 214.687C81.5827 215.109 82.1154 215.701 82.4947 216.464C82.8739 217.227 83.0636 218.117 83.0636 219.136C83.0636 220.15 82.8739 221.036 82.4947 221.795C82.1154 222.553 81.5827 223.143 80.8967 223.565C80.2106 223.987 79.4073 224.198 78.4869 224.198ZM78.4933 222.594C79.0898 222.594 79.5842 222.436 79.9762 222.121C80.3683 221.805 80.658 221.386 80.8455 220.862C81.0373 220.337 81.1332 219.76 81.1332 219.129C81.1332 218.503 81.0373 217.928 80.8455 217.403C80.658 216.875 80.3683 216.451 79.9762 216.131C79.5842 215.812 79.0898 215.652 78.4933 215.652C77.8924 215.652 77.3938 215.812 76.9975 216.131C76.6055 216.451 76.3136 216.875 76.1218 217.403C75.9343 217.928 75.8406 218.503 75.8406 219.129C75.8406 219.76 75.9343 220.337 76.1218 220.862C76.3136 221.386 76.6055 221.805 76.9975 222.121C77.3938 222.436 77.8924 222.594 78.4933 222.594ZM85.1969 224V214.182H87.0442V215.741H87.1465C87.3255 215.213 87.6408 214.798 88.0925 214.495C88.5485 214.188 89.0641 214.035 89.6394 214.035C89.7587 214.035 89.8993 214.039 90.0613 214.048C90.2275 214.056 90.3574 214.067 90.4512 214.08V215.908C90.3745 215.886 90.2381 215.863 90.0421 215.837C89.8461 215.808 89.65 215.793 89.454 215.793C89.0023 215.793 88.5996 215.888 88.2459 216.08C87.8965 216.268 87.6195 216.53 87.415 216.866C87.2104 217.199 87.1081 217.578 87.1081 218.004V224H85.1969ZM92.1051 224V214.182H93.9396V215.78H94.0611C94.2656 215.239 94.6001 214.817 95.0646 214.514C95.5291 214.207 96.0852 214.054 96.733 214.054C97.3892 214.054 97.9389 214.207 98.3821 214.514C98.8295 214.821 99.1598 215.243 99.3729 215.78H99.4751C99.7095 215.256 100.082 214.838 100.594 214.527C101.105 214.212 101.714 214.054 102.422 214.054C103.312 214.054 104.039 214.333 104.602 214.891C105.168 215.45 105.452 216.291 105.452 217.416V224H103.54V217.595C103.54 216.93 103.359 216.449 102.997 216.151C102.635 215.852 102.202 215.703 101.7 215.703C101.077 215.703 100.594 215.895 100.249 216.278C99.9034 216.658 99.7308 217.146 99.7308 217.742V224H97.826V217.474C97.826 216.941 97.6598 216.513 97.3274 216.189C96.995 215.865 96.5625 215.703 96.0298 215.703C95.6676 215.703 95.3331 215.799 95.0263 215.991C94.7237 216.178 94.4787 216.44 94.2912 216.777C94.108 217.114 94.0163 217.504 94.0163 217.947V224H92.1051Z" fill="#132356"/>
<circle cx="70.5" cy="617.5" r="70.5" fill="url(#paint8_linear_12_54)"/>
<circle cx="70.5" cy="897.5" r="70.5" fill="url(#paint9_linear_12_54)"/>
<path d="M141 617.5C141 656.436 109.436 688 70.5 688C31.5639 688 0 656.436 0 617.5C0 578.564 31.5639 547 70.5 547C109.436 547 141 578.564 141 617.5Z" fill="url(#paint10_linear_12_54)"/>
<circle cx="70.5" cy="897.5" r="70.5" fill="url(#paint11_linear_12_54)"/>
<path d="M120 543.5C120 548.747 115.747 553 110.5 553C105.253 553 101 548.747 101 543.5C101 538.253 105.253 534 110.5 534C115.747 534 120 538.253 120 543.5Z" fill="url(#paint12_linear_12_54)"/>
<circle cx="110.5" cy="823.5" r="9.5" fill="url(#paint13_linear_12_54)"/>
<circle cx="123" cy="558" r="3" fill="url(#paint14_linear_12_54)"/>
<circle cx="123" cy="805" r="3" fill="url(#paint15_linear_12_54)"/>
<path d="M51.4389 626.259C50.134 626.259 48.9706 626.018 47.9489 625.538C46.9332 625.058 46.1269 624.397 45.5298 623.553C44.9328 622.71 44.6219 621.744 44.5973 620.654H48.4751C48.5182 621.387 48.826 621.981 49.3984 622.436C49.9709 622.892 50.651 623.119 51.4389 623.119C52.0668 623.119 52.6207 622.981 53.1009 622.704C53.5871 622.421 53.9657 622.03 54.2365 621.531C54.5135 621.027 54.652 620.448 54.652 619.795C54.652 619.131 54.5104 618.546 54.2273 618.041C53.9503 617.536 53.5656 617.143 53.0732 616.859C52.5807 616.576 52.0175 616.432 51.3835 616.425C50.8295 616.425 50.291 616.539 49.7678 616.767C49.2507 616.995 48.8475 617.306 48.5582 617.7L45.0036 617.062L45.8991 607.091H57.4588V610.359H49.1953L48.706 615.096H48.8168C49.1491 614.628 49.6508 614.24 50.3217 613.933C50.9927 613.625 51.7436 613.471 52.5746 613.471C53.7133 613.471 54.7289 613.739 55.6214 614.274C56.514 614.81 57.2188 615.545 57.7358 616.481C58.2528 617.41 58.5083 618.481 58.5021 619.694C58.5083 620.968 58.2128 622.101 57.6158 623.092C57.0249 624.076 56.197 624.852 55.1321 625.418C54.0734 625.978 52.8423 626.259 51.4389 626.259ZM68.7045 626.415C67.1165 626.409 65.75 626.018 64.6051 625.243C63.4664 624.467 62.5893 623.344 61.9737 621.873C61.3643 620.402 61.0627 618.632 61.0689 616.564C61.0689 614.502 61.3736 612.745 61.983 611.292C62.5985 609.839 63.4756 608.734 64.6143 607.977C65.7592 607.214 67.1226 606.832 68.7045 606.832C70.2865 606.832 71.6468 607.214 72.7855 607.977C73.9304 608.741 74.8106 609.848 75.4261 611.301C76.0417 612.748 76.3464 614.502 76.3402 616.564C76.3402 618.638 76.0324 620.411 75.4169 621.882C74.8075 623.353 73.9335 624.477 72.7947 625.252C71.656 626.028 70.2926 626.415 68.7045 626.415ZM68.7045 623.101C69.7879 623.101 70.6527 622.556 71.299 621.467C71.9453 620.377 72.2654 618.743 72.2592 616.564C72.2592 615.13 72.1115 613.936 71.8161 612.982C71.5268 612.027 71.1143 611.31 70.5788 610.83C70.0495 610.35 69.4247 610.11 68.7045 610.11C67.6274 610.11 66.7656 610.649 66.1193 611.726C65.473 612.803 65.1468 614.416 65.1406 616.564C65.1406 618.017 65.2853 619.229 65.5746 620.202C65.87 621.168 66.2855 621.894 66.821 622.381C67.3565 622.861 67.9844 623.101 68.7045 623.101ZM84.8414 623.119V610.045H88.1468V623.119H84.8414ZM79.9572 618.235V614.93H93.0311V618.235H79.9572Z" fill="#F2F2F2"/>
<path d="M52.7592 887.091V906H48.7614V890.886H48.6506L44.3203 893.6V890.055L49.0014 887.091H52.7592ZM57.2534 906V903.119L63.9842 896.887C64.5566 896.333 65.0368 895.835 65.4245 895.391C65.8185 894.948 66.117 894.514 66.3201 894.089C66.5233 893.659 66.6248 893.194 66.6248 892.695C66.6248 892.141 66.4986 891.664 66.2463 891.264C65.9939 890.858 65.6492 890.547 65.2122 890.332C64.7752 890.11 64.2797 889.999 63.7257 889.999C63.1471 889.999 62.6423 890.116 62.2115 890.35C61.7806 890.584 61.4482 890.92 61.2143 891.357C60.9804 891.794 60.8635 892.314 60.8635 892.917H57.0687C57.0687 891.68 57.3488 890.606 57.9089 889.695C58.469 888.784 59.2538 888.079 60.2633 887.58C61.2728 887.082 62.4361 886.832 63.7534 886.832C65.1075 886.832 66.2863 887.072 67.2896 887.553C68.2991 888.027 69.0839 888.685 69.644 889.528C70.2041 890.372 70.4842 891.338 70.4842 892.428C70.4842 893.142 70.3426 893.846 70.0595 894.542C69.7825 895.237 69.287 896.01 68.573 896.859C67.859 897.703 66.8526 898.715 65.5538 899.897L62.7931 902.602V902.732H70.7335V906H57.2534ZM79.2809 903.119V890.045H82.5863V903.119H79.2809ZM74.3967 898.235V894.93H87.4705V898.235H74.3967Z" fill="#F2F2F2"/>
<path d="M7.13645 725V711.909H9.11159V717.598H15.6379V711.909H17.6194V725H15.6379V719.292H9.11159V725H7.13645ZM20.3424 725V715.182H22.2536V725H20.3424ZM21.3076 713.667C20.9752 713.667 20.6897 713.556 20.4511 713.335C20.2167 713.109 20.0995 712.84 20.0995 712.529C20.0995 712.214 20.2167 711.945 20.4511 711.724C20.6897 711.498 20.9752 711.385 21.3076 711.385C21.64 711.385 21.9234 711.498 22.1578 711.724C22.3964 711.945 22.5157 712.214 22.5157 712.529C22.5157 712.84 22.3964 713.109 22.1578 713.335C21.9234 713.556 21.64 713.667 21.3076 713.667ZM24.8248 725V715.182H26.6721V716.741H26.7744C26.9534 716.213 27.2687 715.798 27.7204 715.495C28.1764 715.188 28.692 715.035 29.2673 715.035C29.3866 715.035 29.5273 715.039 29.6892 715.048C29.8554 715.056 29.9854 715.067 30.0791 715.08V716.908C30.0024 716.886 29.866 716.863 29.67 716.837C29.474 716.808 29.278 716.793 29.0819 716.793C28.6302 716.793 28.2275 716.888 27.8738 717.08C27.5244 717.268 27.2474 717.53 27.0429 717.866C26.8383 718.199 26.7361 718.578 26.7361 719.004V725H24.8248ZM31.733 725V715.182H33.6443V725H31.733ZM32.6982 713.667C32.3659 713.667 32.0803 713.556 31.8417 713.335C31.6073 713.109 31.4901 712.84 31.4901 712.529C31.4901 712.214 31.6073 711.945 31.8417 711.724C32.0803 711.498 32.3659 711.385 32.6982 711.385C33.0306 711.385 33.314 711.498 33.5484 711.724C33.787 711.945 33.9063 712.214 33.9063 712.529C33.9063 712.84 33.787 713.109 33.5484 713.335C33.314 713.556 33.0306 713.667 32.6982 713.667ZM38.1267 719.17V725H36.2155V715.182H38.05V716.78H38.1714C38.3973 716.26 38.751 715.842 39.2325 715.527C39.7183 715.212 40.3298 715.054 41.067 715.054C41.7361 715.054 42.322 715.195 42.8248 715.476C43.3277 715.753 43.7176 716.166 43.9946 716.716C44.2716 717.266 44.4101 717.945 44.4101 718.755V725H42.4988V718.985C42.4988 718.273 42.3135 717.717 41.9427 717.317C41.572 716.912 41.0628 716.71 40.415 716.71C39.9719 716.71 39.5777 716.805 39.2325 716.997C38.8916 717.189 38.621 717.47 38.4207 717.841C38.2247 718.207 38.1267 718.651 38.1267 719.17ZM51.0898 728.886C50.3099 728.886 49.6388 728.784 49.0763 728.58C48.518 728.375 48.0621 728.104 47.7084 727.768C47.3547 727.431 47.0905 727.063 46.9157 726.662L48.5585 725.984C48.6736 726.172 48.827 726.37 49.0187 726.579C49.2148 726.792 49.479 726.973 49.8113 727.122C50.148 727.271 50.5805 727.346 51.1089 727.346C51.8334 727.346 52.4321 727.169 52.9051 726.815C53.3781 726.466 53.6146 725.908 53.6146 725.141V723.21H53.4932C53.3781 723.419 53.2119 723.651 52.9946 723.907C52.7815 724.163 52.4875 724.384 52.1125 724.572C51.7375 724.759 51.2496 724.853 50.6487 724.853C49.8731 724.853 49.1743 724.672 48.5521 724.31C47.9342 723.943 47.4442 723.404 47.0819 722.692C46.724 721.977 46.545 721.097 46.545 720.053C46.545 719.009 46.7219 718.114 47.0756 717.368C47.4335 716.622 47.9236 716.051 48.5457 715.655C49.1679 715.254 49.8731 715.054 50.6615 715.054C51.2709 715.054 51.7631 715.156 52.1381 715.361C52.5131 715.561 52.805 715.795 53.0138 716.064C53.2268 716.332 53.3909 716.569 53.5059 716.773H53.6466V715.182H55.5194V725.217C55.5194 726.061 55.3234 726.754 54.9314 727.295C54.5393 727.836 54.0088 728.237 53.3398 728.496C52.675 728.756 51.925 728.886 51.0898 728.886ZM51.0706 723.268C51.6203 723.268 52.0848 723.14 52.464 722.884C52.8476 722.624 53.1373 722.254 53.3334 721.772C53.5336 721.286 53.6338 720.705 53.6338 720.027C53.6338 719.366 53.5358 718.785 53.3398 718.282C53.1437 717.779 52.8561 717.387 52.4768 717.106C52.0976 716.82 51.6288 716.678 51.0706 716.678C50.4953 716.678 50.0159 716.827 49.6324 717.125C49.2488 717.419 48.9591 717.82 48.7631 718.327C48.5713 718.834 48.4754 719.401 48.4754 720.027C48.4754 720.67 48.5734 721.235 48.7694 721.721C48.9655 722.207 49.2552 722.586 49.6388 722.859C50.0265 723.131 50.5038 723.268 51.0706 723.268ZM62.9997 725V711.909H67.6659C68.6844 711.909 69.5281 712.094 70.1972 712.465C70.8662 712.836 71.3669 713.343 71.6993 713.987C72.0317 714.626 72.1979 715.346 72.1979 716.147C72.1979 716.952 72.0296 717.677 71.6929 718.32C71.3605 718.96 70.8577 719.467 70.1844 719.842C69.5154 720.212 68.6737 720.398 67.6595 720.398H64.4507V718.723H67.4806C68.124 718.723 68.646 718.612 69.0466 718.391C69.4472 718.165 69.7412 717.858 69.9287 717.47C70.1162 717.082 70.21 716.641 70.21 716.147C70.21 715.653 70.1162 715.214 69.9287 714.83C69.7412 714.447 69.445 714.146 69.0402 713.929C68.6396 713.712 68.1112 713.603 67.455 713.603H64.9749V725H62.9997ZM77.1294 725.217C76.5072 725.217 75.9447 725.102 75.4419 724.872C74.939 724.638 74.5406 724.299 74.2465 723.856C73.9568 723.413 73.8119 722.869 73.8119 722.226C73.8119 721.672 73.9184 721.216 74.1315 720.858C74.3445 720.5 74.6322 720.217 74.9944 720.008C75.3566 719.799 75.7615 719.641 76.2089 719.535C76.6563 719.428 77.1123 719.347 77.5768 719.292C78.1649 719.224 78.6421 719.168 79.0086 719.126C79.3751 719.079 79.6414 719.004 79.8076 718.902C79.9738 718.8 80.0569 718.634 80.0569 718.403V718.359C80.0569 717.8 79.8992 717.368 79.5839 717.061C79.2728 716.754 78.8083 716.601 78.1904 716.601C77.547 716.601 77.0399 716.744 76.6691 717.029C76.3026 717.31 76.0491 717.624 75.9085 717.969L74.1123 717.56C74.3254 716.963 74.6365 716.482 75.0455 716.115C75.4589 715.744 75.934 715.476 76.471 715.31C77.0079 715.139 77.5725 715.054 78.1649 715.054C78.5569 715.054 78.9724 715.101 79.4113 715.195C79.8545 715.284 80.2678 715.45 80.6514 715.693C81.0392 715.936 81.3566 716.283 81.6038 716.735C81.8509 717.183 81.9745 717.764 81.9745 718.48V725H80.108V723.658H80.0313C79.9078 723.905 79.7224 724.148 79.4752 724.386C79.2281 724.625 78.9106 724.823 78.5228 724.981C78.135 725.138 77.6705 725.217 77.1294 725.217ZM77.5448 723.683C78.0732 723.683 78.5249 723.579 78.8999 723.37C79.2792 723.161 79.5669 722.888 79.7629 722.552C79.9632 722.211 80.0633 721.847 80.0633 721.459V720.193C79.9951 720.261 79.863 720.325 79.667 720.385C79.4752 720.44 79.2558 720.489 79.0086 720.532C78.7615 720.57 78.5207 720.607 78.2863 720.641C78.0519 720.67 77.8559 720.696 77.6982 720.717C77.3275 720.764 76.9887 720.843 76.6819 720.954C76.3794 721.065 76.1365 721.224 75.9532 721.433C75.7742 721.638 75.6847 721.911 75.6847 722.251C75.6847 722.724 75.8595 723.082 76.2089 723.325C76.5583 723.564 77.0036 723.683 77.5448 723.683ZM84.5202 725V715.182H86.3675V716.741H86.4697C86.6487 716.213 86.964 715.798 87.4157 715.495C87.8717 715.188 88.3873 715.035 88.9626 715.035C89.0819 715.035 89.2226 715.039 89.3845 715.048C89.5507 715.056 89.6807 715.067 89.7744 715.08V716.908C89.6977 716.886 89.5613 716.863 89.3653 716.837C89.1693 716.808 88.9733 716.793 88.7773 716.793C88.3256 716.793 87.9229 716.888 87.5692 717.08C87.2197 717.268 86.9427 717.53 86.7382 717.866C86.5336 718.199 86.4314 718.578 86.4314 719.004V725H84.5202ZM96.5915 715.182V716.716H91.2286V715.182H96.5915ZM92.6668 712.83H94.578V722.117C94.578 722.488 94.6334 722.767 94.7442 722.955C94.855 723.138 94.9978 723.263 95.1725 723.332C95.3515 723.396 95.5454 723.428 95.7542 723.428C95.9076 723.428 96.0418 723.417 96.1569 723.396C96.2719 723.374 96.3614 723.357 96.4253 723.344L96.7705 724.923C96.6597 724.966 96.502 725.009 96.2975 725.051C96.093 725.098 95.8373 725.124 95.5305 725.128C95.0276 725.136 94.5589 725.047 94.1242 724.859C93.6895 724.672 93.338 724.382 93.0695 723.99C92.801 723.598 92.6668 723.106 92.6668 722.513V712.83ZM100.617 719.17V725H98.7057V715.182H100.54V716.78H100.662C100.888 716.26 101.241 715.842 101.723 715.527C102.209 715.212 102.82 715.054 103.557 715.054C104.226 715.054 104.812 715.195 105.315 715.476C105.818 715.753 106.208 716.166 106.485 716.716C106.762 717.266 106.9 717.945 106.9 718.755V725H104.989V718.985C104.989 718.273 104.804 717.717 104.433 717.317C104.062 716.912 103.553 716.71 102.905 716.71C102.462 716.71 102.068 716.805 101.723 716.997C101.382 717.189 101.111 717.47 100.911 717.841C100.715 718.207 100.617 718.651 100.617 719.17ZM113.695 725.198C112.728 725.198 111.895 724.991 111.196 724.578C110.501 724.161 109.964 723.575 109.585 722.82C109.21 722.062 109.022 721.173 109.022 720.155C109.022 719.149 109.21 718.263 109.585 717.496C109.964 716.729 110.493 716.13 111.17 715.7C111.852 715.269 112.649 715.054 113.561 715.054C114.115 715.054 114.652 715.146 115.172 715.329C115.691 715.512 116.158 715.8 116.571 716.192C116.985 716.584 117.311 717.093 117.549 717.719C117.788 718.342 117.907 719.098 117.907 719.989V720.666H110.103V719.234H116.035C116.035 718.732 115.932 718.286 115.728 717.898C115.523 717.506 115.236 717.197 114.865 716.972C114.498 716.746 114.068 716.633 113.574 716.633C113.037 716.633 112.568 716.765 112.167 717.029C111.771 717.289 111.464 717.63 111.247 718.052C111.034 718.469 110.927 718.923 110.927 719.413V720.532C110.927 721.188 111.042 721.746 111.272 722.207C111.507 722.667 111.833 723.018 112.25 723.261C112.668 723.5 113.156 723.619 113.714 723.619C114.076 723.619 114.407 723.568 114.705 723.466C115.003 723.359 115.261 723.202 115.478 722.993C115.696 722.784 115.862 722.526 115.977 722.219L117.786 722.545C117.641 723.078 117.381 723.545 117.006 723.945C116.635 724.342 116.169 724.651 115.606 724.872C115.048 725.089 114.411 725.198 113.695 725.198ZM120.028 725V715.182H121.875V716.741H121.978C122.157 716.213 122.472 715.798 122.924 715.495C123.38 715.188 123.895 715.035 124.47 715.035C124.59 715.035 124.73 715.039 124.892 715.048C125.059 715.056 125.188 715.067 125.282 715.08V716.908C125.206 716.886 125.069 716.863 124.873 716.837C124.677 716.808 124.481 716.793 124.285 716.793C123.833 716.793 123.431 716.888 123.077 717.08C122.728 717.268 122.451 717.53 122.246 717.866C122.041 718.199 121.939 718.578 121.939 719.004V725H120.028ZM134.293 717.579L132.561 717.886C132.489 717.664 132.374 717.453 132.216 717.253C132.063 717.053 131.854 716.888 131.59 716.761C131.325 716.633 130.995 716.569 130.599 716.569C130.058 716.569 129.606 716.69 129.244 716.933C128.881 717.172 128.7 717.481 128.7 717.86C128.7 718.188 128.822 718.452 129.065 718.653C129.308 718.853 129.7 719.017 130.241 719.145L131.801 719.503C132.704 719.712 133.377 720.033 133.82 720.468C134.264 720.903 134.485 721.467 134.485 722.162C134.485 722.75 134.315 723.274 133.974 723.734C133.637 724.19 133.166 724.548 132.561 724.808C131.96 725.068 131.264 725.198 130.471 725.198C129.372 725.198 128.475 724.964 127.78 724.495C127.085 724.022 126.659 723.351 126.502 722.482L128.349 722.2C128.464 722.682 128.7 723.046 129.058 723.293C129.416 723.536 129.883 723.658 130.458 723.658C131.085 723.658 131.585 723.528 131.96 723.268C132.335 723.004 132.523 722.682 132.523 722.303C132.523 721.996 132.408 721.738 132.178 721.529C131.952 721.32 131.604 721.163 131.136 721.056L129.474 720.692C128.558 720.483 127.88 720.151 127.441 719.695C127.006 719.239 126.789 718.661 126.789 717.962C126.789 717.383 126.951 716.876 127.275 716.441C127.599 716.006 128.046 715.668 128.617 715.425C129.188 715.178 129.842 715.054 130.58 715.054C131.641 715.054 132.476 715.284 133.085 715.744C133.695 716.2 134.097 716.812 134.293 717.579ZM21.4155 747.217C20.7933 747.217 20.2308 747.102 19.728 746.872C19.2251 746.638 18.8267 746.299 18.5327 745.856C18.2429 745.413 18.098 744.869 18.098 744.226C18.098 743.672 18.2045 743.216 18.4176 742.858C18.6307 742.5 18.9183 742.217 19.2805 742.008C19.6428 741.799 20.0476 741.641 20.495 741.535C20.9425 741.428 21.3984 741.347 21.8629 741.292C22.451 741.224 22.9283 741.168 23.2947 741.126C23.6612 741.079 23.9276 741.004 24.0938 740.902C24.2599 740.8 24.343 740.634 24.343 740.403V740.359C24.343 739.8 24.1854 739.368 23.87 739.061C23.5589 738.754 23.0945 738.601 22.4766 738.601C21.8331 738.601 21.326 738.744 20.9553 739.029C20.5888 739.31 20.3352 739.624 20.1946 739.969L18.3984 739.56C18.6115 738.963 18.9226 738.482 19.3317 738.115C19.745 737.744 20.2202 737.476 20.7571 737.31C21.294 737.139 21.8587 737.054 22.451 737.054C22.843 737.054 23.2585 737.101 23.6974 737.195C24.1406 737.284 24.554 737.45 24.9375 737.693C25.3253 737.936 25.6428 738.283 25.8899 738.735C26.1371 739.183 26.2607 739.764 26.2607 740.48V747H24.3942V745.658H24.3175C24.1939 745.905 24.0085 746.148 23.7614 746.386C23.5142 746.625 23.1967 746.823 22.8089 746.981C22.4212 747.138 21.9567 747.217 21.4155 747.217ZM21.831 745.683C22.3594 745.683 22.8111 745.579 23.1861 745.37C23.5653 745.161 23.853 744.888 24.049 744.552C24.2493 744.211 24.3494 743.847 24.3494 743.459V742.193C24.2813 742.261 24.1491 742.325 23.9531 742.385C23.7614 742.44 23.5419 742.489 23.2947 742.532C23.0476 742.57 22.8068 742.607 22.5724 742.641C22.3381 742.67 22.142 742.696 21.9844 742.717C21.6136 742.764 21.2749 742.843 20.968 742.954C20.6655 743.065 20.4226 743.224 20.2393 743.433C20.0604 743.638 19.9709 743.911 19.9709 744.251C19.9709 744.724 20.1456 745.082 20.495 745.325C20.8445 745.564 21.2898 745.683 21.831 745.683ZM30.7175 741.17V747H28.8063V737.182H30.6408V738.78H30.7623C30.9881 738.26 31.3418 737.842 31.8233 737.527C32.3091 737.212 32.9206 737.054 33.6578 737.054C34.3269 737.054 34.9128 737.195 35.4157 737.476C35.9185 737.753 36.3084 738.166 36.5854 738.716C36.8624 739.266 37.0009 739.945 37.0009 740.755V747H35.0897V740.985C35.0897 740.273 34.9043 739.717 34.5336 739.317C34.1628 738.912 33.6536 738.71 33.0059 738.71C32.5627 738.71 32.1685 738.805 31.8233 738.997C31.4824 739.189 31.2118 739.47 31.0115 739.841C30.8155 740.207 30.7175 740.651 30.7175 741.17ZM43.2395 747.192C42.4469 747.192 41.7395 746.989 41.1174 746.585C40.4995 746.175 40.0137 745.594 39.66 744.839C39.3105 744.081 39.1358 743.171 39.1358 742.11C39.1358 741.049 39.3127 740.141 39.6664 739.387C40.0243 738.633 40.5144 738.055 41.1365 737.655C41.7587 737.254 42.464 737.054 43.2523 737.054C43.8617 737.054 44.3517 737.156 44.7225 737.361C45.0975 737.561 45.3873 737.795 45.5918 738.064C45.8006 738.332 45.9625 738.569 46.0776 738.773H46.1926V733.909H48.1039V747H46.2374V745.472H46.0776C45.9625 745.681 45.7963 745.92 45.579 746.188C45.3659 746.457 45.0719 746.691 44.6969 746.891C44.3219 747.092 43.8361 747.192 43.2395 747.192ZM43.6614 745.562C44.2111 745.562 44.6756 745.417 45.0549 745.127C45.4384 744.833 45.7282 744.426 45.9242 743.906C46.1245 743.386 46.2246 742.781 46.2246 742.091C46.2246 741.409 46.1266 740.812 45.9306 740.301C45.7346 739.79 45.4469 739.391 45.0676 739.106C44.6884 738.82 44.2196 738.678 43.6614 738.678C43.0861 738.678 42.6067 738.827 42.2232 739.125C41.8397 739.423 41.5499 739.83 41.3539 740.346C41.1621 740.862 41.0662 741.443 41.0662 742.091C41.0662 742.747 41.1642 743.337 41.3603 743.862C41.5563 744.386 41.8461 744.801 42.2296 745.108C42.6174 745.411 43.0946 745.562 43.6614 745.562ZM59.7118 750.886C58.932 750.886 58.2608 750.784 57.6983 750.58C57.1401 750.375 56.6841 750.104 56.3304 749.768C55.9767 749.431 55.7125 749.063 55.5378 748.662L57.1806 747.984C57.2956 748.172 57.449 748.37 57.6408 748.579C57.8368 748.792 58.101 748.973 58.4334 749.122C58.7701 749.271 59.2026 749.346 59.731 749.346C60.4554 749.346 61.0542 749.169 61.5272 748.815C62.0002 748.466 62.2367 747.908 62.2367 747.141V745.21H62.1152C62.0002 745.419 61.834 745.651 61.6167 745.907C61.4036 746.163 61.1096 746.384 60.7346 746.572C60.3596 746.759 59.8716 746.853 59.2708 746.853C58.4952 746.853 57.7963 746.672 57.1742 746.31C56.5563 745.943 56.0662 745.404 55.704 744.692C55.3461 743.977 55.1671 743.097 55.1671 742.053C55.1671 741.009 55.3439 740.114 55.6976 739.368C56.0556 738.622 56.5456 738.051 57.1678 737.655C57.79 737.254 58.4952 737.054 59.2836 737.054C59.8929 737.054 60.3851 737.156 60.7601 737.361C61.1351 737.561 61.427 737.795 61.6358 738.064C61.8489 738.332 62.013 738.569 62.128 738.773H62.2686V737.182H64.1415V747.217C64.1415 748.061 63.9455 748.754 63.5534 749.295C63.1614 749.836 62.6309 750.237 61.9618 750.496C61.2971 750.756 60.5471 750.886 59.7118 750.886ZM59.6926 745.268C60.2424 745.268 60.7069 745.14 61.0861 744.884C61.4696 744.624 61.7594 744.254 61.9554 743.772C62.1557 743.286 62.2559 742.705 62.2559 742.027C62.2559 741.366 62.1578 740.785 61.9618 740.282C61.7658 739.779 61.4782 739.387 61.0989 739.106C60.7196 738.82 60.2509 738.678 59.6926 738.678C59.1174 738.678 58.638 738.827 58.2544 739.125C57.8709 739.419 57.5811 739.82 57.3851 740.327C57.1934 740.834 57.0975 741.401 57.0975 742.027C57.0975 742.67 57.1955 743.235 57.3915 743.721C57.5875 744.207 57.8773 744.586 58.2608 744.859C58.6486 745.131 59.1259 745.268 59.6926 745.268ZM66.7047 747V737.182H68.552V738.741H68.6543C68.8333 738.213 69.1486 737.798 69.6003 737.495C70.0563 737.188 70.5719 737.035 71.1472 737.035C71.2665 737.035 71.4071 737.039 71.5691 737.048C71.7353 737.056 71.8652 737.067 71.959 737.08V738.908C71.8823 738.886 71.7459 738.863 71.5499 738.837C71.3539 738.808 71.1578 738.793 70.9618 738.793C70.5101 738.793 70.1074 738.888 69.7537 739.08C69.4043 739.268 69.1273 739.53 68.9228 739.866C68.7182 740.199 68.6159 740.578 68.6159 741.004V747H66.7047ZM77.397 747.198C76.4766 747.198 75.6733 746.987 74.9872 746.565C74.3011 746.143 73.7685 745.553 73.3892 744.795C73.0099 744.036 72.8203 743.15 72.8203 742.136C72.8203 741.117 73.0099 740.227 73.3892 739.464C73.7685 738.701 74.3011 738.109 74.9872 737.687C75.6733 737.265 76.4766 737.054 77.397 737.054C78.3175 737.054 79.1207 737.265 79.8068 737.687C80.4929 738.109 81.0256 738.701 81.4048 739.464C81.7841 740.227 81.9737 741.117 81.9737 742.136C81.9737 743.15 81.7841 744.036 81.4048 744.795C81.0256 745.553 80.4929 746.143 79.8068 746.565C79.1207 746.987 78.3175 747.198 77.397 747.198ZM77.4034 745.594C78 745.594 78.4943 745.436 78.8864 745.121C79.2784 744.805 79.5682 744.386 79.7557 743.862C79.9474 743.337 80.0433 742.76 80.0433 742.129C80.0433 741.503 79.9474 740.928 79.7557 740.403C79.5682 739.875 79.2784 739.451 78.8864 739.131C78.4943 738.812 78 738.652 77.4034 738.652C76.8026 738.652 76.304 738.812 75.9077 739.131C75.5156 739.451 75.2237 739.875 75.032 740.403C74.8445 740.928 74.7507 741.503 74.7507 742.129C74.7507 742.76 74.8445 743.337 75.032 743.862C75.2237 744.386 75.5156 744.805 75.9077 745.121C76.304 745.436 76.8026 745.594 77.4034 745.594ZM85.9368 747L83.0476 737.182H85.0227L86.9467 744.392H87.0426L88.973 737.182H90.9482L92.8658 744.36H92.9616L94.8729 737.182H96.848L93.9652 747H92.0156L90.0213 739.911H89.8743L87.88 747H85.9368ZM98.6618 747V737.182H100.573V747H98.6618ZM99.627 735.667C99.2946 735.667 99.0091 735.556 98.7704 735.335C98.536 735.109 98.4189 734.84 98.4189 734.529C98.4189 734.214 98.536 733.945 98.7704 733.724C99.0091 733.498 99.2946 733.385 99.627 733.385C99.9593 733.385 100.243 733.498 100.477 733.724C100.716 733.945 100.835 734.214 100.835 734.529C100.835 734.84 100.716 735.109 100.477 735.335C100.243 735.556 99.9593 735.667 99.627 735.667ZM105.055 741.17V747H103.144V737.182H104.979V738.78H105.1C105.326 738.26 105.68 737.842 106.161 737.527C106.647 737.212 107.259 737.054 107.996 737.054C108.665 737.054 109.251 737.195 109.754 737.476C110.256 737.753 110.646 738.166 110.923 738.716C111.2 739.266 111.339 739.945 111.339 740.755V747H109.428V740.985C109.428 740.273 109.242 739.717 108.871 739.317C108.501 738.912 107.991 738.71 107.344 738.71C106.901 738.71 106.506 738.805 106.161 738.997C105.82 739.189 105.55 739.47 105.349 739.841C105.153 740.207 105.055 740.651 105.055 741.17ZM118.018 750.886C117.239 750.886 116.567 750.784 116.005 750.58C115.447 750.375 114.991 750.104 114.637 749.768C114.283 749.431 114.019 749.063 113.844 748.662L115.487 747.984C115.602 748.172 115.756 748.37 115.947 748.579C116.143 748.792 116.408 748.973 116.74 749.122C117.077 749.271 117.509 749.346 118.038 749.346C118.762 749.346 119.361 749.169 119.834 748.815C120.307 748.466 120.543 747.908 120.543 747.141V745.21H120.422C120.307 745.419 120.141 745.651 119.923 745.907C119.71 746.163 119.416 746.384 119.041 746.572C118.666 746.759 118.178 746.853 117.577 746.853C116.802 746.853 116.103 746.672 115.481 746.31C114.863 745.943 114.373 745.404 114.011 744.692C113.653 743.977 113.474 743.097 113.474 742.053C113.474 741.009 113.651 740.114 114.004 739.368C114.362 738.622 114.852 738.051 115.474 737.655C116.097 737.254 116.802 737.054 117.59 737.054C118.2 737.054 118.692 737.156 119.067 737.361C119.442 737.561 119.734 737.795 119.942 738.064C120.156 738.332 120.32 738.569 120.435 738.773H120.575V737.182H122.448V747.217C122.448 748.061 122.252 748.754 121.86 749.295C121.468 749.836 120.938 750.237 120.268 750.496C119.604 750.756 118.854 750.886 118.018 750.886ZM117.999 745.268C118.549 745.268 119.013 745.14 119.393 744.884C119.776 744.624 120.066 744.254 120.262 743.772C120.462 743.286 120.562 742.705 120.562 742.027C120.562 741.366 120.464 740.785 120.268 740.282C120.072 739.779 119.785 739.387 119.406 739.106C119.026 738.82 118.558 738.678 117.999 738.678C117.424 738.678 116.945 738.827 116.561 739.125C116.178 739.419 115.888 739.82 115.692 740.327C115.5 740.834 115.404 741.401 115.404 742.027C115.404 742.67 115.502 743.235 115.698 743.721C115.894 744.207 116.184 744.586 116.567 744.859C116.955 745.131 117.433 745.268 117.999 745.268Z" fill="#132356"/>
<path d="M7.13645 1005V991.909H9.11159V997.598H15.6379V991.909H17.6194V1005H15.6379V999.292H9.11159V1005H7.13645ZM20.3424 1005V995.182H22.2536V1005H20.3424ZM21.3076 993.667C20.9752 993.667 20.6897 993.556 20.4511 993.335C20.2167 993.109 20.0995 992.84 20.0995 992.529C20.0995 992.214 20.2167 991.945 20.4511 991.724C20.6897 991.498 20.9752 991.385 21.3076 991.385C21.64 991.385 21.9234 991.498 22.1578 991.724C22.3964 991.945 22.5157 992.214 22.5157 992.529C22.5157 992.84 22.3964 993.109 22.1578 993.335C21.9234 993.556 21.64 993.667 21.3076 993.667ZM24.8248 1005V995.182H26.6721V996.741H26.7744C26.9534 996.213 27.2687 995.798 27.7204 995.495C28.1764 995.188 28.692 995.035 29.2673 995.035C29.3866 995.035 29.5273 995.039 29.6892 995.048C29.8554 995.056 29.9854 995.067 30.0791 995.08V996.908C30.0024 996.886 29.866 996.863 29.67 996.837C29.474 996.808 29.278 996.793 29.0819 996.793C28.6302 996.793 28.2275 996.888 27.8738 997.08C27.5244 997.268 27.2474 997.53 27.0429 997.866C26.8383 998.199 26.7361 998.578 26.7361 999.004V1005H24.8248ZM31.733 1005V995.182H33.6443V1005H31.733ZM32.6982 993.667C32.3659 993.667 32.0803 993.556 31.8417 993.335C31.6073 993.109 31.4901 992.84 31.4901 992.529C31.4901 992.214 31.6073 991.945 31.8417 991.724C32.0803 991.498 32.3659 991.385 32.6982 991.385C33.0306 991.385 33.314 991.498 33.5484 991.724C33.787 991.945 33.9063 992.214 33.9063 992.529C33.9063 992.84 33.787 993.109 33.5484 993.335C33.314 993.556 33.0306 993.667 32.6982 993.667ZM38.1267 999.17V1005H36.2155V995.182H38.05V996.78H38.1714C38.3973 996.26 38.751 995.842 39.2325 995.527C39.7183 995.212 40.3298 995.054 41.067 995.054C41.7361 995.054 42.322 995.195 42.8248 995.476C43.3277 995.753 43.7176 996.166 43.9946 996.716C44.2716 997.266 44.4101 997.945 44.4101 998.755V1005H42.4988V998.985C42.4988 998.273 42.3135 997.717 41.9427 997.317C41.572 996.912 41.0628 996.71 40.415 996.71C39.9719 996.71 39.5777 996.805 39.2325 996.997C38.8916 997.189 38.621 997.47 38.4207 997.841C38.2247 998.207 38.1267 998.651 38.1267 999.17ZM51.0898 1008.89C50.3099 1008.89 49.6388 1008.78 49.0763 1008.58C48.518 1008.38 48.0621 1008.1 47.7084 1007.77C47.3547 1007.43 47.0905 1007.06 46.9157 1006.66L48.5585 1005.98C48.6736 1006.17 48.827 1006.37 49.0187 1006.58C49.2148 1006.79 49.479 1006.97 49.8113 1007.12C50.148 1007.27 50.5805 1007.35 51.1089 1007.35C51.8334 1007.35 52.4321 1007.17 52.9051 1006.82C53.3781 1006.47 53.6146 1005.91 53.6146 1005.14V1003.21H53.4932C53.3781 1003.42 53.2119 1003.65 52.9946 1003.91C52.7815 1004.16 52.4875 1004.38 52.1125 1004.57C51.7375 1004.76 51.2496 1004.85 50.6487 1004.85C49.8731 1004.85 49.1743 1004.67 48.5521 1004.31C47.9342 1003.94 47.4442 1003.4 47.0819 1002.69C46.724 1001.98 46.545 1001.1 46.545 1000.05C46.545 999.009 46.7219 998.114 47.0756 997.368C47.4335 996.622 47.9236 996.051 48.5457 995.655C49.1679 995.254 49.8731 995.054 50.6615 995.054C51.2709 995.054 51.7631 995.156 52.1381 995.361C52.5131 995.561 52.805 995.795 53.0138 996.064C53.2268 996.332 53.3909 996.569 53.5059 996.773H53.6466V995.182H55.5194V1005.22C55.5194 1006.06 55.3234 1006.75 54.9314 1007.29C54.5393 1007.84 54.0088 1008.24 53.3398 1008.5C52.675 1008.76 51.925 1008.89 51.0898 1008.89ZM51.0706 1003.27C51.6203 1003.27 52.0848 1003.14 52.464 1002.88C52.8476 1002.62 53.1373 1002.25 53.3334 1001.77C53.5336 1001.29 53.6338 1000.7 53.6338 1000.03C53.6338 999.366 53.5358 998.785 53.3398 998.282C53.1437 997.779 52.8561 997.387 52.4768 997.106C52.0976 996.82 51.6288 996.678 51.0706 996.678C50.4953 996.678 50.0159 996.827 49.6324 997.125C49.2488 997.419 48.9591 997.82 48.7631 998.327C48.5713 998.834 48.4754 999.401 48.4754 1000.03C48.4754 1000.67 48.5734 1001.24 48.7694 1001.72C48.9655 1002.21 49.2552 1002.59 49.6388 1002.86C50.0265 1003.13 50.5038 1003.27 51.0706 1003.27ZM62.9997 1005V991.909H67.6659C68.6844 991.909 69.5281 992.094 70.1972 992.465C70.8662 992.836 71.3669 993.343 71.6993 993.987C72.0317 994.626 72.1979 995.346 72.1979 996.147C72.1979 996.952 72.0296 997.677 71.6929 998.32C71.3605 998.96 70.8577 999.467 70.1844 999.842C69.5154 1000.21 68.6737 1000.4 67.6595 1000.4H64.4507V998.723H67.4806C68.124 998.723 68.646 998.612 69.0466 998.391C69.4472 998.165 69.7412 997.858 69.9287 997.47C70.1162 997.082 70.21 996.641 70.21 996.147C70.21 995.653 70.1162 995.214 69.9287 994.83C69.7412 994.447 69.445 994.146 69.0402 993.929C68.6396 993.712 68.1112 993.603 67.455 993.603H64.9749V1005H62.9997ZM77.1294 1005.22C76.5072 1005.22 75.9447 1005.1 75.4419 1004.87C74.939 1004.64 74.5406 1004.3 74.2465 1003.86C73.9568 1003.41 73.8119 1002.87 73.8119 1002.23C73.8119 1001.67 73.9184 1001.22 74.1315 1000.86C74.3445 1000.5 74.6322 1000.22 74.9944 1000.01C75.3566 999.799 75.7615 999.641 76.2089 999.535C76.6563 999.428 77.1123 999.347 77.5768 999.292C78.1649 999.224 78.6421 999.168 79.0086 999.126C79.3751 999.079 79.6414 999.004 79.8076 998.902C79.9738 998.8 80.0569 998.634 80.0569 998.403V998.359C80.0569 997.8 79.8992 997.368 79.5839 997.061C79.2728 996.754 78.8083 996.601 78.1904 996.601C77.547 996.601 77.0399 996.744 76.6691 997.029C76.3026 997.31 76.0491 997.624 75.9085 997.969L74.1123 997.56C74.3254 996.963 74.6365 996.482 75.0455 996.115C75.4589 995.744 75.934 995.476 76.471 995.31C77.0079 995.139 77.5725 995.054 78.1649 995.054C78.5569 995.054 78.9724 995.101 79.4113 995.195C79.8545 995.284 80.2678 995.45 80.6514 995.693C81.0392 995.936 81.3566 996.283 81.6038 996.735C81.8509 997.183 81.9745 997.764 81.9745 998.48V1005H80.108V1003.66H80.0313C79.9078 1003.9 79.7224 1004.15 79.4752 1004.39C79.2281 1004.62 78.9106 1004.82 78.5228 1004.98C78.135 1005.14 77.6705 1005.22 77.1294 1005.22ZM77.5448 1003.68C78.0732 1003.68 78.5249 1003.58 78.8999 1003.37C79.2792 1003.16 79.5669 1002.89 79.7629 1002.55C79.9632 1002.21 80.0633 1001.85 80.0633 1001.46V1000.19C79.9951 1000.26 79.863 1000.33 79.667 1000.38C79.4752 1000.44 79.2558 1000.49 79.0086 1000.53C78.7615 1000.57 78.5207 1000.61 78.2863 1000.64C78.0519 1000.67 77.8559 1000.7 77.6982 1000.72C77.3275 1000.76 76.9887 1000.84 76.6819 1000.95C76.3794 1001.06 76.1365 1001.22 75.9532 1001.43C75.7742 1001.64 75.6847 1001.91 75.6847 1002.25C75.6847 1002.72 75.8595 1003.08 76.2089 1003.33C76.5583 1003.56 77.0036 1003.68 77.5448 1003.68ZM84.5202 1005V995.182H86.3675V996.741H86.4697C86.6487 996.213 86.964 995.798 87.4157 995.495C87.8717 995.188 88.3873 995.035 88.9626 995.035C89.0819 995.035 89.2226 995.039 89.3845 995.048C89.5507 995.056 89.6807 995.067 89.7744 995.08V996.908C89.6977 996.886 89.5613 996.863 89.3653 996.837C89.1693 996.808 88.9733 996.793 88.7773 996.793C88.3256 996.793 87.9229 996.888 87.5692 997.08C87.2197 997.268 86.9427 997.53 86.7382 997.866C86.5336 998.199 86.4314 998.578 86.4314 999.004V1005H84.5202ZM96.5915 995.182V996.716H91.2286V995.182H96.5915ZM92.6668 992.83H94.578V1002.12C94.578 1002.49 94.6334 1002.77 94.7442 1002.95C94.855 1003.14 94.9978 1003.26 95.1725 1003.33C95.3515 1003.4 95.5454 1003.43 95.7542 1003.43C95.9076 1003.43 96.0418 1003.42 96.1569 1003.4C96.2719 1003.37 96.3614 1003.36 96.4253 1003.34L96.7705 1004.92C96.6597 1004.97 96.502 1005.01 96.2975 1005.05C96.093 1005.1 95.8373 1005.12 95.5305 1005.13C95.0276 1005.14 94.5589 1005.05 94.1242 1004.86C93.6895 1004.67 93.338 1004.38 93.0695 1003.99C92.801 1003.6 92.6668 1003.11 92.6668 1002.51V992.83ZM100.617 999.17V1005H98.7057V995.182H100.54V996.78H100.662C100.888 996.26 101.241 995.842 101.723 995.527C102.209 995.212 102.82 995.054 103.557 995.054C104.226 995.054 104.812 995.195 105.315 995.476C105.818 995.753 106.208 996.166 106.485 996.716C106.762 997.266 106.9 997.945 106.9 998.755V1005H104.989V998.985C104.989 998.273 104.804 997.717 104.433 997.317C104.062 996.912 103.553 996.71 102.905 996.71C102.462 996.71 102.068 996.805 101.723 996.997C101.382 997.189 101.111 997.47 100.911 997.841C100.715 998.207 100.617 998.651 100.617 999.17ZM113.695 1005.2C112.728 1005.2 111.895 1004.99 111.196 1004.58C110.501 1004.16 109.964 1003.57 109.585 1002.82C109.21 1002.06 109.022 1001.17 109.022 1000.15C109.022 999.149 109.21 998.263 109.585 997.496C109.964 996.729 110.493 996.13 111.17 995.7C111.852 995.269 112.649 995.054 113.561 995.054C114.115 995.054 114.652 995.146 115.172 995.329C115.691 995.512 116.158 995.8 116.571 996.192C116.985 996.584 117.311 997.093 117.549 997.719C117.788 998.342 117.907 999.098 117.907 999.989V1000.67H110.103V999.234H116.035C116.035 998.732 115.932 998.286 115.728 997.898C115.523 997.506 115.236 997.197 114.865 996.972C114.498 996.746 114.068 996.633 113.574 996.633C113.037 996.633 112.568 996.765 112.167 997.029C111.771 997.289 111.464 997.63 111.247 998.052C111.034 998.469 110.927 998.923 110.927 999.413V1000.53C110.927 1001.19 111.042 1001.75 111.272 1002.21C111.507 1002.67 111.833 1003.02 112.25 1003.26C112.668 1003.5 113.156 1003.62 113.714 1003.62C114.076 1003.62 114.407 1003.57 114.705 1003.47C115.003 1003.36 115.261 1003.2 115.478 1002.99C115.696 1002.78 115.862 1002.53 115.977 1002.22L117.786 1002.55C117.641 1003.08 117.381 1003.54 117.006 1003.95C116.635 1004.34 116.169 1004.65 115.606 1004.87C115.048 1005.09 114.411 1005.2 113.695 1005.2ZM120.028 1005V995.182H121.875V996.741H121.978C122.157 996.213 122.472 995.798 122.924 995.495C123.38 995.188 123.895 995.035 124.47 995.035C124.59 995.035 124.73 995.039 124.892 995.048C125.059 995.056 125.188 995.067 125.282 995.08V996.908C125.206 996.886 125.069 996.863 124.873 996.837C124.677 996.808 124.481 996.793 124.285 996.793C123.833 996.793 123.431 996.888 123.077 997.08C122.728 997.268 122.451 997.53 122.246 997.866C122.041 998.199 121.939 998.578 121.939 999.004V1005H120.028ZM134.293 997.579L132.561 997.886C132.489 997.664 132.374 997.453 132.216 997.253C132.063 997.053 131.854 996.888 131.59 996.761C131.325 996.633 130.995 996.569 130.599 996.569C130.058 996.569 129.606 996.69 129.244 996.933C128.881 997.172 128.7 997.481 128.7 997.86C128.7 998.188 128.822 998.452 129.065 998.653C129.308 998.853 129.7 999.017 130.241 999.145L131.801 999.503C132.704 999.712 133.377 1000.03 133.82 1000.47C134.264 1000.9 134.485 1001.47 134.485 1002.16C134.485 1002.75 134.315 1003.27 133.974 1003.73C133.637 1004.19 133.166 1004.55 132.561 1004.81C131.96 1005.07 131.264 1005.2 130.471 1005.2C129.372 1005.2 128.475 1004.96 127.78 1004.5C127.085 1004.02 126.659 1003.35 126.502 1002.48L128.349 1002.2C128.464 1002.68 128.7 1003.05 129.058 1003.29C129.416 1003.54 129.883 1003.66 130.458 1003.66C131.085 1003.66 131.585 1003.53 131.96 1003.27C132.335 1003 132.523 1002.68 132.523 1002.3C132.523 1002 132.408 1001.74 132.178 1001.53C131.952 1001.32 131.604 1001.16 131.136 1001.06L129.474 1000.69C128.558 1000.48 127.88 1000.15 127.441 999.695C127.006 999.239 126.789 998.661 126.789 997.962C126.789 997.383 126.951 996.876 127.275 996.441C127.599 996.006 128.046 995.668 128.617 995.425C129.188 995.178 129.842 995.054 130.58 995.054C131.641 995.054 132.476 995.284 133.085 995.744C133.695 996.2 134.097 996.812 134.293 997.579ZM21.4155 1027.22C20.7933 1027.22 20.2308 1027.1 19.728 1026.87C19.2251 1026.64 18.8267 1026.3 18.5327 1025.86C18.2429 1025.41 18.098 1024.87 18.098 1024.23C18.098 1023.67 18.2045 1023.22 18.4176 1022.86C18.6307 1022.5 18.9183 1022.22 19.2805 1022.01C19.6428 1021.8 20.0476 1021.64 20.495 1021.53C20.9425 1021.43 21.3984 1021.35 21.8629 1021.29C22.451 1021.22 22.9283 1021.17 23.2947 1021.13C23.6612 1021.08 23.9276 1021 24.0938 1020.9C24.2599 1020.8 24.343 1020.63 24.343 1020.4V1020.36C24.343 1019.8 24.1854 1019.37 23.87 1019.06C23.5589 1018.75 23.0945 1018.6 22.4766 1018.6C21.8331 1018.6 21.326 1018.74 20.9553 1019.03C20.5888 1019.31 20.3352 1019.62 20.1946 1019.97L18.3984 1019.56C18.6115 1018.96 18.9226 1018.48 19.3317 1018.12C19.745 1017.74 20.2202 1017.48 20.7571 1017.31C21.294 1017.14 21.8587 1017.05 22.451 1017.05C22.843 1017.05 23.2585 1017.1 23.6974 1017.19C24.1406 1017.28 24.554 1017.45 24.9375 1017.69C25.3253 1017.94 25.6428 1018.28 25.8899 1018.74C26.1371 1019.18 26.2607 1019.76 26.2607 1020.48V1027H24.3942V1025.66H24.3175C24.1939 1025.9 24.0085 1026.15 23.7614 1026.39C23.5142 1026.62 23.1967 1026.82 22.8089 1026.98C22.4212 1027.14 21.9567 1027.22 21.4155 1027.22ZM21.831 1025.68C22.3594 1025.68 22.8111 1025.58 23.1861 1025.37C23.5653 1025.16 23.853 1024.89 24.049 1024.55C24.2493 1024.21 24.3494 1023.85 24.3494 1023.46V1022.19C24.2813 1022.26 24.1491 1022.33 23.9531 1022.38C23.7614 1022.44 23.5419 1022.49 23.2947 1022.53C23.0476 1022.57 22.8068 1022.61 22.5724 1022.64C22.3381 1022.67 22.142 1022.7 21.9844 1022.72C21.6136 1022.76 21.2749 1022.84 20.968 1022.95C20.6655 1023.06 20.4226 1023.22 20.2393 1023.43C20.0604 1023.64 19.9709 1023.91 19.9709 1024.25C19.9709 1024.72 20.1456 1025.08 20.495 1025.33C20.8445 1025.56 21.2898 1025.68 21.831 1025.68ZM30.7175 1021.17V1027H28.8063V1017.18H30.6408V1018.78H30.7623C30.9881 1018.26 31.3418 1017.84 31.8233 1017.53C32.3091 1017.21 32.9206 1017.05 33.6578 1017.05C34.3269 1017.05 34.9128 1017.19 35.4157 1017.48C35.9185 1017.75 36.3084 1018.17 36.5854 1018.72C36.8624 1019.27 37.0009 1019.95 37.0009 1020.75V1027H35.0897V1020.99C35.0897 1020.27 34.9043 1019.72 34.5336 1019.32C34.1628 1018.91 33.6536 1018.71 33.0059 1018.71C32.5627 1018.71 32.1685 1018.81 31.8233 1019C31.4824 1019.19 31.2118 1019.47 31.0115 1019.84C30.8155 1020.21 30.7175 1020.65 30.7175 1021.17ZM43.2395 1027.19C42.4469 1027.19 41.7395 1026.99 41.1174 1026.58C40.4995 1026.18 40.0137 1025.59 39.66 1024.84C39.3105 1024.08 39.1358 1023.17 39.1358 1022.11C39.1358 1021.05 39.3127 1020.14 39.6664 1019.39C40.0243 1018.63 40.5144 1018.06 41.1365 1017.65C41.7587 1017.25 42.464 1017.05 43.2523 1017.05C43.8617 1017.05 44.3517 1017.16 44.7225 1017.36C45.0975 1017.56 45.3873 1017.8 45.5918 1018.06C45.8006 1018.33 45.9625 1018.57 46.0776 1018.77H46.1926V1013.91H48.1039V1027H46.2374V1025.47H46.0776C45.9625 1025.68 45.7963 1025.92 45.579 1026.19C45.3659 1026.46 45.0719 1026.69 44.6969 1026.89C44.3219 1027.09 43.8361 1027.19 43.2395 1027.19ZM43.6614 1025.56C44.2111 1025.56 44.6756 1025.42 45.0549 1025.13C45.4384 1024.83 45.7282 1024.43 45.9242 1023.91C46.1245 1023.39 46.2246 1022.78 46.2246 1022.09C46.2246 1021.41 46.1266 1020.81 45.9306 1020.3C45.7346 1019.79 45.4469 1019.39 45.0676 1019.11C44.6884 1018.82 44.2196 1018.68 43.6614 1018.68C43.0861 1018.68 42.6067 1018.83 42.2232 1019.12C41.8397 1019.42 41.5499 1019.83 41.3539 1020.35C41.1621 1020.86 41.0662 1021.44 41.0662 1022.09C41.0662 1022.75 41.1642 1023.34 41.3603 1023.86C41.5563 1024.39 41.8461 1024.8 42.2296 1025.11C42.6174 1025.41 43.0946 1025.56 43.6614 1025.56ZM59.7118 1030.89C58.932 1030.89 58.2608 1030.78 57.6983 1030.58C57.1401 1030.38 56.6841 1030.1 56.3304 1029.77C55.9767 1029.43 55.7125 1029.06 55.5378 1028.66L57.1806 1027.98C57.2956 1028.17 57.449 1028.37 57.6408 1028.58C57.8368 1028.79 58.101 1028.97 58.4334 1029.12C58.7701 1029.27 59.2026 1029.35 59.731 1029.35C60.4554 1029.35 61.0542 1029.17 61.5272 1028.82C62.0002 1028.47 62.2367 1027.91 62.2367 1027.14V1025.21H62.1152C62.0002 1025.42 61.834 1025.65 61.6167 1025.91C61.4036 1026.16 61.1096 1026.38 60.7346 1026.57C60.3596 1026.76 59.8716 1026.85 59.2708 1026.85C58.4952 1026.85 57.7963 1026.67 57.1742 1026.31C56.5563 1025.94 56.0662 1025.4 55.704 1024.69C55.3461 1023.98 55.1671 1023.1 55.1671 1022.05C55.1671 1021.01 55.3439 1020.11 55.6976 1019.37C56.0556 1018.62 56.5456 1018.05 57.1678 1017.65C57.79 1017.25 58.4952 1017.05 59.2836 1017.05C59.8929 1017.05 60.3851 1017.16 60.7601 1017.36C61.1351 1017.56 61.427 1017.8 61.6358 1018.06C61.8489 1018.33 62.013 1018.57 62.128 1018.77H62.2686V1017.18H64.1415V1027.22C64.1415 1028.06 63.9455 1028.75 63.5534 1029.29C63.1614 1029.84 62.6309 1030.24 61.9618 1030.5C61.2971 1030.76 60.5471 1030.89 59.7118 1030.89ZM59.6926 1025.27C60.2424 1025.27 60.7069 1025.14 61.0861 1024.88C61.4696 1024.62 61.7594 1024.25 61.9554 1023.77C62.1557 1023.29 62.2559 1022.7 62.2559 1022.03C62.2559 1021.37 62.1578 1020.78 61.9618 1020.28C61.7658 1019.78 61.4782 1019.39 61.0989 1019.11C60.7196 1018.82 60.2509 1018.68 59.6926 1018.68C59.1174 1018.68 58.638 1018.83 58.2544 1019.12C57.8709 1019.42 57.5811 1019.82 57.3851 1020.33C57.1934 1020.83 57.0975 1021.4 57.0975 1022.03C57.0975 1022.67 57.1955 1023.24 57.3915 1023.72C57.5875 1024.21 57.8773 1024.59 58.2608 1024.86C58.6486 1025.13 59.1259 1025.27 59.6926 1025.27ZM66.7047 1027V1017.18H68.552V1018.74H68.6543C68.8333 1018.21 69.1486 1017.8 69.6003 1017.5C70.0563 1017.19 70.5719 1017.03 71.1472 1017.03C71.2665 1017.03 71.4071 1017.04 71.5691 1017.05C71.7353 1017.06 71.8652 1017.07 71.959 1017.08V1018.91C71.8823 1018.89 71.7459 1018.86 71.5499 1018.84C71.3539 1018.81 71.1578 1018.79 70.9618 1018.79C70.5101 1018.79 70.1074 1018.89 69.7537 1019.08C69.4043 1019.27 69.1273 1019.53 68.9228 1019.87C68.7182 1020.2 68.6159 1020.58 68.6159 1021V1027H66.7047ZM77.397 1027.2C76.4766 1027.2 75.6733 1026.99 74.9872 1026.57C74.3011 1026.14 73.7685 1025.55 73.3892 1024.79C73.0099 1024.04 72.8203 1023.15 72.8203 1022.14C72.8203 1021.12 73.0099 1020.23 73.3892 1019.46C73.7685 1018.7 74.3011 1018.11 74.9872 1017.69C75.6733 1017.26 76.4766 1017.05 77.397 1017.05C78.3175 1017.05 79.1207 1017.26 79.8068 1017.69C80.4929 1018.11 81.0256 1018.7 81.4048 1019.46C81.7841 1020.23 81.9737 1021.12 81.9737 1022.14C81.9737 1023.15 81.7841 1024.04 81.4048 1024.79C81.0256 1025.55 80.4929 1026.14 79.8068 1026.57C79.1207 1026.99 78.3175 1027.2 77.397 1027.2ZM77.4034 1025.59C78 1025.59 78.4943 1025.44 78.8864 1025.12C79.2784 1024.81 79.5682 1024.39 79.7557 1023.86C79.9474 1023.34 80.0433 1022.76 80.0433 1022.13C80.0433 1021.5 79.9474 1020.93 79.7557 1020.4C79.5682 1019.87 79.2784 1019.45 78.8864 1019.13C78.4943 1018.81 78 1018.65 77.4034 1018.65C76.8026 1018.65 76.304 1018.81 75.9077 1019.13C75.5156 1019.45 75.2237 1019.87 75.032 1020.4C74.8445 1020.93 74.7507 1021.5 74.7507 1022.13C74.7507 1022.76 74.8445 1023.34 75.032 1023.86C75.2237 1024.39 75.5156 1024.81 75.9077 1025.12C76.304 1025.44 76.8026 1025.59 77.4034 1025.59ZM85.9368 1027L83.0476 1017.18H85.0227L86.9467 1024.39H87.0426L88.973 1017.18H90.9482L92.8658 1024.36H92.9616L94.8729 1017.18H96.848L93.9652 1027H92.0156L90.0213 1019.91H89.8743L87.88 1027H85.9368ZM98.6618 1027V1017.18H100.573V1027H98.6618ZM99.627 1015.67C99.2946 1015.67 99.0091 1015.56 98.7704 1015.33C98.536 1015.11 98.4189 1014.84 98.4189 1014.53C98.4189 1014.21 98.536 1013.95 98.7704 1013.72C99.0091 1013.5 99.2946 1013.38 99.627 1013.38C99.9593 1013.38 100.243 1013.5 100.477 1013.72C100.716 1013.95 100.835 1014.21 100.835 1014.53C100.835 1014.84 100.716 1015.11 100.477 1015.33C100.243 1015.56 99.9593 1015.67 99.627 1015.67ZM105.055 1021.17V1027H103.144V1017.18H104.979V1018.78H105.1C105.326 1018.26 105.68 1017.84 106.161 1017.53C106.647 1017.21 107.259 1017.05 107.996 1017.05C108.665 1017.05 109.251 1017.19 109.754 1017.48C110.256 1017.75 110.646 1018.17 110.923 1018.72C111.2 1019.27 111.339 1019.95 111.339 1020.75V1027H109.428V1020.99C109.428 1020.27 109.242 1019.72 108.871 1019.32C108.501 1018.91 107.991 1018.71 107.344 1018.71C106.901 1018.71 106.506 1018.81 106.161 1019C105.82 1019.19 105.55 1019.47 105.349 1019.84C105.153 1020.21 105.055 1020.65 105.055 1021.17ZM118.018 1030.89C117.239 1030.89 116.567 1030.78 116.005 1030.58C115.447 1030.38 114.991 1030.1 114.637 1029.77C114.283 1029.43 114.019 1029.06 113.844 1028.66L115.487 1027.98C115.602 1028.17 115.756 1028.37 115.947 1028.58C116.143 1028.79 116.408 1028.97 116.74 1029.12C117.077 1029.27 117.509 1029.35 118.038 1029.35C118.762 1029.35 119.361 1029.17 119.834 1028.82C120.307 1028.47 120.543 1027.91 120.543 1027.14V1025.21H120.422C120.307 1025.42 120.141 1025.65 119.923 1025.91C119.71 1026.16 119.416 1026.38 119.041 1026.57C118.666 1026.76 118.178 1026.85 117.577 1026.85C116.802 1026.85 116.103 1026.67 115.481 1026.31C114.863 1025.94 114.373 1025.4 114.011 1024.69C113.653 1023.98 113.474 1023.1 113.474 1022.05C113.474 1021.01 113.651 1020.11 114.004 1019.37C114.362 1018.62 114.852 1018.05 115.474 1017.65C116.097 1017.25 116.802 1017.05 117.59 1017.05C118.2 1017.05 118.692 1017.16 119.067 1017.36C119.442 1017.56 119.734 1017.8 119.942 1018.06C120.156 1018.33 120.32 1018.57 120.435 1018.77H120.575V1017.18H122.448V1027.22C122.448 1028.06 122.252 1028.75 121.86 1029.29C121.468 1029.84 120.938 1030.24 120.268 1030.5C119.604 1030.76 118.854 1030.89 118.018 1030.89ZM117.999 1025.27C118.549 1025.27 119.013 1025.14 119.393 1024.88C119.776 1024.62 120.066 1024.25 120.262 1023.77C120.462 1023.29 120.562 1022.7 120.562 1022.03C120.562 1021.37 120.464 1020.78 120.268 1020.28C120.072 1019.78 119.785 1019.39 119.406 1019.11C119.026 1018.82 118.558 1018.68 117.999 1018.68C117.424 1018.68 116.945 1018.83 116.561 1019.12C116.178 1019.42 115.888 1019.82 115.692 1020.33C115.5 1020.83 115.404 1021.4 115.404 1022.03C115.404 1022.67 115.502 1023.24 115.698 1023.72C115.894 1024.21 116.184 1024.59 116.567 1024.86C116.955 1025.13 117.433 1025.27 117.999 1025.27Z" fill="#132356"/>
<path d="M40.1953 447.348C40.1271 446.743 39.8459 446.274 39.3516 445.942C38.8572 445.605 38.2351 445.437 37.4851 445.437C36.9482 445.437 36.4837 445.522 36.0916 445.692C35.6996 445.859 35.3949 446.089 35.1776 446.383C34.9645 446.673 34.858 447.003 34.858 447.374C34.858 447.685 34.9304 447.953 35.0753 448.179C35.2244 448.405 35.4183 448.594 35.657 448.748C35.8999 448.897 36.1598 449.023 36.4368 449.125C36.7138 449.223 36.9801 449.304 37.2358 449.368L38.5142 449.7C38.9318 449.803 39.3601 449.941 39.799 450.116C40.2379 450.29 40.6449 450.521 41.0199 450.806C41.3949 451.092 41.6974 451.445 41.9276 451.867C42.1619 452.289 42.2791 452.794 42.2791 453.382C42.2791 454.124 42.0874 454.782 41.7038 455.357C41.3246 455.933 40.7727 456.386 40.0483 456.719C39.3281 457.051 38.4567 457.217 37.4339 457.217C36.4538 457.217 35.6058 457.062 34.8899 456.751C34.174 456.44 33.6136 455.999 33.2088 455.428C32.804 454.852 32.5803 454.17 32.5376 453.382H34.5192C34.5575 453.855 34.7109 454.249 34.9794 454.565C35.2521 454.876 35.5994 455.108 36.0213 455.261C36.4474 455.411 36.9141 455.485 37.4212 455.485C37.9794 455.485 38.4759 455.398 38.9105 455.223C39.3494 455.044 39.6946 454.797 39.946 454.482C40.1974 454.162 40.3232 453.789 40.3232 453.363C40.3232 452.975 40.2124 452.658 39.9908 452.411C39.7734 452.163 39.4773 451.959 39.1023 451.797C38.7315 451.635 38.3118 451.492 37.843 451.369L36.2962 450.947C35.2479 450.661 34.4169 450.241 33.8033 449.688C33.1939 449.134 32.8892 448.401 32.8892 447.489C32.8892 446.734 33.0938 446.076 33.5028 445.513C33.9119 444.951 34.4659 444.514 35.1648 444.203C35.8636 443.888 36.652 443.73 37.5298 443.73C38.4162 443.73 39.1982 443.886 39.8757 444.197C40.5575 444.508 41.0945 444.936 41.4865 445.482C41.8786 446.023 42.0831 446.645 42.1001 447.348H40.1953ZM49.0691 447.182V448.716H43.7061V447.182H49.0691ZM45.1444 444.83H47.0556V454.117C47.0556 454.488 47.111 454.767 47.2218 454.955C47.3326 455.138 47.4753 455.263 47.65 455.332C47.829 455.396 48.0229 455.428 48.2317 455.428C48.3851 455.428 48.5194 455.417 48.6344 455.396C48.7495 455.374 48.839 455.357 48.9029 455.344L49.248 456.923C49.1373 456.966 48.9796 457.009 48.775 457.051C48.5705 457.098 48.3148 457.124 48.008 457.128C47.5051 457.136 47.0364 457.047 46.6017 456.859C46.1671 456.672 45.8155 456.382 45.5471 455.99C45.2786 455.598 45.1444 455.106 45.1444 454.513V444.83ZM57.4027 452.928V447.182H59.3203V457H57.4411V455.3H57.3388C57.1129 455.824 56.7507 456.261 56.2521 456.61C55.7578 456.955 55.142 457.128 54.4048 457.128C53.7741 457.128 53.2159 456.989 52.7301 456.712C52.2486 456.431 51.8693 456.016 51.5923 455.466C51.3196 454.916 51.1832 454.237 51.1832 453.427V447.182H53.0945V453.197C53.0945 453.866 53.2798 454.398 53.6506 454.795C54.0213 455.191 54.5028 455.389 55.0952 455.389C55.4531 455.389 55.8089 455.3 56.1626 455.121C56.5206 454.942 56.8168 454.671 57.0511 454.309C57.2898 453.947 57.407 453.487 57.4027 452.928ZM65.5637 457.192C64.7711 457.192 64.0637 456.989 63.4416 456.585C62.8237 456.175 62.3379 455.594 61.9842 454.839C61.6348 454.081 61.46 453.171 61.46 452.11C61.46 451.049 61.6369 450.141 61.9906 449.387C62.3485 448.633 62.8386 448.055 63.4608 447.655C64.0829 447.254 64.7882 447.054 65.5765 447.054C66.1859 447.054 66.676 447.156 67.0467 447.361C67.4217 447.561 67.7115 447.795 67.916 448.064C68.1248 448.332 68.2868 448.569 68.4018 448.773H68.5169V443.909H70.4281V457H68.5616V455.472H68.4018C68.2868 455.681 68.1206 455.92 67.9032 456.188C67.6902 456.457 67.3961 456.691 67.0211 456.891C66.6461 457.092 66.1603 457.192 65.5637 457.192ZM65.9856 455.562C66.5353 455.562 66.9998 455.417 67.3791 455.127C67.7626 454.833 68.0524 454.426 68.2484 453.906C68.4487 453.386 68.5488 452.781 68.5488 452.091C68.5488 451.409 68.4508 450.812 68.2548 450.301C68.0588 449.79 67.7711 449.391 67.3919 449.106C67.0126 448.82 66.5439 448.678 65.9856 448.678C65.4103 448.678 64.9309 448.827 64.5474 449.125C64.1639 449.423 63.8741 449.83 63.6781 450.346C63.4863 450.862 63.3904 451.443 63.3904 452.091C63.3904 452.747 63.4885 453.337 63.6845 453.862C63.8805 454.386 64.1703 454.801 64.5538 455.108C64.9416 455.411 65.4189 455.562 65.9856 455.562ZM77.3874 457.198C76.4201 457.198 75.587 456.991 74.8881 456.578C74.1935 456.161 73.6566 455.575 73.2773 454.82C72.9023 454.062 72.7148 453.173 72.7148 452.155C72.7148 451.149 72.9023 450.263 73.2773 449.496C73.6566 448.729 74.185 448.13 74.8626 447.7C75.5444 447.269 76.3413 447.054 77.2532 447.054C77.8072 447.054 78.3441 447.146 78.864 447.329C79.3839 447.512 79.8505 447.8 80.2638 448.192C80.6772 448.584 81.0032 449.093 81.2418 449.719C81.4805 450.342 81.5998 451.098 81.5998 451.989V452.666H73.7951V451.234H79.7269C79.7269 450.732 79.6246 450.286 79.4201 449.898C79.2156 449.506 78.9279 449.197 78.5572 448.972C78.1907 448.746 77.7603 448.633 77.266 448.633C76.729 448.633 76.2603 448.765 75.8597 449.029C75.4634 449.289 75.1566 449.63 74.9393 450.052C74.7262 450.469 74.6197 450.923 74.6197 451.413V452.532C74.6197 453.188 74.7347 453.746 74.9648 454.207C75.1992 454.667 75.5252 455.018 75.9428 455.261C76.3604 455.5 76.8484 455.619 77.4066 455.619C77.7688 455.619 78.0991 455.568 78.3974 455.466C78.6957 455.359 78.9535 455.202 79.1708 454.993C79.3881 454.784 79.5543 454.526 79.6694 454.219L81.4783 454.545C81.3335 455.078 81.0735 455.545 80.6985 455.945C80.3278 456.342 79.8612 456.651 79.2987 456.872C78.7404 457.089 78.1033 457.198 77.3874 457.198ZM85.6316 451.17V457H83.7203V447.182H85.5549V448.78H85.6763C85.9022 448.26 86.2559 447.842 86.7374 447.527C87.2232 447.212 87.8347 447.054 88.5719 447.054C89.2409 447.054 89.8269 447.195 90.3297 447.476C90.8326 447.753 91.2225 448.166 91.4995 448.716C91.7765 449.266 91.915 449.945 91.915 450.755V457H90.0037V450.985C90.0037 450.273 89.8184 449.717 89.4476 449.317C89.0769 448.912 88.5676 448.71 87.9199 448.71C87.4767 448.71 87.0826 448.805 86.7374 448.997C86.3965 449.189 86.1259 449.47 85.9256 449.841C85.7296 450.207 85.6316 450.651 85.6316 451.17ZM99.0613 447.182V448.716H93.6983V447.182H99.0613ZM95.1365 444.83H97.0478V454.117C97.0478 454.488 97.1032 454.767 97.214 454.955C97.3248 455.138 97.4675 455.263 97.6422 455.332C97.8212 455.396 98.0151 455.428 98.2239 455.428C98.3773 455.428 98.5115 455.417 98.6266 455.396C98.7417 455.374 98.8311 455.357 98.8951 455.344L99.2402 456.923C99.1294 456.966 98.9718 457.009 98.7672 457.051C98.5627 457.098 98.307 457.124 98.0002 457.128C97.4973 457.136 97.0286 457.047 96.5939 456.859C96.1593 456.672 95.8077 456.382 95.5392 455.99C95.2708 455.598 95.1365 455.106 95.1365 454.513V444.83ZM108.374 449.579L106.642 449.886C106.57 449.664 106.455 449.453 106.297 449.253C106.144 449.053 105.935 448.888 105.671 448.761C105.406 448.633 105.076 448.569 104.68 448.569C104.139 448.569 103.687 448.69 103.325 448.933C102.963 449.172 102.781 449.481 102.781 449.86C102.781 450.188 102.903 450.452 103.146 450.653C103.389 450.853 103.781 451.017 104.322 451.145L105.882 451.503C106.785 451.712 107.458 452.033 107.901 452.468C108.345 452.903 108.566 453.467 108.566 454.162C108.566 454.75 108.396 455.274 108.055 455.734C107.718 456.19 107.247 456.548 106.642 456.808C106.041 457.068 105.345 457.198 104.552 457.198C103.453 457.198 102.556 456.964 101.861 456.495C101.166 456.022 100.74 455.351 100.583 454.482L102.43 454.2C102.545 454.682 102.781 455.046 103.139 455.293C103.497 455.536 103.964 455.658 104.539 455.658C105.166 455.658 105.666 455.528 106.041 455.268C106.416 455.004 106.604 454.682 106.604 454.303C106.604 453.996 106.489 453.738 106.259 453.529C106.033 453.32 105.686 453.163 105.217 453.056L103.555 452.692C102.639 452.483 101.961 452.151 101.522 451.695C101.088 451.239 100.87 450.661 100.87 449.962C100.87 449.383 101.032 448.876 101.356 448.441C101.68 448.006 102.127 447.668 102.698 447.425C103.269 447.178 103.923 447.054 104.661 447.054C105.722 447.054 106.557 447.284 107.166 447.744C107.776 448.2 108.178 448.812 108.374 449.579ZM40.6915 465.909H42.673V474.519C42.673 475.435 42.4578 476.247 42.0274 476.955C41.597 477.658 40.9919 478.212 40.2121 478.616C39.4323 479.017 38.5182 479.217 37.4699 479.217C36.4259 479.217 35.5139 479.017 34.7341 478.616C33.9543 478.212 33.3492 477.658 32.9188 476.955C32.4884 476.247 32.2732 475.435 32.2732 474.519V465.909H34.2483V474.359C34.2483 474.952 34.3783 475.478 34.6382 475.938C34.9024 476.398 35.2753 476.761 35.7568 477.025C36.2384 477.285 36.8094 477.415 37.4699 477.415C38.1347 477.415 38.7078 477.285 39.1894 477.025C39.6752 476.761 40.0459 476.398 40.3016 475.938C40.5615 475.478 40.6915 474.952 40.6915 474.359V465.909ZM45.3912 482.682V469.182H47.2577V470.773H47.4175C47.5283 470.569 47.6881 470.332 47.8969 470.064C48.1057 469.795 48.3955 469.561 48.7662 469.361C49.137 469.156 49.627 469.054 50.2364 469.054C51.029 469.054 51.7364 469.254 52.3586 469.655C52.9807 470.055 53.4687 470.633 53.8224 471.387C54.1803 472.141 54.3593 473.049 54.3593 474.11C54.3593 475.171 54.1824 476.081 53.8287 476.839C53.4751 477.594 52.9893 478.175 52.3714 478.585C51.7535 478.989 51.0482 479.192 50.2556 479.192C49.659 479.192 49.1711 479.092 48.7918 478.891C48.4168 478.691 48.1228 478.457 47.9097 478.188C47.6966 477.92 47.5326 477.681 47.4175 477.472H47.3025V482.682H45.3912ZM47.2641 474.091C47.2641 474.781 47.3643 475.386 47.5645 475.906C47.7648 476.426 48.0546 476.833 48.4339 477.127C48.8131 477.417 49.2776 477.562 49.8273 477.562C50.3983 477.562 50.8756 477.411 51.2591 477.108C51.6427 476.801 51.9324 476.386 52.1285 475.862C52.3287 475.337 52.4289 474.747 52.4289 474.091C52.4289 473.443 52.3309 472.862 52.1349 472.346C51.9431 471.83 51.6533 471.423 51.2655 471.125C50.882 470.827 50.4026 470.678 49.8273 470.678C49.2733 470.678 48.8046 470.82 48.4211 471.106C48.0418 471.391 47.7542 471.79 47.5582 472.301C47.3621 472.812 47.2641 473.409 47.2641 474.091ZM63.8579 471.579L62.1256 471.886C62.0532 471.664 61.9381 471.453 61.7805 471.253C61.627 471.053 61.4182 470.888 61.154 470.761C60.8898 470.633 60.5596 470.569 60.1633 470.569C59.6221 470.569 59.1704 470.69 58.8082 470.933C58.4459 471.172 58.2648 471.481 58.2648 471.86C58.2648 472.188 58.3863 472.452 58.6292 472.653C58.8721 472.853 59.2641 473.017 59.8053 473.145L61.365 473.503C62.2684 473.712 62.9417 474.033 63.3849 474.468C63.828 474.903 64.0496 475.467 64.0496 476.162C64.0496 476.75 63.8792 477.274 63.5383 477.734C63.2016 478.19 62.7307 478.548 62.1256 478.808C61.5248 479.068 60.828 479.198 60.0354 479.198C58.936 479.198 58.039 478.964 57.3444 478.495C56.6498 478.022 56.2236 477.351 56.066 476.482L57.9133 476.2C58.0283 476.682 58.2648 477.046 58.6228 477.293C58.9807 477.536 59.4474 477.658 60.0226 477.658C60.6491 477.658 61.1498 477.528 61.5248 477.268C61.8998 477.004 62.0873 476.682 62.0873 476.303C62.0873 475.996 61.9722 475.738 61.7421 475.529C61.5162 475.32 61.1689 475.163 60.7002 475.056L59.0383 474.692C58.1221 474.483 57.4445 474.151 57.0056 473.695C56.5709 473.239 56.3536 472.661 56.3536 471.962C56.3536 471.383 56.5155 470.876 56.8394 470.441C57.1633 470.006 57.6107 469.668 58.1817 469.425C58.7528 469.178 59.4069 469.054 60.1441 469.054C61.2052 469.054 62.0404 469.284 62.6498 469.744C63.2591 470.2 63.6618 470.812 63.8579 471.579ZM67.9088 475.67L67.896 473.337H68.2284L72.1404 469.182H74.4287L69.9671 473.912H69.6666L67.9088 475.67ZM66.151 479V465.909H68.0622V479H66.151ZM72.3513 479L68.8357 474.334L70.1524 472.998L74.6972 479H72.3513ZM76.1705 479V469.182H78.0818V479H76.1705ZM77.1357 467.667C76.8034 467.667 76.5178 467.556 76.2792 467.335C76.0448 467.109 75.9276 466.84 75.9276 466.529C75.9276 466.214 76.0448 465.945 76.2792 465.724C76.5178 465.498 76.8034 465.385 77.1357 465.385C77.4681 465.385 77.7515 465.498 77.9859 465.724C78.2245 465.945 78.3438 466.214 78.3438 466.529C78.3438 466.84 78.2245 467.109 77.9859 467.335C77.7515 467.556 77.4681 467.667 77.1357 467.667ZM82.5642 465.909V479H80.653V465.909H82.5642ZM87.0466 465.909V479H85.1354V465.909H87.0466ZM93.8493 479.198C92.882 479.198 92.0489 478.991 91.3501 478.578C90.6555 478.161 90.1185 477.575 89.7393 476.82C89.3643 476.062 89.1768 475.173 89.1768 474.155C89.1768 473.149 89.3643 472.263 89.7393 471.496C90.1185 470.729 90.6469 470.13 91.3245 469.7C92.0063 469.269 92.8032 469.054 93.7151 469.054C94.2691 469.054 94.806 469.146 95.3259 469.329C95.8458 469.512 96.3124 469.8 96.7258 470.192C97.1391 470.584 97.4651 471.093 97.7037 471.719C97.9424 472.342 98.0617 473.098 98.0617 473.989V474.666H90.257V473.234H96.1888C96.1888 472.732 96.0866 472.286 95.882 471.898C95.6775 471.506 95.3898 471.197 95.0191 470.972C94.6526 470.746 94.2222 470.633 93.7279 470.633C93.191 470.633 92.7222 470.765 92.3216 471.029C91.9253 471.289 91.6185 471.63 91.4012 472.052C91.1881 472.469 91.0816 472.923 91.0816 473.413V474.532C91.0816 475.188 91.1966 475.746 91.4268 476.207C91.6611 476.667 91.9871 477.018 92.4047 477.261C92.8224 477.5 93.3103 477.619 93.8685 477.619C94.2307 477.619 94.561 477.568 94.8593 477.466C95.1576 477.359 95.4154 477.202 95.6327 476.993C95.8501 476.784 96.0162 476.526 96.1313 476.219L97.9403 476.545C97.7954 477.078 97.5354 477.545 97.1604 477.945C96.7897 478.342 96.3231 478.651 95.7606 478.872C95.2023 479.089 94.5653 479.198 93.8493 479.198ZM103.858 479.192C103.065 479.192 102.358 478.989 101.736 478.585C101.118 478.175 100.632 477.594 100.278 476.839C99.9287 476.081 99.754 475.171 99.754 474.11C99.754 473.049 99.9308 472.141 100.285 471.387C100.642 470.633 101.133 470.055 101.755 469.655C102.377 469.254 103.082 469.054 103.87 469.054C104.48 469.054 104.97 469.156 105.341 469.361C105.716 469.561 106.005 469.795 106.21 470.064C106.419 470.332 106.581 470.569 106.696 470.773H106.811V465.909H108.722V479H106.856V477.472H106.696C106.581 477.681 106.415 477.92 106.197 478.188C105.984 478.457 105.69 478.691 105.315 478.891C104.94 479.092 104.454 479.192 103.858 479.192ZM104.28 477.562C104.829 477.562 105.294 477.417 105.673 477.127C106.057 476.833 106.346 476.426 106.542 475.906C106.743 475.386 106.843 474.781 106.843 474.091C106.843 473.409 106.745 472.812 106.549 472.301C106.353 471.79 106.065 471.391 105.686 471.106C105.307 470.82 104.838 470.678 104.28 470.678C103.704 470.678 103.225 470.827 102.841 471.125C102.458 471.423 102.168 471.83 101.972 472.346C101.78 472.862 101.684 473.443 101.684 474.091C101.684 474.747 101.782 475.337 101.978 475.862C102.174 476.386 102.464 476.801 102.848 477.108C103.236 477.411 103.713 477.562 104.28 477.562Z" fill="#132356"/>
<defs>
<linearGradient id="paint0_linear_12_54" x1="1.66579e-06" y1="94" x2="141" y2="94" gradientUnits="userSpaceOnUse">
<stop stop-color="#8B98D7"/>
<stop offset="1" stop-color="#132356" stop-opacity="0.9"/>
</linearGradient>
<linearGradient id="paint1_linear_12_54" x1="1.66579e-06" y1="94" x2="141" y2="94" gradientUnits="userSpaceOnUse">
<stop stop-color="#3F9898"/>
<stop offset="1" stop-color="#8ECFCF" stop-opacity="0.9"/>
</linearGradient>
<linearGradient id="paint2_linear_12_54" x1="98" y1="14.9362" x2="116" y2="14.9362" gradientUnits="userSpaceOnUse">
<stop stop-color="#8ECFCF"/>
<stop offset="1" stop-color="#3F9898" stop-opacity="0.76"/>
</linearGradient>
<linearGradient id="paint3_linear_12_54" x1="116" y1="27.9716" x2="124" y2="27.9716" gradientUnits="userSpaceOnUse">
<stop stop-color="#3F9898"/>
<stop offset="1" stop-color="#8ECFCF" stop-opacity="0.66"/>
</linearGradient>
<linearGradient id="paint4_linear_12_54" x1="102" y1="2.48227" x2="107" y2="2.48227" gradientUnits="userSpaceOnUse">
<stop stop-color="#3F9898"/>
<stop offset="1" stop-color="#8ECFCF" stop-opacity="0.48"/>
</linearGradient>
<linearGradient id="paint5_linear_12_54" x1="1.66579e-06" y1="349" x2="141" y2="349" gradientUnits="userSpaceOnUse">
<stop stop-color="#8ECFCF"/>
<stop offset="1" stop-color="#3F9898" stop-opacity="0.9"/>
</linearGradient>
<linearGradient id="paint6_linear_12_54" x1="113" y1="277.689" x2="128" y2="277.689" gradientUnits="userSpaceOnUse">
<stop stop-color="#3F9898"/>
<stop offset="1" stop-color="#8ECFCF" stop-opacity="0.55"/>
</linearGradient>
<linearGradient id="paint7_linear_12_54" x1="113.958" y1="262.683" x2="118.958" y2="262.683" gradientUnits="userSpaceOnUse">
<stop stop-color="#8ECFCF"/>
<stop offset="1" stop-color="#3F9898" stop-opacity="0.55"/>
</linearGradient>
<linearGradient id="paint8_linear_12_54" x1="1.66579e-06" y1="617" x2="141" y2="617" gradientUnits="userSpaceOnUse">
<stop stop-color="#8B98D7"/>
<stop offset="1" stop-color="#132356" stop-opacity="0.9"/>
</linearGradient>
<linearGradient id="paint9_linear_12_54" x1="1.66579e-06" y1="897" x2="141" y2="897" gradientUnits="userSpaceOnUse">
<stop stop-color="#8B98D7"/>
<stop offset="1" stop-color="#132356" stop-opacity="0.9"/>
</linearGradient>
<linearGradient id="paint10_linear_12_54" x1="1.66579e-06" y1="617" x2="141" y2="617" gradientUnits="userSpaceOnUse">
<stop stop-color="#8ECFCF"/>
<stop offset="1" stop-color="#3F9898" stop-opacity="0.9"/>
</linearGradient>
<linearGradient id="paint11_linear_12_54" x1="1.66579e-06" y1="897" x2="141" y2="897" gradientUnits="userSpaceOnUse">
<stop stop-color="#3F9898"/>
<stop offset="1" stop-color="#8ECFCF" stop-opacity="0.9"/>
</linearGradient>
<linearGradient id="paint12_linear_12_54" x1="101" y1="543.433" x2="120" y2="543.433" gradientUnits="userSpaceOnUse">
<stop stop-color="#8ECFCF"/>
<stop offset="1" stop-color="#3F9898" stop-opacity="0.81"/>
</linearGradient>
<linearGradient id="paint13_linear_12_54" x1="101" y1="823.433" x2="120" y2="823.433" gradientUnits="userSpaceOnUse">
<stop stop-color="#3F9898"/>
<stop offset="1" stop-color="#8ECFCF" stop-opacity="0.81"/>
</linearGradient>
<linearGradient id="paint14_linear_12_54" x1="120" y1="557.979" x2="126" y2="557.979" gradientUnits="userSpaceOnUse">
<stop stop-color="#3F9898"/>
<stop offset="1" stop-color="#8ECFCF" stop-opacity="0.81"/>
</linearGradient>
<linearGradient id="paint15_linear_12_54" x1="120" y1="804.979" x2="126" y2="804.979" gradientUnits="userSpaceOnUse">
<stop stop-color="#3F9898"/>
<stop offset="1" stop-color="#8ECFCF" stop-opacity="0.81"/>
</linearGradient>
</defs>
</svg>
